<svg width="1828" height="959" viewBox="0 0 1828 959" fill="none" xmlns="http://www.w3.org/2000/svg">
<g filter="url(#filter0_d_0_1)">
<rect x="48" y="264" width="657" height="165" rx="9" fill="#040F11"/>
<rect x="49" y="265" width="655" height="163" rx="8" stroke="#85C9D1" stroke-width="2"/>
</g>
<g filter="url(#filter1_d_0_1)">
<rect x="48" y="479" width="657" height="165" rx="9" fill="#040F11"/>
<rect x="49" y="480" width="655" height="163" rx="8" stroke="#85C9D1" stroke-width="2"/>
</g>
<path d="M645.843 341.803L601.322 316.539C600.572 316.12 599.711 315.939 598.854 316.018C597.998 316.098 597.185 316.434 596.526 316.984C595.866 317.533 595.39 318.269 595.161 319.093C594.932 319.918 594.96 320.792 595.243 321.6L603.458 345.436C603.457 345.445 603.457 345.454 603.458 345.463C603.457 345.471 603.457 345.48 603.458 345.489L595.243 369.378C595.017 370.013 594.947 370.694 595.04 371.361C595.133 372.029 595.385 372.665 595.777 373.216C596.168 373.767 596.686 374.216 597.288 374.527C597.89 374.837 598.559 374.999 599.237 375C599.973 374.998 600.695 374.808 601.336 374.447L645.832 349.141C646.489 348.775 647.035 348.242 647.416 347.597C647.797 346.952 647.999 346.218 648 345.47C648.001 344.722 647.802 343.988 647.424 343.341C647.045 342.695 646.5 342.16 645.845 341.792L645.843 341.803ZM599.237 370.785V370.761L607.224 347.599H622.557C623.119 347.599 623.658 347.377 624.056 346.982C624.454 346.587 624.677 346.051 624.677 345.492C624.677 344.933 624.454 344.396 624.056 344.001C623.658 343.606 623.119 343.384 622.557 343.384H607.245L599.253 320.23L599.237 320.199L643.757 345.447L599.237 370.785Z" fill="#85C9D1" fill-opacity="0.64"/>
<path d="M645.843 555.678L601.322 529.557C600.572 529.124 599.711 528.937 598.854 529.019C597.998 529.101 597.185 529.449 596.526 530.017C595.866 530.585 595.39 531.345 595.161 532.198C594.932 533.051 594.96 533.955 595.243 534.79L603.458 559.434C603.457 559.443 603.457 559.452 603.458 559.461C603.457 559.47 603.457 559.479 603.458 559.489L595.243 584.187C595.017 584.844 594.947 585.548 595.04 586.238C595.133 586.929 595.385 587.586 595.777 588.156C596.168 588.725 596.686 589.19 597.288 589.511C597.89 589.832 598.559 589.999 599.237 590C599.973 589.998 600.695 589.801 601.336 589.428L645.832 563.264C646.489 562.886 647.035 562.335 647.416 561.669C647.797 561.002 647.999 560.243 648 559.469C648.001 558.696 647.802 557.936 647.424 557.268C647.045 556.6 646.5 556.047 645.845 555.667L645.843 555.678ZM599.237 585.642V585.617L607.224 561.67H622.557C623.119 561.67 623.658 561.441 624.056 561.032C624.454 560.623 624.677 560.069 624.677 559.491C624.677 558.913 624.454 558.359 624.056 557.95C623.658 557.542 623.119 557.312 622.557 557.312H607.245L599.253 533.374L599.237 533.341L643.757 559.445L599.237 585.642Z" fill="#85C9D1" fill-opacity="0.64"/>
<path d="M111.208 330.141V360H105.076V330.141H111.208ZM139.037 354.996V345.111C139.037 344.4 138.921 343.792 138.688 343.286C138.456 342.767 138.094 342.363 137.602 342.076C137.123 341.789 136.501 341.646 135.735 341.646C135.079 341.646 134.512 341.762 134.033 341.994C133.555 342.213 133.186 342.534 132.926 342.958C132.666 343.368 132.536 343.854 132.536 344.414H126.63C126.63 343.471 126.849 342.575 127.286 341.728C127.724 340.88 128.359 340.135 129.193 339.492C130.027 338.836 131.019 338.323 132.167 337.954C133.329 337.585 134.628 337.4 136.063 337.4C137.786 337.4 139.317 337.688 140.657 338.262C141.997 338.836 143.05 339.697 143.815 340.846C144.595 341.994 144.984 343.43 144.984 345.152V354.647C144.984 355.864 145.06 356.862 145.21 357.642C145.36 358.407 145.579 359.077 145.866 359.651V360H139.898C139.611 359.398 139.393 358.646 139.242 357.744C139.105 356.828 139.037 355.912 139.037 354.996ZM139.816 346.485L139.857 349.828H136.556C135.776 349.828 135.1 349.917 134.525 350.095C133.951 350.272 133.479 350.525 133.11 350.854C132.741 351.168 132.468 351.537 132.29 351.961C132.126 352.385 132.044 352.85 132.044 353.355C132.044 353.861 132.16 354.319 132.393 354.729C132.625 355.126 132.96 355.44 133.397 355.673C133.835 355.892 134.348 356.001 134.936 356.001C135.824 356.001 136.597 355.823 137.253 355.468C137.909 355.112 138.415 354.675 138.771 354.155C139.14 353.636 139.331 353.144 139.345 352.679L140.903 355.181C140.685 355.741 140.384 356.322 140.001 356.924C139.632 357.525 139.16 358.093 138.586 358.626C138.012 359.146 137.321 359.576 136.515 359.918C135.708 360.246 134.751 360.41 133.644 360.41C132.235 360.41 130.957 360.13 129.809 359.569C128.674 358.995 127.771 358.209 127.102 357.211C126.445 356.199 126.117 355.051 126.117 353.766C126.117 352.604 126.336 351.571 126.773 350.669C127.211 349.767 127.854 349.008 128.701 348.393C129.562 347.764 130.636 347.292 131.921 346.978C133.206 346.649 134.696 346.485 136.392 346.485H139.816ZM155.443 342.404V360H149.517V337.811H155.074L155.443 342.404ZM154.623 348.126H152.982C152.982 346.581 153.167 345.159 153.536 343.86C153.919 342.548 154.473 341.413 155.197 340.456C155.936 339.485 156.845 338.733 157.925 338.2C159.005 337.667 160.256 337.4 161.678 337.4C162.662 337.4 163.564 337.551 164.385 337.852C165.205 338.139 165.909 338.597 166.497 339.226C167.099 339.841 167.563 340.647 167.892 341.646C168.22 342.63 168.384 343.812 168.384 345.193V360H162.478V345.85C162.478 344.838 162.341 344.059 162.067 343.512C161.794 342.965 161.404 342.582 160.898 342.363C160.406 342.145 159.812 342.035 159.114 342.035C158.349 342.035 157.679 342.192 157.104 342.507C156.544 342.821 156.079 343.259 155.71 343.819C155.341 344.366 155.067 345.009 154.89 345.747C154.712 346.485 154.623 347.278 154.623 348.126ZM167.83 347.449L165.718 347.716C165.718 346.267 165.896 344.92 166.251 343.676C166.62 342.432 167.16 341.338 167.871 340.395C168.596 339.451 169.491 338.72 170.558 338.2C171.624 337.667 172.854 337.4 174.249 337.4C175.315 337.4 176.286 337.558 177.161 337.872C178.036 338.173 178.781 338.658 179.396 339.328C180.025 339.984 180.504 340.846 180.832 341.912C181.174 342.979 181.345 344.284 181.345 345.829V360H175.418V345.829C175.418 344.804 175.281 344.024 175.008 343.491C174.748 342.944 174.365 342.568 173.859 342.363C173.367 342.145 172.779 342.035 172.096 342.035C171.385 342.035 170.763 342.179 170.229 342.466C169.696 342.739 169.252 343.122 168.896 343.614C168.541 344.106 168.274 344.681 168.097 345.337C167.919 345.979 167.83 346.684 167.83 347.449ZM208.354 354.996V345.111C208.354 344.4 208.237 343.792 208.005 343.286C207.772 342.767 207.41 342.363 206.918 342.076C206.439 341.789 205.817 341.646 205.052 341.646C204.396 341.646 203.828 341.762 203.35 341.994C202.871 342.213 202.502 342.534 202.242 342.958C201.982 343.368 201.853 343.854 201.853 344.414H195.946C195.946 343.471 196.165 342.575 196.603 341.728C197.04 340.88 197.676 340.135 198.51 339.492C199.344 338.836 200.335 338.323 201.483 337.954C202.646 337.585 203.944 337.4 205.38 337.4C207.103 337.4 208.634 337.688 209.974 338.262C211.313 338.836 212.366 339.697 213.132 340.846C213.911 341.994 214.301 343.43 214.301 345.152V354.647C214.301 355.864 214.376 356.862 214.526 357.642C214.677 358.407 214.896 359.077 215.183 359.651V360H209.215C208.928 359.398 208.709 358.646 208.559 357.744C208.422 356.828 208.354 355.912 208.354 354.996ZM209.133 346.485L209.174 349.828H205.872C205.093 349.828 204.416 349.917 203.842 350.095C203.268 350.272 202.796 350.525 202.427 350.854C202.058 351.168 201.784 351.537 201.606 351.961C201.442 352.385 201.36 352.85 201.36 353.355C201.36 353.861 201.477 354.319 201.709 354.729C201.941 355.126 202.276 355.44 202.714 355.673C203.151 355.892 203.664 356.001 204.252 356.001C205.141 356.001 205.913 355.823 206.569 355.468C207.226 355.112 207.731 354.675 208.087 354.155C208.456 353.636 208.647 353.144 208.661 352.679L210.22 355.181C210.001 355.741 209.7 356.322 209.317 356.924C208.948 357.525 208.477 358.093 207.902 358.626C207.328 359.146 206.638 359.576 205.831 359.918C205.024 360.246 204.067 360.41 202.96 360.41C201.552 360.41 200.273 360.13 199.125 359.569C197.99 358.995 197.088 358.209 196.418 357.211C195.762 356.199 195.434 355.051 195.434 353.766C195.434 352.604 195.652 351.571 196.09 350.669C196.527 349.767 197.17 349.008 198.018 348.393C198.879 347.764 199.952 347.292 201.237 346.978C202.522 346.649 204.013 346.485 205.708 346.485H209.133ZM242.417 355.16V328.5H248.364V360H243.012L242.417 355.16ZM228.39 349.172V348.741C228.39 347.046 228.581 345.508 228.964 344.127C229.347 342.732 229.907 341.536 230.646 340.538C231.384 339.54 232.293 338.768 233.373 338.221C234.453 337.674 235.684 337.4 237.064 337.4C238.363 337.4 239.498 337.674 240.469 338.221C241.453 338.768 242.287 339.547 242.971 340.559C243.668 341.557 244.229 342.739 244.652 344.106C245.076 345.46 245.384 346.943 245.575 348.557V349.5C245.384 351.045 245.076 352.48 244.652 353.807C244.229 355.133 243.668 356.295 242.971 357.293C242.287 358.277 241.453 359.043 240.469 359.59C239.484 360.137 238.336 360.41 237.023 360.41C235.643 360.41 234.412 360.13 233.332 359.569C232.266 359.009 231.363 358.223 230.625 357.211C229.9 356.199 229.347 355.01 228.964 353.643C228.581 352.275 228.39 350.785 228.39 349.172ZM234.296 348.741V349.172C234.296 350.088 234.364 350.942 234.501 351.735C234.651 352.528 234.891 353.232 235.219 353.848C235.561 354.449 235.998 354.921 236.531 355.263C237.078 355.591 237.741 355.755 238.521 355.755C239.532 355.755 240.366 355.529 241.022 355.078C241.679 354.613 242.178 353.978 242.52 353.171C242.875 352.364 243.08 351.435 243.135 350.382V347.695C243.094 346.834 242.971 346.062 242.766 345.378C242.574 344.681 242.287 344.086 241.904 343.594C241.535 343.102 241.07 342.719 240.51 342.445C239.963 342.172 239.313 342.035 238.562 342.035C237.796 342.035 237.14 342.213 236.593 342.568C236.046 342.91 235.602 343.382 235.26 343.983C234.932 344.585 234.686 345.296 234.521 346.116C234.371 346.923 234.296 347.798 234.296 348.741ZM258.885 342.65V360H252.979V337.811H258.536L258.885 342.65ZM265.57 337.667L265.468 343.143C265.181 343.102 264.832 343.067 264.422 343.04C264.025 342.999 263.663 342.979 263.335 342.979C262.501 342.979 261.776 343.088 261.161 343.307C260.56 343.512 260.054 343.819 259.644 344.229C259.247 344.64 258.946 345.139 258.741 345.727C258.55 346.314 258.44 346.984 258.413 347.736L257.224 347.367C257.224 345.932 257.367 344.612 257.654 343.409C257.941 342.192 258.358 341.133 258.905 340.23C259.466 339.328 260.149 338.631 260.956 338.139C261.763 337.646 262.686 337.4 263.725 337.4C264.053 337.4 264.388 337.428 264.729 337.482C265.071 337.523 265.352 337.585 265.57 337.667ZM274.594 337.811V360H268.667V337.811H274.594ZM268.298 332.027C268.298 331.166 268.599 330.455 269.2 329.895C269.802 329.334 270.608 329.054 271.62 329.054C272.618 329.054 273.418 329.334 274.02 329.895C274.635 330.455 274.942 331.166 274.942 332.027C274.942 332.889 274.635 333.6 274.02 334.16C273.418 334.721 272.618 335.001 271.62 335.001C270.608 335.001 269.802 334.721 269.2 334.16C268.599 333.6 268.298 332.889 268.298 332.027ZM287.021 355.693L291.943 337.811H298.116L290.631 360H286.898L287.021 355.693ZM283.638 337.811L288.58 355.714L288.683 360H284.93L277.444 337.811H283.638ZM310.688 360.41C308.965 360.41 307.42 360.137 306.053 359.59C304.686 359.029 303.523 358.257 302.566 357.272C301.623 356.288 300.898 355.146 300.393 353.848C299.887 352.535 299.634 351.141 299.634 349.664V348.844C299.634 347.162 299.873 345.624 300.352 344.229C300.83 342.835 301.514 341.625 302.402 340.6C303.305 339.574 304.398 338.788 305.684 338.241C306.969 337.681 308.418 337.4 310.031 337.4C311.604 337.4 312.998 337.66 314.215 338.18C315.432 338.699 316.45 339.438 317.271 340.395C318.104 341.352 318.733 342.5 319.157 343.84C319.581 345.166 319.793 346.643 319.793 348.27V350.73H302.156V346.793H313.989V346.342C313.989 345.521 313.839 344.79 313.538 344.147C313.251 343.491 312.813 342.972 312.226 342.589C311.638 342.206 310.886 342.015 309.97 342.015C309.19 342.015 308.521 342.186 307.96 342.527C307.399 342.869 306.941 343.348 306.586 343.963C306.244 344.578 305.984 345.303 305.807 346.137C305.643 346.957 305.561 347.859 305.561 348.844V349.664C305.561 350.553 305.684 351.373 305.93 352.125C306.189 352.877 306.552 353.526 307.017 354.073C307.495 354.62 308.069 355.044 308.739 355.345C309.423 355.646 310.195 355.796 311.057 355.796C312.123 355.796 313.114 355.591 314.03 355.181C314.96 354.757 315.76 354.121 316.43 353.273L319.301 356.391C318.836 357.061 318.2 357.703 317.394 358.318C316.601 358.934 315.644 359.439 314.522 359.836C313.401 360.219 312.123 360.41 310.688 360.41ZM329.062 342.65V360H323.156V337.811H328.714L329.062 342.65ZM335.748 337.667L335.646 343.143C335.358 343.102 335.01 343.067 334.6 343.04C334.203 342.999 333.841 342.979 333.513 342.979C332.679 342.979 331.954 343.088 331.339 343.307C330.737 343.512 330.231 343.819 329.821 344.229C329.425 344.64 329.124 345.139 328.919 345.727C328.728 346.314 328.618 346.984 328.591 347.736L327.401 347.367C327.401 345.932 327.545 344.612 327.832 343.409C328.119 342.192 328.536 341.133 329.083 340.23C329.644 339.328 330.327 338.631 331.134 338.139C331.94 337.646 332.863 337.4 333.902 337.4C334.23 337.4 334.565 337.428 334.907 337.482C335.249 337.523 335.529 337.585 335.748 337.667ZM335.584 357.149C335.584 356.274 335.885 355.543 336.486 354.955C337.102 354.367 337.915 354.073 338.927 354.073C339.938 354.073 340.745 354.367 341.347 354.955C341.962 355.543 342.27 356.274 342.27 357.149C342.27 358.024 341.962 358.756 341.347 359.344C340.745 359.932 339.938 360.226 338.927 360.226C337.915 360.226 337.102 359.932 336.486 359.344C335.885 358.756 335.584 358.024 335.584 357.149ZM347.766 357.149C347.766 356.274 348.066 355.543 348.668 354.955C349.283 354.367 350.097 354.073 351.108 354.073C352.12 354.073 352.927 354.367 353.528 354.955C354.144 355.543 354.451 356.274 354.451 357.149C354.451 358.024 354.144 358.756 353.528 359.344C352.927 359.932 352.12 360.226 351.108 360.226C350.097 360.226 349.283 359.932 348.668 359.344C348.066 358.756 347.766 358.024 347.766 357.149ZM359.947 357.149C359.947 356.274 360.248 355.543 360.85 354.955C361.465 354.367 362.278 354.073 363.29 354.073C364.302 354.073 365.108 354.367 365.71 354.955C366.325 355.543 366.633 356.274 366.633 357.149C366.633 358.024 366.325 358.756 365.71 359.344C365.108 359.932 364.302 360.226 363.29 360.226C362.278 360.226 361.465 359.932 360.85 359.344C360.248 358.756 359.947 358.024 359.947 357.149Z" fill="#9DD185"/>
<path d="M111.208 552.141V582H105.076V552.141H111.208ZM132.844 564.548V582H126.938V559.811H132.475L132.844 564.548ZM131.982 570.126H130.383C130.383 568.485 130.595 567.009 131.019 565.696C131.442 564.37 132.037 563.242 132.803 562.312C133.568 561.369 134.478 560.651 135.53 560.159C136.597 559.653 137.786 559.4 139.099 559.4C140.138 559.4 141.088 559.551 141.949 559.852C142.811 560.152 143.549 560.631 144.164 561.287C144.793 561.943 145.271 562.812 145.6 563.892C145.941 564.972 146.112 566.291 146.112 567.85V582H140.165V567.829C140.165 566.845 140.028 566.079 139.755 565.532C139.481 564.985 139.078 564.603 138.545 564.384C138.025 564.151 137.383 564.035 136.617 564.035C135.824 564.035 135.134 564.192 134.546 564.507C133.972 564.821 133.493 565.259 133.11 565.819C132.741 566.366 132.461 567.009 132.27 567.747C132.078 568.485 131.982 569.278 131.982 570.126ZM160.816 582.41C159.094 582.41 157.549 582.137 156.182 581.59C154.814 581.029 153.652 580.257 152.695 579.272C151.752 578.288 151.027 577.146 150.521 575.848C150.016 574.535 149.763 573.141 149.763 571.664V570.844C149.763 569.162 150.002 567.624 150.48 566.229C150.959 564.835 151.643 563.625 152.531 562.6C153.434 561.574 154.527 560.788 155.812 560.241C157.098 559.681 158.547 559.4 160.16 559.4C161.732 559.4 163.127 559.66 164.344 560.18C165.561 560.699 166.579 561.438 167.399 562.395C168.233 563.352 168.862 564.5 169.286 565.84C169.71 567.166 169.922 568.643 169.922 570.27V572.73H152.285V568.793H164.118V568.342C164.118 567.521 163.968 566.79 163.667 566.147C163.38 565.491 162.942 564.972 162.354 564.589C161.767 564.206 161.015 564.015 160.099 564.015C159.319 564.015 158.649 564.186 158.089 564.527C157.528 564.869 157.07 565.348 156.715 565.963C156.373 566.578 156.113 567.303 155.936 568.137C155.771 568.957 155.689 569.859 155.689 570.844V571.664C155.689 572.553 155.812 573.373 156.059 574.125C156.318 574.877 156.681 575.526 157.146 576.073C157.624 576.62 158.198 577.044 158.868 577.345C159.552 577.646 160.324 577.796 161.186 577.796C162.252 577.796 163.243 577.591 164.159 577.181C165.089 576.757 165.889 576.121 166.559 575.273L169.43 578.391C168.965 579.061 168.329 579.703 167.522 580.318C166.729 580.934 165.772 581.439 164.651 581.836C163.53 582.219 162.252 582.41 160.816 582.41ZM183.498 582.41C181.775 582.41 180.23 582.137 178.863 581.59C177.496 581.029 176.334 580.257 175.377 579.272C174.434 578.288 173.709 577.146 173.203 575.848C172.697 574.535 172.444 573.141 172.444 571.664V570.844C172.444 569.162 172.684 567.624 173.162 566.229C173.641 564.835 174.324 563.625 175.213 562.6C176.115 561.574 177.209 560.788 178.494 560.241C179.779 559.681 181.229 559.4 182.842 559.4C184.414 559.4 185.809 559.66 187.025 560.18C188.242 560.699 189.261 561.438 190.081 562.395C190.915 563.352 191.544 564.5 191.968 565.84C192.392 567.166 192.604 568.643 192.604 570.27V572.73H174.967V568.793H186.8V568.342C186.8 567.521 186.649 566.79 186.349 566.147C186.062 565.491 185.624 564.972 185.036 564.589C184.448 564.206 183.696 564.015 182.78 564.015C182.001 564.015 181.331 564.186 180.771 564.527C180.21 564.869 179.752 565.348 179.396 565.963C179.055 566.578 178.795 567.303 178.617 568.137C178.453 568.957 178.371 569.859 178.371 570.844V571.664C178.371 572.553 178.494 573.373 178.74 574.125C179 574.877 179.362 575.526 179.827 576.073C180.306 576.62 180.88 577.044 181.55 577.345C182.233 577.646 183.006 577.796 183.867 577.796C184.934 577.796 185.925 577.591 186.841 577.181C187.771 576.757 188.57 576.121 189.24 575.273L192.111 578.391C191.646 579.061 191.011 579.703 190.204 580.318C189.411 580.934 188.454 581.439 187.333 581.836C186.212 582.219 184.934 582.41 183.498 582.41ZM209.071 577.16V550.5H215.019V582H209.666L209.071 577.16ZM195.044 571.172V570.741C195.044 569.046 195.235 567.508 195.618 566.127C196.001 564.732 196.562 563.536 197.3 562.538C198.038 561.54 198.947 560.768 200.027 560.221C201.107 559.674 202.338 559.4 203.719 559.4C205.018 559.4 206.152 559.674 207.123 560.221C208.107 560.768 208.941 561.547 209.625 562.559C210.322 563.557 210.883 564.739 211.307 566.106C211.73 567.46 212.038 568.943 212.229 570.557V571.5C212.038 573.045 211.73 574.48 211.307 575.807C210.883 577.133 210.322 578.295 209.625 579.293C208.941 580.277 208.107 581.043 207.123 581.59C206.139 582.137 204.99 582.41 203.678 582.41C202.297 582.41 201.066 582.13 199.986 581.569C198.92 581.009 198.018 580.223 197.279 579.211C196.555 578.199 196.001 577.01 195.618 575.643C195.235 574.275 195.044 572.785 195.044 571.172ZM200.95 570.741V571.172C200.95 572.088 201.019 572.942 201.155 573.735C201.306 574.528 201.545 575.232 201.873 575.848C202.215 576.449 202.652 576.921 203.186 577.263C203.732 577.591 204.396 577.755 205.175 577.755C206.187 577.755 207.021 577.529 207.677 577.078C208.333 576.613 208.832 575.978 209.174 575.171C209.529 574.364 209.734 573.435 209.789 572.382V569.695C209.748 568.834 209.625 568.062 209.42 567.378C209.229 566.681 208.941 566.086 208.559 565.594C208.189 565.102 207.725 564.719 207.164 564.445C206.617 564.172 205.968 564.035 205.216 564.035C204.45 564.035 203.794 564.213 203.247 564.568C202.7 564.91 202.256 565.382 201.914 565.983C201.586 566.585 201.34 567.296 201.176 568.116C201.025 568.923 200.95 569.798 200.95 570.741ZM242.068 576.996V567.111C242.068 566.4 241.952 565.792 241.72 565.286C241.487 564.767 241.125 564.363 240.633 564.076C240.154 563.789 239.532 563.646 238.767 563.646C238.11 563.646 237.543 563.762 237.064 563.994C236.586 564.213 236.217 564.534 235.957 564.958C235.697 565.368 235.567 565.854 235.567 566.414H229.661C229.661 565.471 229.88 564.575 230.317 563.728C230.755 562.88 231.391 562.135 232.225 561.492C233.059 560.836 234.05 560.323 235.198 559.954C236.36 559.585 237.659 559.4 239.095 559.4C240.817 559.4 242.349 559.688 243.688 560.262C245.028 560.836 246.081 561.697 246.847 562.846C247.626 563.994 248.016 565.43 248.016 567.152V576.647C248.016 577.864 248.091 578.862 248.241 579.642C248.392 580.407 248.61 581.077 248.897 581.651V582H242.93C242.643 581.398 242.424 580.646 242.273 579.744C242.137 578.828 242.068 577.912 242.068 576.996ZM242.848 568.485L242.889 571.828H239.587C238.808 571.828 238.131 571.917 237.557 572.095C236.982 572.272 236.511 572.525 236.142 572.854C235.772 573.168 235.499 573.537 235.321 573.961C235.157 574.385 235.075 574.85 235.075 575.355C235.075 575.861 235.191 576.319 235.424 576.729C235.656 577.126 235.991 577.44 236.429 577.673C236.866 577.892 237.379 578.001 237.967 578.001C238.855 578.001 239.628 577.823 240.284 577.468C240.94 577.112 241.446 576.675 241.802 576.155C242.171 575.636 242.362 575.144 242.376 574.679L243.935 577.181C243.716 577.741 243.415 578.322 243.032 578.924C242.663 579.525 242.191 580.093 241.617 580.626C241.043 581.146 240.353 581.576 239.546 581.918C238.739 582.246 237.782 582.41 236.675 582.41C235.267 582.41 233.988 582.13 232.84 581.569C231.705 580.995 230.803 580.209 230.133 579.211C229.477 578.199 229.148 577.051 229.148 575.766C229.148 574.604 229.367 573.571 229.805 572.669C230.242 571.767 230.885 571.008 231.732 570.393C232.594 569.764 233.667 569.292 234.952 568.978C236.237 568.649 237.728 568.485 239.423 568.485H242.848ZM276.132 577.16V550.5H282.079V582H276.727L276.132 577.16ZM262.104 571.172V570.741C262.104 569.046 262.296 567.508 262.679 566.127C263.062 564.732 263.622 563.536 264.36 562.538C265.099 561.54 266.008 560.768 267.088 560.221C268.168 559.674 269.398 559.4 270.779 559.4C272.078 559.4 273.213 559.674 274.184 560.221C275.168 560.768 276.002 561.547 276.686 562.559C277.383 563.557 277.943 564.739 278.367 566.106C278.791 567.46 279.099 568.943 279.29 570.557V571.5C279.099 573.045 278.791 574.48 278.367 575.807C277.943 577.133 277.383 578.295 276.686 579.293C276.002 580.277 275.168 581.043 274.184 581.59C273.199 582.137 272.051 582.41 270.738 582.41C269.357 582.41 268.127 582.13 267.047 581.569C265.98 581.009 265.078 580.223 264.34 579.211C263.615 578.199 263.062 577.01 262.679 575.643C262.296 574.275 262.104 572.785 262.104 571.172ZM268.011 570.741V571.172C268.011 572.088 268.079 572.942 268.216 573.735C268.366 574.528 268.605 575.232 268.934 575.848C269.275 576.449 269.713 576.921 270.246 577.263C270.793 577.591 271.456 577.755 272.235 577.755C273.247 577.755 274.081 577.529 274.737 577.078C275.394 576.613 275.893 575.978 276.234 575.171C276.59 574.364 276.795 573.435 276.85 572.382V569.695C276.809 568.834 276.686 568.062 276.48 567.378C276.289 566.681 276.002 566.086 275.619 565.594C275.25 565.102 274.785 564.719 274.225 564.445C273.678 564.172 273.028 564.035 272.276 564.035C271.511 564.035 270.854 564.213 270.308 564.568C269.761 564.91 269.316 565.382 268.975 565.983C268.646 566.585 268.4 567.296 268.236 568.116C268.086 568.923 268.011 569.798 268.011 570.741ZM292.6 564.65V582H286.693V559.811H292.251L292.6 564.65ZM299.285 559.667L299.183 565.143C298.896 565.102 298.547 565.067 298.137 565.04C297.74 564.999 297.378 564.979 297.05 564.979C296.216 564.979 295.491 565.088 294.876 565.307C294.274 565.512 293.769 565.819 293.358 566.229C292.962 566.64 292.661 567.139 292.456 567.727C292.265 568.314 292.155 568.984 292.128 569.736L290.938 569.367C290.938 567.932 291.082 566.612 291.369 565.409C291.656 564.192 292.073 563.133 292.62 562.23C293.181 561.328 293.864 560.631 294.671 560.139C295.478 559.646 296.4 559.4 297.439 559.4C297.768 559.4 298.103 559.428 298.444 559.482C298.786 559.523 299.066 559.585 299.285 559.667ZM308.309 559.811V582H302.382V559.811H308.309ZM302.013 554.027C302.013 553.166 302.313 552.455 302.915 551.895C303.517 551.334 304.323 551.054 305.335 551.054C306.333 551.054 307.133 551.334 307.734 551.895C308.35 552.455 308.657 553.166 308.657 554.027C308.657 554.889 308.35 555.6 307.734 556.16C307.133 556.721 306.333 557.001 305.335 557.001C304.323 557.001 303.517 556.721 302.915 556.16C302.313 555.6 302.013 554.889 302.013 554.027ZM320.736 577.693L325.658 559.811H331.831L324.346 582H320.613L320.736 577.693ZM317.353 559.811L322.295 577.714L322.397 582H318.645L311.159 559.811H317.353ZM344.402 582.41C342.68 582.41 341.135 582.137 339.768 581.59C338.4 581.029 337.238 580.257 336.281 579.272C335.338 578.288 334.613 577.146 334.107 575.848C333.602 574.535 333.349 573.141 333.349 571.664V570.844C333.349 569.162 333.588 567.624 334.066 566.229C334.545 564.835 335.229 563.625 336.117 562.6C337.02 561.574 338.113 560.788 339.398 560.241C340.684 559.681 342.133 559.4 343.746 559.4C345.318 559.4 346.713 559.66 347.93 560.18C349.146 560.699 350.165 561.438 350.985 562.395C351.819 563.352 352.448 564.5 352.872 565.84C353.296 567.166 353.508 568.643 353.508 570.27V572.73H335.871V568.793H347.704V568.342C347.704 567.521 347.554 566.79 347.253 566.147C346.966 565.491 346.528 564.972 345.94 564.589C345.353 564.206 344.601 564.015 343.685 564.015C342.905 564.015 342.235 564.186 341.675 564.527C341.114 564.869 340.656 565.348 340.301 565.963C339.959 566.578 339.699 567.303 339.521 568.137C339.357 568.957 339.275 569.859 339.275 570.844V571.664C339.275 572.553 339.398 573.373 339.645 574.125C339.904 574.877 340.267 575.526 340.731 576.073C341.21 576.62 341.784 577.044 342.454 577.345C343.138 577.646 343.91 577.796 344.771 577.796C345.838 577.796 346.829 577.591 347.745 577.181C348.675 576.757 349.475 576.121 350.145 575.273L353.016 578.391C352.551 579.061 351.915 579.703 351.108 580.318C350.315 580.934 349.358 581.439 348.237 581.836C347.116 582.219 345.838 582.41 344.402 582.41ZM362.777 564.65V582H356.871V559.811H362.429L362.777 564.65ZM369.463 559.667L369.36 565.143C369.073 565.102 368.725 565.067 368.314 565.04C367.918 564.999 367.556 564.979 367.228 564.979C366.394 564.979 365.669 565.088 365.054 565.307C364.452 565.512 363.946 565.819 363.536 566.229C363.14 566.64 362.839 567.139 362.634 567.727C362.442 568.314 362.333 568.984 362.306 569.736L361.116 569.367C361.116 567.932 361.26 566.612 361.547 565.409C361.834 564.192 362.251 563.133 362.798 562.23C363.358 561.328 364.042 560.631 364.849 560.139C365.655 559.646 366.578 559.4 367.617 559.4C367.945 559.4 368.28 559.428 368.622 559.482C368.964 559.523 369.244 559.585 369.463 559.667ZM369.299 579.149C369.299 578.274 369.6 577.543 370.201 576.955C370.816 576.367 371.63 576.073 372.642 576.073C373.653 576.073 374.46 576.367 375.062 576.955C375.677 577.543 375.984 578.274 375.984 579.149C375.984 580.024 375.677 580.756 375.062 581.344C374.46 581.932 373.653 582.226 372.642 582.226C371.63 582.226 370.816 581.932 370.201 581.344C369.6 580.756 369.299 580.024 369.299 579.149ZM381.48 579.149C381.48 578.274 381.781 577.543 382.383 576.955C382.998 576.367 383.812 576.073 384.823 576.073C385.835 576.073 386.642 576.367 387.243 576.955C387.858 577.543 388.166 578.274 388.166 579.149C388.166 580.024 387.858 580.756 387.243 581.344C386.642 581.932 385.835 582.226 384.823 582.226C383.812 582.226 382.998 581.932 382.383 581.344C381.781 580.756 381.48 580.024 381.48 579.149ZM393.662 579.149C393.662 578.274 393.963 577.543 394.564 576.955C395.18 576.367 395.993 576.073 397.005 576.073C398.017 576.073 398.823 576.367 399.425 576.955C400.04 577.543 400.348 578.274 400.348 579.149C400.348 580.024 400.04 580.756 399.425 581.344C398.823 581.932 398.017 582.226 397.005 582.226C395.993 582.226 395.18 581.932 394.564 581.344C393.963 580.756 393.662 580.024 393.662 579.149Z" fill="#9DD185"/>
<path d="M1828 947L1808 935.453V958.547L1828 947ZM876 949H1810V945H876V949Z" fill="#85C9D1" fill-opacity="0.39"/>
<path d="M1555.16 531.099L1532.07 531.695L1544.13 551.39L1555.16 531.099ZM877.001 948.706L1540.85 542.204L1538.77 538.793L874.912 945.294L877.001 948.706Z" fill="#85C9D1" fill-opacity="0.39"/>
<path d="M872 1.81198e-05L860.453 20L883.547 20L872 1.81198e-05ZM874 953L874 18L870 18L870 953L874 953Z" fill="#85C9D1" fill-opacity="0.39"/>
<g filter="url(#filter2_i_0_1)">
<circle cx="1442.79" cy="322.04" r="308.954" transform="rotate(60 1442.79 322.04)" fill="#040F11" fill-opacity="0.76"/>
</g>
<circle cx="1442.79" cy="322.04" r="308.454" transform="rotate(60 1442.79 322.04)" stroke="#85C9D1"/>
<g filter="url(#filter3_i_0_1)">
<circle cx="1248.5" cy="634.381" r="247.887" transform="rotate(60 1248.5 634.381)" fill="#040F11" fill-opacity="0.6"/>
</g>
<circle cx="1248.5" cy="634.381" r="247.387" transform="rotate(60 1248.5 634.381)" stroke="#85C9D1"/>
<line x1="1268.8" y1="457.718" x2="744.555" y2="362.366" stroke="#9DD185" stroke-width="4" stroke-dasharray="8 8"/>
<path d="M1349.17 559.092L749.505 559.092" stroke="#9DD185" stroke-width="4" stroke-dasharray="8 8"/>
<path d="M1656.44 389.662H1650.05L1640.41 380.042C1640.08 379.71 1639.68 379.448 1639.25 379.269C1638.82 379.09 1638.36 378.999 1637.89 379H1612.86C1612.27 379.001 1611.7 379.146 1611.18 379.422C1610.67 379.698 1610.23 380.096 1609.9 380.582L1603.3 390.453C1603.1 390.745 1603 391.088 1603 391.439V402.101C1603 403.044 1603.38 403.948 1604.04 404.614C1604.71 405.281 1605.62 405.655 1606.56 405.655H1610.35C1610.74 407.184 1611.63 408.539 1612.88 409.507C1614.13 410.475 1615.67 411 1617.25 411C1618.83 411 1620.37 410.475 1621.62 409.507C1622.87 408.539 1623.76 407.184 1624.15 405.655H1638.85C1639.24 407.184 1640.13 408.539 1641.38 409.507C1642.63 410.475 1644.17 411 1645.75 411C1647.33 411 1648.87 410.475 1650.12 409.507C1651.37 408.539 1652.26 407.184 1652.65 405.655H1656.44C1657.38 405.655 1658.29 405.281 1658.96 404.614C1659.62 403.948 1660 403.044 1660 402.101V393.216C1660 392.273 1659.62 391.369 1658.96 390.703C1658.29 390.036 1657.38 389.662 1656.44 389.662ZM1612.86 382.554H1637.89L1645.01 389.662H1608.12L1612.86 382.554ZM1617.25 407.432C1616.55 407.432 1615.86 407.224 1615.27 406.833C1614.68 406.443 1614.23 405.888 1613.96 405.238C1613.69 404.589 1613.62 403.874 1613.76 403.185C1613.89 402.495 1614.23 401.862 1614.73 401.365C1615.23 400.868 1615.86 400.529 1616.55 400.392C1617.25 400.255 1617.96 400.326 1618.61 400.595C1619.26 400.864 1619.82 401.319 1620.21 401.904C1620.6 402.488 1620.81 403.175 1620.81 403.878C1620.81 404.821 1620.44 405.725 1619.77 406.391C1619.1 407.058 1618.19 407.432 1617.25 407.432ZM1645.75 407.432C1645.05 407.432 1644.36 407.224 1643.77 406.833C1643.18 406.443 1642.73 405.888 1642.46 405.238C1642.19 404.589 1642.12 403.874 1642.26 403.185C1642.39 402.495 1642.73 401.862 1643.23 401.365C1643.73 400.868 1644.36 400.529 1645.05 400.392C1645.75 400.255 1646.46 400.326 1647.11 400.595C1647.76 400.864 1648.32 401.319 1648.71 401.904C1649.1 402.488 1649.31 403.175 1649.31 403.878C1649.31 404.821 1648.94 405.725 1648.27 406.391C1647.6 407.058 1646.69 407.432 1645.75 407.432ZM1656.44 402.101H1652.65C1652.26 400.572 1651.37 399.217 1650.12 398.249C1648.87 397.281 1647.33 396.756 1645.75 396.756C1644.17 396.756 1642.63 397.281 1641.38 398.249C1640.13 399.217 1639.24 400.572 1638.85 402.101H1624.15C1623.76 400.572 1622.87 399.217 1621.62 398.249C1620.37 397.281 1618.83 396.756 1617.25 396.756C1615.67 396.756 1614.13 397.281 1612.88 398.249C1611.63 399.217 1610.74 400.572 1610.35 402.101H1606.56V393.216H1656.44V402.101Z" fill="#85C9D1"/>
<g filter="url(#filter4_d_0_1)">
<path d="M1354.5 473.4H1350.95L1342.39 459.018C1341.95 458.283 1341.32 457.673 1340.56 457.248C1339.8 456.824 1338.93 456.6 1338.05 456.6H1300.95C1300.07 456.6 1299.2 456.824 1298.44 457.248C1297.68 457.673 1297.05 458.283 1296.61 459.018L1288.05 473.4H1284.5C1283.84 473.4 1283.2 473.653 1282.73 474.103C1282.26 474.553 1282 475.163 1282 475.8C1282 476.437 1282.26 477.047 1282.73 477.497C1283.2 477.947 1283.84 478.2 1284.5 478.2H1287V502.2C1287 503.473 1287.53 504.694 1288.46 505.594C1289.4 506.494 1290.67 507 1292 507H1299.5C1300.83 507 1302.1 506.494 1303.04 505.594C1303.97 504.694 1304.5 503.473 1304.5 502.2V497.4H1334.5V502.2C1334.5 503.473 1335.03 504.694 1335.96 505.594C1336.9 506.494 1338.17 507 1339.5 507H1347C1348.33 507 1349.6 506.494 1350.54 505.594C1351.47 504.694 1352 503.473 1352 502.2V478.2H1354.5C1355.16 478.2 1355.8 477.947 1356.27 477.497C1356.74 477.047 1357 476.437 1357 475.8C1357 475.163 1356.74 474.553 1356.27 474.103C1355.8 473.653 1355.16 473.4 1354.5 473.4ZM1300.95 461.4H1338.05L1345.19 473.4H1293.81L1300.95 461.4ZM1299.5 502.2H1292V497.4H1299.5V502.2ZM1339.5 502.2V497.4H1347V502.2H1339.5ZM1347 492.6H1292V478.2H1347V492.6ZM1297 485.4C1297 484.763 1297.26 484.153 1297.73 483.703C1298.2 483.253 1298.84 483 1299.5 483H1304.5C1305.16 483 1305.8 483.253 1306.27 483.703C1306.74 484.153 1307 484.763 1307 485.4C1307 486.037 1306.74 486.647 1306.27 487.097C1305.8 487.547 1305.16 487.8 1304.5 487.8H1299.5C1298.84 487.8 1298.2 487.547 1297.73 487.097C1297.26 486.647 1297 486.037 1297 485.4ZM1332 485.4C1332 484.763 1332.26 484.153 1332.73 483.703C1333.2 483.253 1333.84 483 1334.5 483H1339.5C1340.16 483 1340.8 483.253 1341.27 483.703C1341.74 484.153 1342 484.763 1342 485.4C1342 486.037 1341.74 486.647 1341.27 487.097C1340.8 487.547 1340.16 487.8 1339.5 487.8H1334.5C1333.84 487.8 1333.2 487.547 1332.73 487.097C1332.26 486.647 1332 486.037 1332 485.4ZM1309.5 449.4C1309.5 448.763 1309.76 448.153 1310.23 447.703C1310.7 447.253 1311.34 447 1312 447H1327C1327.66 447 1328.3 447.253 1328.77 447.703C1329.24 448.153 1329.5 448.763 1329.5 449.4C1329.5 450.037 1329.24 450.647 1328.77 451.097C1328.3 451.547 1327.66 451.8 1327 451.8H1312C1311.34 451.8 1310.7 451.547 1310.23 451.097C1309.76 450.647 1309.5 450.037 1309.5 449.4Z" fill="#9DD185"/>
</g>
<path d="M1454.33 305H1428.67C1426.72 305 1424.86 305.755 1423.48 307.099C1422.11 308.443 1421.33 310.266 1421.33 312.167V344.417C1421.33 345.367 1421.72 346.278 1422.41 346.95C1423.09 347.622 1424.03 348 1425 348H1430.5C1431.47 348 1432.41 347.622 1433.09 346.95C1433.78 346.278 1434.17 345.367 1434.17 344.417V340.833H1448.83V344.417C1448.83 345.367 1449.22 346.278 1449.91 346.95C1450.59 347.622 1451.53 348 1452.5 348H1458C1458.97 348 1459.91 347.622 1460.59 346.95C1461.28 346.278 1461.67 345.367 1461.67 344.417V312.167C1461.67 310.266 1460.89 308.443 1459.52 307.099C1458.14 305.755 1456.28 305 1454.33 305ZM1425 337.25V324.708H1458V337.25H1425ZM1425 315.75H1458V321.125H1425V315.75ZM1428.67 308.583H1454.33C1455.31 308.583 1456.24 308.961 1456.93 309.633C1457.61 310.305 1458 311.216 1458 312.167H1425C1425 311.216 1425.39 310.305 1426.07 309.633C1426.76 308.961 1427.69 308.583 1428.67 308.583ZM1430.5 344.417H1425V340.833H1430.5V344.417ZM1452.5 344.417V340.833H1458V344.417H1452.5ZM1436 330.979C1436 331.511 1435.84 332.03 1435.54 332.472C1435.23 332.914 1434.8 333.259 1434.3 333.462C1433.8 333.666 1433.25 333.719 1432.71 333.615C1432.18 333.511 1431.69 333.255 1431.31 332.88C1430.92 332.504 1430.66 332.025 1430.55 331.503C1430.45 330.982 1430.5 330.442 1430.71 329.951C1430.92 329.46 1431.27 329.04 1431.72 328.745C1432.17 328.449 1432.71 328.292 1433.25 328.292C1433.98 328.292 1434.68 328.575 1435.19 329.079C1435.71 329.583 1436 330.266 1436 330.979ZM1452.5 330.979C1452.5 331.511 1452.34 332.03 1452.04 332.472C1451.73 332.914 1451.3 333.259 1450.8 333.462C1450.3 333.666 1449.75 333.719 1449.21 333.615C1448.68 333.511 1448.19 333.255 1447.81 332.88C1447.42 332.504 1447.16 332.025 1447.05 331.503C1446.95 330.982 1447 330.442 1447.21 329.951C1447.42 329.46 1447.77 329.04 1448.22 328.745C1448.67 328.449 1449.21 328.292 1449.75 328.292C1450.48 328.292 1451.18 328.575 1451.69 329.079C1452.21 329.583 1452.5 330.266 1452.5 330.979ZM1469 315.75V321.125C1469 321.6 1468.81 322.056 1468.46 322.392C1468.12 322.728 1467.65 322.917 1467.17 322.917C1466.68 322.917 1466.21 322.728 1465.87 322.392C1465.53 322.056 1465.33 321.6 1465.33 321.125V315.75C1465.33 315.275 1465.53 314.819 1465.87 314.483C1466.21 314.147 1466.68 313.958 1467.17 313.958C1467.65 313.958 1468.12 314.147 1468.46 314.483C1468.81 314.819 1469 315.275 1469 315.75ZM1417.67 315.75V321.125C1417.67 321.6 1417.47 322.056 1417.13 322.392C1416.79 322.728 1416.32 322.917 1415.83 322.917C1415.35 322.917 1414.88 322.728 1414.54 322.392C1414.19 322.056 1414 321.6 1414 321.125V315.75C1414 315.275 1414.19 314.819 1414.54 314.483C1414.88 314.147 1415.35 313.958 1415.83 313.958C1416.32 313.958 1416.79 314.147 1417.13 314.483C1417.47 314.819 1417.67 315.275 1417.67 315.75Z" fill="#85C9D1"/>
<path d="M1552.54 518.992L1541.73 506.364C1541.37 505.937 1540.92 505.593 1540.42 505.358C1539.92 505.122 1539.37 505 1538.81 505H1499.8C1498.79 505 1497.83 505.401 1497.11 506.115C1496.4 506.83 1496 507.798 1496 508.808V535.465C1496 536.475 1496.4 537.443 1497.11 538.158C1497.83 538.872 1498.79 539.273 1499.8 539.273H1503.84C1504.26 540.911 1505.21 542.363 1506.54 543.4C1507.87 544.437 1509.51 545 1511.2 545C1512.89 545 1514.53 544.437 1515.86 543.4C1517.19 542.363 1518.14 540.911 1518.56 539.273H1530.44C1530.86 540.911 1531.81 542.363 1533.14 543.4C1534.47 544.437 1536.11 545 1537.8 545C1539.49 545 1541.13 544.437 1542.46 543.4C1543.79 542.363 1544.74 540.911 1545.16 539.273H1549.2C1550.21 539.273 1551.17 538.872 1551.89 538.158C1552.6 537.443 1553 536.475 1553 535.465V520.232C1553 519.777 1552.84 519.338 1552.54 518.992ZM1546.97 518.328H1534V508.808H1538.81L1546.97 518.328ZM1516.9 518.328V508.808H1530.2V518.328H1516.9ZM1513.1 508.808V518.328H1499.8V508.808H1513.1ZM1511.2 541.177C1510.45 541.177 1509.71 540.954 1509.09 540.535C1508.46 540.117 1507.98 539.522 1507.69 538.826C1507.4 538.13 1507.33 537.365 1507.47 536.626C1507.62 535.887 1507.98 535.209 1508.51 534.676C1509.04 534.144 1509.72 533.781 1510.46 533.634C1511.2 533.487 1511.96 533.562 1512.65 533.851C1513.35 534.139 1513.94 534.627 1514.36 535.253C1514.78 535.879 1515 536.616 1515 537.369C1515 538.379 1514.6 539.347 1513.89 540.062C1513.17 540.776 1512.21 541.177 1511.2 541.177ZM1537.8 541.177C1537.05 541.177 1536.31 540.954 1535.69 540.535C1535.06 540.117 1534.58 539.522 1534.29 538.826C1534 538.13 1533.93 537.365 1534.07 536.626C1534.22 535.887 1534.58 535.209 1535.11 534.676C1535.64 534.144 1536.32 533.781 1537.06 533.634C1537.8 533.487 1538.56 533.562 1539.25 533.851C1539.95 534.139 1540.54 534.627 1540.96 535.253C1541.38 535.879 1541.6 536.616 1541.6 537.369C1541.6 538.379 1541.2 539.347 1540.49 540.062C1539.77 540.776 1538.81 541.177 1537.8 541.177ZM1545.16 535.465C1544.74 533.827 1543.79 532.374 1542.46 531.338C1541.13 530.301 1539.49 529.738 1537.8 529.738C1536.11 529.738 1534.47 530.301 1533.14 531.338C1531.81 532.374 1530.86 533.827 1530.44 535.465H1518.56C1518.14 533.827 1517.19 532.374 1515.86 531.338C1514.53 530.301 1512.89 529.738 1511.2 529.738C1509.51 529.738 1507.87 530.301 1506.54 531.338C1505.21 532.374 1504.26 533.827 1503.84 535.465H1499.8V522.136H1549.2V535.465H1545.16Z" fill="#85C9D1"/>
<path d="M1347.77 151.053C1347.26 151.054 1346.76 151.097 1346.25 151.183L1344.91 147.597C1345.85 147.376 1346.81 147.264 1347.77 147.263C1348.26 147.263 1348.73 147.064 1349.08 146.708C1349.42 146.353 1349.62 145.871 1349.62 145.368C1349.62 144.866 1349.42 144.384 1349.08 144.029C1348.73 143.673 1348.26 143.474 1347.77 143.474H1343.37L1340.28 135.215C1340.14 134.857 1339.91 134.55 1339.6 134.333C1339.29 134.116 1338.93 134 1338.56 134H1331.18C1330.69 134 1330.22 134.2 1329.88 134.555C1329.53 134.91 1329.34 135.392 1329.34 135.895C1329.34 136.397 1329.53 136.879 1329.88 137.235C1330.22 137.59 1330.69 137.789 1331.18 137.789H1337.29L1339.42 143.474H1333.03C1328.76 143.474 1325.31 144.494 1323.03 146.425C1322.5 146.868 1321.85 147.15 1321.17 147.236C1320.49 147.323 1319.79 147.212 1319.17 146.915C1316.73 145.776 1305.17 140.947 1304.15 140.537L1302.84 140.006C1302.47 139.842 1302.08 139.733 1301.69 139.684C1301.26 139.685 1300.84 139.841 1300.51 140.123C1300.18 140.406 1299.96 140.799 1299.88 141.233C1299.8 141.667 1299.87 142.116 1300.08 142.502C1300.29 142.888 1300.62 143.186 1301.02 143.346C1301.13 143.388 1311.9 147.68 1317.65 150.363C1318.9 150.95 1320.29 151.165 1321.65 150.985C1323.02 150.806 1324.31 150.239 1325.38 149.347C1326.5 148.4 1328.74 147.263 1333.03 147.263H1337.37C1334.67 149.484 1332.73 152.514 1331.8 155.929C1331.57 156.714 1331.11 157.402 1330.47 157.889C1329.83 158.377 1329.06 158.638 1328.26 158.632H1316.25C1315.79 156.331 1314.52 154.287 1312.68 152.896C1310.84 151.504 1308.56 150.865 1306.29 151.101C1304.02 151.337 1301.91 152.431 1300.38 154.173C1298.85 155.914 1298 158.179 1298 160.526C1298 162.874 1298.85 165.138 1300.38 166.88C1301.91 168.621 1304.02 169.716 1306.29 169.952C1308.56 170.188 1310.84 169.548 1312.68 168.157C1314.52 166.765 1315.79 164.721 1316.25 162.421H1328.26C1329.86 162.425 1331.42 161.893 1332.69 160.905C1333.97 159.918 1334.9 158.529 1335.34 156.95C1335.8 155.27 1336.58 153.7 1337.63 152.329C1338.68 150.959 1339.99 149.815 1341.47 148.964L1342.81 152.547C1340.94 153.776 1339.57 155.657 1338.94 157.844C1338.31 160.03 1338.47 162.377 1339.39 164.452C1340.31 166.527 1341.93 168.192 1343.95 169.141C1345.96 170.089 1348.25 170.259 1350.37 169.618C1352.5 168.976 1354.34 167.567 1355.54 165.649C1356.74 163.732 1357.22 161.433 1356.91 159.176C1356.59 156.92 1355.49 154.856 1353.82 153.363C1352.14 151.871 1349.99 151.051 1347.77 151.053ZM1307.22 162.421H1312.43C1311.99 163.685 1311.14 164.751 1310.01 165.429C1308.89 166.108 1307.56 166.355 1306.28 166.129C1304.99 165.902 1303.83 165.215 1302.99 164.19C1302.14 163.165 1301.68 161.867 1301.68 160.526C1301.68 159.185 1302.14 157.888 1302.99 156.863C1303.83 155.837 1304.99 155.151 1306.28 154.924C1307.56 154.697 1308.89 154.945 1310.01 155.623C1311.14 156.302 1311.99 157.367 1312.43 158.632H1307.22C1306.73 158.632 1306.26 158.831 1305.91 159.187C1305.57 159.542 1305.37 160.024 1305.37 160.526C1305.37 161.029 1305.57 161.511 1305.91 161.866C1306.26 162.221 1306.73 162.421 1307.22 162.421ZM1347.77 166.211C1346.64 166.209 1345.54 165.852 1344.62 165.188C1343.69 164.523 1342.98 163.583 1342.59 162.494C1342.2 161.404 1342.14 160.218 1342.43 159.095C1342.71 157.971 1343.33 156.964 1344.18 156.209L1346.05 161.206C1346.23 161.675 1346.58 162.054 1347.02 162.258C1347.47 162.462 1347.98 162.476 1348.44 162.296C1348.89 162.115 1349.26 161.756 1349.46 161.297C1349.66 160.837 1349.67 160.316 1349.5 159.847L1347.62 154.842H1347.77C1349.24 154.842 1350.65 155.441 1351.69 156.507C1352.72 157.573 1353.31 159.019 1353.31 160.526C1353.31 162.034 1352.72 163.48 1351.69 164.546C1350.65 165.612 1349.24 166.211 1347.77 166.211Z" fill="#85C9D1"/>
<path d="M1258.94 297.359C1258.46 297.358 1257.99 297.397 1257.52 297.475L1249.76 276.209C1249.63 275.854 1249.4 275.548 1249.1 275.332C1248.79 275.116 1248.43 275 1248.06 275H1240.81C1240.33 275 1239.87 275.196 1239.53 275.546C1239.19 275.895 1239 276.369 1239 276.863C1239 277.357 1239.19 277.831 1239.53 278.181C1239.87 278.53 1240.33 278.726 1240.81 278.726H1246.81L1254.13 298.786C1253.09 299.456 1252.19 300.335 1251.49 301.37C1250.79 302.406 1250.3 303.576 1250.05 304.811H1240.94L1235.27 289.251C1235.14 288.894 1234.91 288.587 1234.6 288.371C1234.3 288.155 1233.93 288.04 1233.56 288.042H1215.44C1214.96 288.042 1214.5 288.239 1214.16 288.588C1213.82 288.938 1213.63 289.412 1213.63 289.906C1213.63 290.4 1213.82 290.874 1214.16 291.223C1214.5 291.573 1214.96 291.769 1215.44 291.769H1217.25V294.887C1215.08 295.948 1213.25 297.618 1211.97 299.704C1210.68 301.79 1210 304.207 1210 306.675C1210 307.169 1210.19 307.643 1210.53 307.992C1210.87 308.342 1211.33 308.538 1211.81 308.538H1213.81C1214.22 310.644 1215.33 312.537 1216.95 313.897C1218.57 315.257 1220.6 316 1222.69 316C1224.78 316 1226.8 315.257 1228.42 313.897C1230.04 312.537 1231.15 310.644 1231.57 308.538H1250.06C1250.4 310.265 1251.21 311.856 1252.4 313.128C1253.59 314.399 1255.1 315.298 1256.77 315.72C1258.43 316.142 1260.18 316.07 1261.81 315.511C1263.43 314.953 1264.87 313.933 1265.96 312.567C1267.04 311.202 1267.73 309.549 1267.93 307.799C1268.14 306.049 1267.86 304.275 1267.13 302.682C1266.39 301.09 1265.23 299.744 1263.78 298.802C1262.33 297.859 1260.65 297.359 1258.94 297.359ZM1219.67 297.887C1220.02 297.759 1220.33 297.521 1220.54 297.206C1220.76 296.892 1220.88 296.516 1220.88 296.131V291.769H1232.31L1237.07 304.811H1213.81C1214.12 303.236 1214.83 301.771 1215.85 300.558C1216.88 299.345 1218.19 298.425 1219.67 297.887ZM1222.69 312.264C1221.56 312.264 1220.47 311.905 1219.55 311.238C1218.63 310.571 1217.94 309.627 1217.56 308.538H1227.81C1227.44 309.627 1226.74 310.571 1225.83 311.238C1224.91 311.905 1223.81 312.264 1222.69 312.264ZM1258.94 312.264C1257.82 312.263 1256.74 311.91 1255.82 311.252C1254.91 310.594 1254.22 309.664 1253.84 308.588C1253.45 307.511 1253.4 306.34 1253.69 305.233C1253.98 304.126 1254.59 303.136 1255.44 302.399L1257.24 307.329C1257.33 307.558 1257.45 307.769 1257.62 307.948C1257.78 308.127 1257.97 308.271 1258.19 308.373C1258.41 308.474 1258.64 308.53 1258.88 308.539C1259.12 308.547 1259.35 308.507 1259.58 308.421C1259.8 308.335 1260.01 308.205 1260.18 308.038C1260.35 307.871 1260.49 307.67 1260.59 307.447C1260.69 307.224 1260.75 306.983 1260.75 306.738C1260.76 306.494 1260.72 306.25 1260.64 306.02L1258.84 301.085H1258.94C1260.38 301.085 1261.76 301.674 1262.78 302.722C1263.8 303.77 1264.38 305.192 1264.38 306.675C1264.38 308.157 1263.8 309.579 1262.78 310.627C1261.76 311.675 1260.38 312.264 1258.94 312.264Z" fill="#85C9D1"/>
<path d="M1513.45 106.273H1505.57C1505.22 104.503 1504.27 102.911 1502.89 101.768C1501.51 100.625 1499.78 100 1498 100C1496.22 100 1494.49 100.625 1493.11 101.768C1491.73 102.911 1490.78 104.503 1490.43 106.273H1482.55C1482.14 106.273 1481.74 106.439 1481.45 106.732C1481.16 107.026 1481 107.424 1481 107.84C1481 108.255 1481.16 108.654 1481.45 108.947C1481.74 109.241 1482.14 109.406 1482.55 109.406H1490.43C1490.76 111.058 1491.61 112.557 1492.86 113.679C1490.7 114.679 1488.88 116.283 1487.6 118.302C1486.32 120.322 1485.64 122.67 1485.64 125.07V137.602C1485.64 138.432 1485.96 139.229 1486.54 139.817C1487.12 140.404 1487.91 140.734 1488.73 140.734H1491.82C1491.82 142.396 1492.47 143.99 1493.63 145.165C1494.79 146.34 1496.36 147 1498 147C1499.64 147 1501.21 146.34 1502.37 145.165C1503.53 143.99 1504.18 142.396 1504.18 140.734H1507.27C1508.09 140.734 1508.88 140.404 1509.46 139.817C1510.04 139.229 1510.36 138.432 1510.36 137.602V125.07C1510.36 122.67 1509.68 120.322 1508.4 118.302C1507.12 116.283 1505.3 114.679 1503.14 113.679C1504.39 112.557 1505.24 111.058 1505.57 109.406H1513.45C1513.86 109.406 1514.26 109.241 1514.55 108.947C1514.84 108.654 1515 108.255 1515 107.84C1515 107.424 1514.84 107.026 1514.55 106.732C1514.26 106.439 1513.86 106.273 1513.45 106.273ZM1501.09 140.734C1501.09 141.565 1500.77 142.362 1500.19 142.95C1499.61 143.537 1498.82 143.867 1498 143.867C1497.18 143.867 1496.39 143.537 1495.81 142.95C1495.23 142.362 1494.91 141.565 1494.91 140.734V131.336C1494.91 130.505 1495.23 129.708 1495.81 129.121C1496.39 128.533 1497.18 128.203 1498 128.203C1498.82 128.203 1499.61 128.533 1500.19 129.121C1500.77 129.708 1501.09 130.505 1501.09 131.336V140.734ZM1507.27 125.07V137.602H1504.18V131.336C1504.18 129.674 1503.53 128.081 1502.37 126.905C1501.21 125.73 1499.64 125.07 1498 125.07C1496.36 125.07 1494.79 125.73 1493.63 126.905C1492.47 128.081 1491.82 129.674 1491.82 131.336V137.602H1488.73V125.07C1488.73 122.578 1489.7 120.187 1491.44 118.425C1493.18 116.662 1495.54 115.672 1498 115.672C1500.46 115.672 1502.82 116.662 1504.56 118.425C1506.3 120.187 1507.27 122.578 1507.27 125.07ZM1493.36 107.84C1493.36 106.91 1493.64 106.002 1494.15 105.229C1494.65 104.456 1495.38 103.854 1496.23 103.498C1497.07 103.143 1498.01 103.05 1498.9 103.231C1499.8 103.412 1500.63 103.86 1501.28 104.517C1501.93 105.174 1502.37 106.012 1502.55 106.923C1502.73 107.835 1502.63 108.78 1502.28 109.638C1501.93 110.497 1501.34 111.231 1500.58 111.747C1499.81 112.263 1498.92 112.539 1498 112.539C1496.77 112.539 1495.59 112.044 1494.72 111.163C1493.85 110.281 1493.36 109.086 1493.36 107.84Z" fill="#85C9D1"/>
<path d="M1134.04 493.499V483.666C1134.04 483.231 1134.21 482.814 1134.51 482.507C1134.82 482.199 1135.23 482.027 1135.65 482.027C1136.08 482.027 1136.49 482.199 1136.79 482.507C1137.09 482.814 1137.26 483.231 1137.26 483.666V493.499C1137.26 493.934 1137.09 494.351 1136.79 494.658C1136.49 494.965 1136.08 495.138 1135.65 495.138C1135.23 495.138 1134.82 494.965 1134.51 494.658C1134.21 494.351 1134.04 493.934 1134.04 493.499ZM1163 483.666V521.361C1163 521.796 1162.83 522.213 1162.53 522.52C1162.23 522.827 1161.82 523 1161.39 523C1160.96 523 1160.56 522.827 1160.25 522.52C1159.95 522.213 1159.78 521.796 1159.78 521.361V511.527H1150.13C1149.7 511.527 1149.29 511.355 1148.99 511.047C1148.69 510.74 1148.52 510.323 1148.52 509.889C1148.6 505.963 1149.08 502.056 1149.97 498.236C1151.94 489.941 1155.67 484.381 1160.76 482.16C1161 482.053 1161.27 482.01 1161.53 482.034C1161.8 482.058 1162.05 482.149 1162.28 482.298C1162.5 482.447 1162.68 482.65 1162.81 482.889C1162.93 483.128 1163 483.394 1163 483.666ZM1159.78 486.513C1153.31 491.547 1152.05 503.808 1151.8 508.25H1159.78V486.513ZM1143.67 483.397C1143.64 483.182 1143.57 482.975 1143.46 482.789C1143.35 482.603 1143.2 482.441 1143.03 482.313C1142.86 482.185 1142.66 482.094 1142.45 482.044C1142.24 481.994 1142.03 481.987 1141.82 482.022C1141.61 482.058 1141.41 482.136 1141.23 482.252C1141.04 482.368 1140.89 482.52 1140.77 482.698C1140.64 482.876 1140.56 483.077 1140.51 483.29C1140.47 483.502 1140.46 483.722 1140.5 483.936L1142.09 493.628C1142.09 495.367 1141.41 497.034 1140.2 498.264C1139 499.493 1137.36 500.184 1135.65 500.184C1133.95 500.184 1132.31 499.493 1131.1 498.264C1129.9 497.034 1129.22 495.367 1129.22 493.628L1130.8 483.936C1130.84 483.722 1130.84 483.502 1130.79 483.29C1130.75 483.077 1130.66 482.876 1130.54 482.698C1130.41 482.52 1130.26 482.368 1130.08 482.252C1129.9 482.136 1129.7 482.058 1129.48 482.022C1129.27 481.987 1129.06 481.994 1128.85 482.044C1128.64 482.094 1128.45 482.185 1128.27 482.313C1128.1 482.441 1127.96 482.603 1127.84 482.789C1127.73 482.975 1127.66 483.182 1127.63 483.397L1126.02 493.231C1126.01 493.32 1126 493.409 1126 493.499C1126 495.822 1126.81 498.069 1128.28 499.843C1129.76 501.617 1131.8 502.804 1134.04 503.193V521.361C1134.04 521.796 1134.21 522.213 1134.51 522.52C1134.82 522.827 1135.23 523 1135.65 523C1136.08 523 1136.49 522.827 1136.79 522.52C1137.09 522.213 1137.26 521.796 1137.26 521.361V503.193C1139.51 502.804 1141.55 501.617 1143.02 499.843C1144.49 498.069 1145.3 495.822 1145.3 493.499C1145.3 493.409 1145.3 493.319 1145.28 493.231L1143.67 483.397Z" fill="#85C9D1"/>
<path d="M1133.16 700.969L1113.7 690.433C1113.18 690.149 1112.59 690 1112 690C1111.41 690 1110.82 690.149 1110.3 690.433L1090.84 700.973C1090.28 701.274 1089.82 701.717 1089.5 702.256C1089.17 702.795 1089 703.41 1089 704.037V724.963C1089 725.59 1089.17 726.205 1089.5 726.744C1089.82 727.283 1090.28 727.726 1090.84 728.027L1110.3 738.567C1110.82 738.851 1111.41 739 1112 739C1112.59 739 1113.18 738.851 1113.7 738.567L1133.16 728.027C1133.72 727.726 1134.18 727.283 1134.5 726.744C1134.83 726.205 1135 725.59 1135 724.963V704.039C1135 703.411 1134.83 702.795 1134.51 702.254C1134.18 701.714 1133.72 701.27 1133.16 700.969ZM1112 693.497L1129.77 703.124L1123.18 706.691L1105.41 697.063L1112 693.497ZM1112 712.752L1094.23 703.124L1101.73 699.063L1119.5 708.691L1112 712.752ZM1092.54 706.188L1110.23 715.767V734.538L1092.54 724.966V706.188ZM1131.46 724.957L1113.77 734.538V715.776L1120.85 711.944V719.754C1120.85 720.218 1121.03 720.663 1121.36 720.991C1121.7 721.32 1122.15 721.504 1122.62 721.504C1123.08 721.504 1123.53 721.32 1123.87 720.991C1124.2 720.663 1124.38 720.218 1124.38 719.754V710.028L1131.46 706.188V724.955V724.957Z" fill="#85C9D1"/>
<path d="M1370.27 739H1328.73C1328.27 739 1327.83 739.19 1327.51 739.527C1327.18 739.865 1327 740.323 1327 740.8V771.4C1327 772.355 1327.36 773.27 1328.01 773.946C1328.66 774.621 1329.54 775 1330.46 775H1368.54C1369.46 775 1370.34 774.621 1370.99 773.946C1371.64 773.27 1372 772.355 1372 771.4V740.8C1372 740.323 1371.82 739.865 1371.49 739.527C1371.17 739.19 1370.73 739 1370.27 739ZM1349.5 758.159L1333.18 742.6H1365.82L1349.5 758.159ZM1343.16 757L1330.46 769.107V744.893L1343.16 757ZM1345.72 759.441L1348.32 761.927C1348.64 762.232 1349.06 762.401 1349.49 762.401C1349.92 762.401 1350.34 762.232 1350.66 761.927L1353.26 759.441L1365.81 771.4H1333.18L1345.72 759.441ZM1355.84 757L1368.54 744.89V769.11L1355.84 757Z" fill="#85C9D1"/>
<path d="M1647.85 223.607L1644.35 214.652C1644.06 213.895 1643.55 213.246 1642.88 212.789C1642.22 212.333 1641.44 212.091 1640.64 212.094H1632V210.047C1632 209.504 1631.79 208.983 1631.41 208.6C1631.04 208.216 1630.53 208 1630 208H1592C1590.94 208 1589.92 208.431 1589.17 209.199C1588.42 209.967 1588 211.008 1588 212.094V240.75C1588 241.835 1588.42 242.877 1589.17 243.644C1589.92 244.412 1590.94 244.843 1592 244.843H1596.25C1596.69 246.605 1597.69 248.166 1599.09 249.28C1600.5 250.395 1602.22 251 1604 251C1605.78 251 1607.5 250.395 1608.91 249.28C1610.31 248.166 1611.31 246.605 1611.75 244.843H1624.25C1624.69 246.605 1625.69 248.166 1627.09 249.28C1628.5 250.395 1630.22 251 1632 251C1633.78 251 1635.5 250.395 1636.91 249.28C1638.31 248.166 1639.31 246.605 1639.75 244.843H1644C1645.06 244.843 1646.08 244.412 1646.83 243.644C1647.58 242.877 1648 241.835 1648 240.75V224.375C1648 224.112 1647.95 223.851 1647.85 223.607ZM1632 216.187H1640.64L1643.04 222.328H1632V216.187ZM1592 212.094H1628V228.469H1592V212.094ZM1604 246.89C1603.21 246.89 1602.44 246.65 1601.78 246.2C1601.12 245.75 1600.61 245.111 1600.3 244.363C1600 243.615 1599.92 242.792 1600.08 241.998C1600.23 241.204 1600.61 240.474 1601.17 239.902C1601.73 239.329 1602.44 238.939 1603.22 238.781C1604 238.624 1604.8 238.705 1605.53 239.014C1606.26 239.324 1606.89 239.849 1607.33 240.522C1607.77 241.195 1608 241.987 1608 242.797C1608 243.882 1607.58 244.923 1606.83 245.691C1606.08 246.459 1605.06 246.89 1604 246.89ZM1624.25 240.75H1611.75C1611.31 238.989 1610.31 237.428 1608.91 236.313C1607.5 235.198 1605.78 234.593 1604 234.593C1602.22 234.593 1600.5 235.198 1599.09 236.313C1597.69 237.428 1596.69 238.989 1596.25 240.75H1592V232.562H1628V235.712C1627.08 236.256 1626.28 236.981 1625.63 237.846C1624.99 238.711 1624.52 239.698 1624.25 240.75ZM1632 246.89C1631.21 246.89 1630.44 246.65 1629.78 246.2C1629.12 245.75 1628.61 245.111 1628.3 244.363C1628 243.615 1627.92 242.792 1628.08 241.998C1628.23 241.204 1628.61 240.474 1629.17 239.902C1629.73 239.329 1630.44 238.939 1631.22 238.781C1632 238.624 1632.8 238.705 1633.53 239.014C1634.26 239.324 1634.89 239.849 1635.33 240.522C1635.77 241.195 1636 241.987 1636 242.797C1636 243.882 1635.58 244.923 1634.83 245.691C1634.08 246.459 1633.06 246.89 1632 246.89ZM1644 240.75H1639.75C1639.3 238.993 1638.3 237.437 1636.9 236.326C1635.5 235.215 1633.77 234.611 1632 234.609V226.422H1644V240.75Z" fill="#85C9D1"/>
<g filter="url(#filter5_d_0_1)">
<path d="M1396.5 530.929C1394.21 530.929 1391.97 531.609 1390.06 532.885C1388.15 534.16 1386.67 535.973 1385.79 538.094C1384.91 540.215 1384.68 542.549 1385.13 544.8C1385.58 547.052 1386.68 549.12 1388.3 550.744C1389.93 552.367 1391.99 553.472 1394.24 553.92C1396.49 554.368 1398.82 554.138 1400.94 553.26C1403.05 552.381 1404.86 550.893 1406.14 548.985C1407.41 547.076 1408.09 544.832 1408.09 542.536C1408.09 539.458 1406.87 536.505 1404.7 534.328C1402.52 532.152 1399.57 530.929 1396.5 530.929ZM1396.5 549.5C1395.12 549.5 1393.78 549.092 1392.64 548.327C1391.49 547.561 1390.6 546.474 1390.07 545.201C1389.55 543.929 1389.41 542.528 1389.68 541.177C1389.95 539.826 1390.61 538.585 1391.58 537.611C1392.56 536.637 1393.79 535.974 1395.14 535.705C1396.49 535.437 1397.89 535.575 1399.16 536.102C1400.43 536.629 1401.52 537.521 1402.28 538.667C1403.05 539.812 1403.45 541.159 1403.45 542.536C1403.45 544.383 1402.72 546.154 1401.42 547.461C1400.11 548.767 1398.34 549.5 1396.5 549.5ZM1396.5 517C1389.74 517.008 1383.26 519.701 1378.48 524.488C1373.7 529.275 1371.01 535.766 1371 542.536C1371 551.648 1375.2 561.305 1383.17 570.466C1386.75 574.606 1390.78 578.333 1395.18 581.58C1395.57 581.853 1396.04 582 1396.51 582C1396.99 582 1397.45 581.853 1397.84 581.58C1402.24 578.332 1406.26 574.604 1409.83 570.466C1417.78 561.305 1422 551.648 1422 542.536C1421.99 535.766 1419.3 529.275 1414.52 524.488C1409.74 519.701 1403.26 517.008 1396.5 517ZM1396.5 576.777C1391.71 573.005 1375.64 559.149 1375.64 542.536C1375.64 536.995 1377.83 531.681 1381.75 527.762C1385.66 523.844 1390.97 521.643 1396.5 521.643C1402.03 521.643 1407.34 523.844 1411.25 527.762C1415.17 531.681 1417.36 536.995 1417.36 542.536C1417.36 559.143 1401.29 573.005 1396.5 576.777Z" fill="#9DD185"/>
</g>
<path d="M1273.27 636.233C1273.09 636.376 1272.87 636.48 1272.64 636.54C1272.41 636.599 1272.17 636.612 1271.94 636.578C1271.71 636.544 1271.48 636.465 1271.28 636.343C1271.07 636.222 1270.9 636.061 1270.75 635.87C1269.67 634.4 1268.26 633.206 1266.63 632.387C1265.01 631.567 1263.21 631.144 1261.4 631.151C1261.04 631.151 1260.7 631.045 1260.4 630.848C1260.11 630.651 1259.88 630.37 1259.74 630.041C1259.64 629.818 1259.6 629.578 1259.6 629.335C1259.6 629.093 1259.64 628.853 1259.74 628.63C1259.88 628.301 1260.11 628.02 1260.4 627.823C1260.7 627.625 1261.04 627.52 1261.4 627.52C1262.41 627.52 1263.4 627.234 1264.25 626.695C1265.11 626.157 1265.8 625.386 1266.24 624.471C1266.69 623.557 1266.87 622.535 1266.77 621.522C1266.66 620.508 1266.28 619.544 1265.66 618.739C1265.05 617.934 1264.22 617.32 1263.27 616.967C1262.32 616.613 1261.29 616.535 1260.31 616.741C1259.32 616.946 1258.4 617.427 1257.67 618.13C1256.94 618.832 1256.42 619.727 1256.17 620.713C1256.11 620.944 1256 621.161 1255.86 621.351C1255.72 621.542 1255.54 621.702 1255.34 621.823C1255.14 621.945 1254.91 622.024 1254.68 622.057C1254.44 622.091 1254.2 622.077 1253.97 622.018C1253.75 621.958 1253.53 621.854 1253.34 621.71C1253.15 621.567 1252.99 621.387 1252.87 621.182C1252.75 620.976 1252.67 620.749 1252.64 620.513C1252.61 620.277 1252.62 620.036 1252.68 619.805C1253.03 618.438 1253.69 617.172 1254.61 616.107C1255.53 615.043 1256.69 614.211 1257.99 613.676C1259.28 613.141 1260.68 612.919 1262.08 613.026C1263.48 613.134 1264.83 613.569 1266.03 614.297C1267.23 615.024 1268.24 616.025 1268.99 617.218C1269.74 618.411 1270.21 619.764 1270.35 621.169C1270.49 622.575 1270.3 623.994 1269.8 625.313C1269.3 626.633 1268.5 627.817 1267.47 628.77C1269.92 629.839 1272.05 631.535 1273.64 633.69C1273.78 633.881 1273.89 634.098 1273.94 634.33C1274 634.561 1274.02 634.802 1273.98 635.038C1273.95 635.275 1273.87 635.502 1273.75 635.707C1273.62 635.912 1273.46 636.091 1273.27 636.233ZM1261.15 650.211C1261.28 650.418 1261.37 650.649 1261.41 650.89C1261.45 651.132 1261.44 651.379 1261.38 651.617C1261.32 651.854 1261.22 652.078 1261.07 652.274C1260.93 652.47 1260.75 652.634 1260.53 652.756C1260.32 652.879 1260.09 652.957 1259.85 652.987C1259.61 653.016 1259.37 652.996 1259.13 652.928C1258.9 652.86 1258.68 652.745 1258.49 652.59C1258.31 652.435 1258.15 652.243 1258.04 652.026C1256.91 650.09 1255.29 648.485 1253.35 647.37C1251.42 646.256 1249.23 645.669 1247 645.669C1244.77 645.669 1242.58 646.256 1240.64 647.37C1238.7 648.485 1237.09 650.09 1235.96 652.026C1235.84 652.243 1235.69 652.435 1235.5 652.59C1235.31 652.745 1235.1 652.86 1234.86 652.928C1234.63 652.996 1234.39 653.016 1234.14 652.987C1233.9 652.957 1233.67 652.879 1233.46 652.756C1233.25 652.634 1233.07 652.47 1232.92 652.274C1232.78 652.078 1232.67 651.854 1232.61 651.617C1232.56 651.379 1232.55 651.132 1232.59 650.89C1232.62 650.649 1232.71 650.418 1232.84 650.211C1234.59 647.187 1237.25 644.807 1240.43 643.422C1238.64 642.038 1237.32 640.122 1236.67 637.944C1236.01 635.766 1236.05 633.435 1236.77 631.278C1237.49 629.122 1238.87 627.249 1240.71 625.922C1242.54 624.596 1244.74 623.882 1247 623.882C1249.25 623.882 1251.46 624.596 1253.29 625.922C1255.12 627.249 1256.5 629.122 1257.23 631.278C1257.95 633.435 1257.99 635.766 1257.33 637.944C1256.67 640.122 1255.35 642.038 1253.56 643.422C1256.75 644.807 1259.41 647.187 1261.15 650.211ZM1247 642.042C1248.42 642.042 1249.81 641.616 1251 640.819C1252.18 640.021 1253.1 638.887 1253.65 637.56C1254.19 636.233 1254.34 634.773 1254.06 633.365C1253.78 631.956 1253.1 630.662 1252.09 629.647C1251.08 628.631 1249.8 627.94 1248.4 627.66C1247.01 627.379 1245.56 627.523 1244.24 628.073C1242.93 628.622 1241.8 629.553 1241.01 630.747C1240.22 631.941 1239.8 633.345 1239.8 634.781C1239.8 636.707 1240.56 638.554 1241.91 639.916C1243.26 641.277 1245.09 642.042 1247 642.042ZM1234.4 629.335C1234.4 628.854 1234.21 628.392 1233.87 628.052C1233.53 627.711 1233.08 627.52 1232.6 627.52C1231.59 627.52 1230.6 627.234 1229.74 626.695C1228.89 626.157 1228.2 625.386 1227.75 624.471C1227.31 623.557 1227.13 622.535 1227.23 621.522C1227.33 620.508 1227.71 619.544 1228.33 618.739C1228.95 617.934 1229.78 617.32 1230.73 616.967C1231.67 616.613 1232.7 616.535 1233.69 616.741C1234.68 616.946 1235.59 617.427 1236.32 618.13C1237.05 618.832 1237.58 619.727 1237.83 620.713C1237.95 621.179 1238.25 621.579 1238.66 621.823C1239.07 622.068 1239.56 622.138 1240.02 622.018C1240.48 621.897 1240.88 621.597 1241.12 621.182C1241.36 620.767 1241.43 620.272 1241.31 619.805C1240.96 618.438 1240.3 617.172 1239.38 616.107C1238.46 615.043 1237.31 614.211 1236.01 613.676C1234.71 613.141 1233.31 612.919 1231.92 613.026C1230.52 613.134 1229.17 613.569 1227.97 614.297C1226.77 615.024 1225.75 616.025 1225 617.218C1224.25 618.411 1223.79 619.764 1223.65 621.169C1223.51 622.575 1223.7 623.994 1224.19 625.313C1224.69 626.633 1225.49 627.817 1226.52 628.77C1224.08 629.84 1221.96 631.536 1220.36 633.69C1220.07 634.075 1219.95 634.559 1220.02 635.036C1220.09 635.513 1220.34 635.943 1220.72 636.232C1221.1 636.521 1221.58 636.646 1222.05 636.578C1222.53 636.51 1222.95 636.255 1223.24 635.87C1224.33 634.4 1225.74 633.206 1227.36 632.387C1228.99 631.567 1230.78 631.144 1232.6 631.151C1233.08 631.151 1233.53 630.959 1233.87 630.619C1234.21 630.279 1234.4 629.817 1234.4 629.335Z" fill="#85C9D1"/>
<defs>
<filter id="filter0_d_0_1" x="0" y="216" width="753" height="261" filterUnits="userSpaceOnUse" color-interpolation-filters="sRGB">
<feFlood flood-opacity="0" result="BackgroundImageFix"/>
<feColorMatrix in="SourceAlpha" type="matrix" values="0 0 0 0 0 0 0 0 0 0 0 0 0 0 0 0 0 0 127 0" result="hardAlpha"/>
<feOffset/>
<feGaussianBlur stdDeviation="24"/>
<feComposite in2="hardAlpha" operator="out"/>
<feColorMatrix type="matrix" values="0 0 0 0 0.521569 0 0 0 0 0.788235 0 0 0 0 0.819608 0 0 0 1 0"/>
<feBlend mode="normal" in2="BackgroundImageFix" result="effect1_dropShadow_0_1"/>
<feBlend mode="normal" in="SourceGraphic" in2="effect1_dropShadow_0_1" result="shape"/>
</filter>
<filter id="filter1_d_0_1" x="0" y="431" width="753" height="261" filterUnits="userSpaceOnUse" color-interpolation-filters="sRGB">
<feFlood flood-opacity="0" result="BackgroundImageFix"/>
<feColorMatrix in="SourceAlpha" type="matrix" values="0 0 0 0 0 0 0 0 0 0 0 0 0 0 0 0 0 0 127 0" result="hardAlpha"/>
<feOffset/>
<feGaussianBlur stdDeviation="24"/>
<feComposite in2="hardAlpha" operator="out"/>
<feColorMatrix type="matrix" values="0 0 0 0 0.521569 0 0 0 0 0.788235 0 0 0 0 0.819608 0 0 0 1 0"/>
<feBlend mode="normal" in2="BackgroundImageFix" result="effect1_dropShadow_0_1"/>
<feBlend mode="normal" in="SourceGraphic" in2="effect1_dropShadow_0_1" result="shape"/>
</filter>
<filter id="filter2_i_0_1" x="1133.79" y="13.0332" width="618.012" height="622.013" filterUnits="userSpaceOnUse" color-interpolation-filters="sRGB">
<feFlood flood-opacity="0" result="BackgroundImageFix"/>
<feBlend mode="normal" in="SourceGraphic" in2="BackgroundImageFix" result="shape"/>
<feColorMatrix in="SourceAlpha" type="matrix" values="0 0 0 0 0 0 0 0 0 0 0 0 0 0 0 0 0 0 127 0" result="hardAlpha"/>
<feOffset dy="4"/>
<feGaussianBlur stdDeviation="25"/>
<feComposite in2="hardAlpha" operator="arithmetic" k2="-1" k3="1"/>
<feColorMatrix type="matrix" values="0 0 0 0 0.521569 0 0 0 0 0.788235 0 0 0 0 0.819608 0 0 0 1 0"/>
<feBlend mode="normal" in2="shape" result="effect1_innerShadow_0_1"/>
</filter>
<filter id="filter3_i_0_1" x="1000.58" y="386.453" width="495.856" height="499.855" filterUnits="userSpaceOnUse" color-interpolation-filters="sRGB">
<feFlood flood-opacity="0" result="BackgroundImageFix"/>
<feBlend mode="normal" in="SourceGraphic" in2="BackgroundImageFix" result="shape"/>
<feColorMatrix in="SourceAlpha" type="matrix" values="0 0 0 0 0 0 0 0 0 0 0 0 0 0 0 0 0 0 127 0" result="hardAlpha"/>
<feOffset dy="4"/>
<feGaussianBlur stdDeviation="25"/>
<feComposite in2="hardAlpha" operator="arithmetic" k2="-1" k3="1"/>
<feColorMatrix type="matrix" values="0 0 0 0 0.521569 0 0 0 0 0.788235 0 0 0 0 0.819608 0 0 0 1 0"/>
<feBlend mode="normal" in2="shape" result="effect1_innerShadow_0_1"/>
</filter>
<filter id="filter4_d_0_1" x="1256" y="421" width="127" height="112" filterUnits="userSpaceOnUse" color-interpolation-filters="sRGB">
<feFlood flood-opacity="0" result="BackgroundImageFix"/>
<feColorMatrix in="SourceAlpha" type="matrix" values="0 0 0 0 0 0 0 0 0 0 0 0 0 0 0 0 0 0 127 0" result="hardAlpha"/>
<feOffset/>
<feGaussianBlur stdDeviation="13"/>
<feComposite in2="hardAlpha" operator="out"/>
<feColorMatrix type="matrix" values="0 0 0 0 0.616941 0 0 0 0 0.819608 0 0 0 0 0.521569 0 0 0 1 0"/>
<feBlend mode="normal" in2="BackgroundImageFix" result="effect1_dropShadow_0_1"/>
<feBlend mode="normal" in="SourceGraphic" in2="effect1_dropShadow_0_1" result="shape"/>
</filter>
<filter id="filter5_d_0_1" x="1345" y="491" width="103" height="117" filterUnits="userSpaceOnUse" color-interpolation-filters="sRGB">
<feFlood flood-opacity="0" result="BackgroundImageFix"/>
<feColorMatrix in="SourceAlpha" type="matrix" values="0 0 0 0 0 0 0 0 0 0 0 0 0 0 0 0 0 0 127 0" result="hardAlpha"/>
<feOffset/>
<feGaussianBlur stdDeviation="13"/>
<feComposite in2="hardAlpha" operator="out"/>
<feColorMatrix type="matrix" values="0 0 0 0 0.616941 0 0 0 0 0.819608 0 0 0 0 0.521569 0 0 0 1 0"/>
<feBlend mode="normal" in2="BackgroundImageFix" result="effect1_dropShadow_0_1"/>
<feBlend mode="normal" in="SourceGraphic" in2="effect1_dropShadow_0_1" result="shape"/>
</filter>
</defs>
</svg>
