<svg xmlns="http://www.w3.org/2000/svg" version="1.1" xmlns:xlink="http://www.w3.org/1999/xlink" xmlns:svgjs="http://svgjs.dev/svgjs" viewBox="0 0 800 800"><defs><linearGradient x1="50%" y1="0%" x2="50%" y2="100%" id="cccoil-grad"><stop stop-color="hsl(202, 58%, 43%)" stop-opacity="1" offset="0%" data-darkreader-inline-stopcolor="" style="--darkreader-inline-stopcolor:#25668a;"></stop><stop stop-color="hsl(195, 98%, 10%)" stop-opacity="1" offset="100%" data-darkreader-inline-stopcolor="" style="--darkreader-inline-stopcolor:#011e28;"></stop></linearGradient></defs><g stroke="url(#cccoil-grad)" fill="none" stroke-linecap="round"><circle r="171" cx="400" cy="400" stroke-width="1" stroke-dasharray="1074 1074" transform="rotate(360, 400, 400)" opacity="0.05"></circle><circle r="162" cx="400" cy="400" stroke-width="1" stroke-dasharray="961 1018" transform="rotate(340, 400, 400)" opacity="0.10"></circle><circle r="153" cx="400" cy="400" stroke-width="1" stroke-dasharray="855 961" transform="rotate(320, 400, 400)" opacity="0.16"></circle><circle r="144" cx="400" cy="400" stroke-width="1" stroke-dasharray="754 905" transform="rotate(300, 400, 400)" opacity="0.21"></circle><circle r="135" cx="400" cy="400" stroke-width="1" stroke-dasharray="660 848" transform="rotate(280, 400, 400)" opacity="0.26"></circle><circle r="126" cx="400" cy="400" stroke-width="1" stroke-dasharray="572 792" transform="rotate(260, 400, 400)" opacity="0.31"></circle><circle r="117" cx="400" cy="400" stroke-width="1" stroke-dasharray="490 735" transform="rotate(240, 400, 400)" opacity="0.37"></circle><circle r="108" cx="400" cy="400" stroke-width="1" stroke-dasharray="415 679" transform="rotate(220, 400, 400)" opacity="0.42"></circle><circle r="99" cx="400" cy="400" stroke-width="1" stroke-dasharray="346 622" transform="rotate(200, 400, 400)" opacity="0.47"></circle><circle r="90" cx="400" cy="400" stroke-width="1" stroke-dasharray="283 565" transform="rotate(180, 400, 400)" opacity="0.53"></circle><circle r="81" cx="400" cy="400" stroke-width="1" stroke-dasharray="226 509" transform="rotate(160, 400, 400)" opacity="0.58"></circle><circle r="72" cx="400" cy="400" stroke-width="1" stroke-dasharray="176 452" transform="rotate(140, 400, 400)" opacity="0.63"></circle><circle r="63" cx="400" cy="400" stroke-width="1" stroke-dasharray="132 396" transform="rotate(120, 400, 400)" opacity="0.68"></circle><circle r="54" cx="400" cy="400" stroke-width="1" stroke-dasharray="94 339" transform="rotate(100, 400, 400)" opacity="0.74"></circle><circle r="45" cx="400" cy="400" stroke-width="1" stroke-dasharray="63 283" transform="rotate(80, 400, 400)" opacity="0.79"></circle><circle r="36" cx="400" cy="400" stroke-width="1" stroke-dasharray="38 226" transform="rotate(60, 400, 400)" opacity="0.84"></circle><circle r="27" cx="400" cy="400" stroke-width="1" stroke-dasharray="19 170" transform="rotate(40, 400, 400)" opacity="0.89"></circle><circle r="18" cx="400" cy="400" stroke-width="1" stroke-dasharray="6 113" transform="rotate(20, 400, 400)" opacity="0.95"></circle><circle r="9" cx="400" cy="400" stroke-width="1" stroke-dasharray="0 57" opacity="1.00"></circle></g></svg>