<svg xmlns="http://www.w3.org/2000/svg" width="787" height="584"><defs><linearGradient id="a" x1="48.024%" x2="55.091%" y1="73.209%" y2="32.517%"><stop offset="0%" stop-color="#70B"/><stop offset="100%" stop-color="#00008B"/></linearGradient><linearGradient id="b" x1="51.024%" x2="48.85%" y1="-1.842%" y2="108.309%"><stop offset="0%" stop-color="#88CFDA"/><stop offset=".834%" stop-color="#89CFD9"/><stop offset="47.84%" stop-color="#C8D9BB"/><stop offset="82.18%" stop-color="#F0DFA7"/><stop offset="100%" stop-color="#FFE1A0"/></linearGradient><linearGradient id="c" x1="25.872%" x2="91.883%" y1="74.058%" y2="1.005%"><stop stop-color="#00008B"/><stop/></linearGradient><linearGradient id="d" x1="37.125%" x2="81.359%" y1="80.238%" y2="22.218%"><stop offset="0%" stop-color="#7633FF"/><stop offset="15.85%" stop-color="#7137FF"/><stop offset="35.35%" stop-color="#6243FF"/><stop offset="56.76%" stop-color="#4957FF"/><stop offset="79.37%" stop-color="#2672FF"/><stop offset="100%" stop-color="#0090FF"/></linearGradient><linearGradient id="e" x1="47.187%" x2="42.559%" y1="50.559%" y2="51.467%"><stop offset="7.43%" stop-color="#CEC228"/><stop offset="58%" stop-color="#B2AE18"/></linearGradient><linearGradient id="f" x1="47.072%" x2="52.257%" y1="51.835%" y2="48.589%"><stop offset="0%" stop-color="#70B"/><stop offset="100%" stop-color="#00008B"/><stop offset="100%"/></linearGradient><linearGradient id="g" x1="6.228%" x2="93.768%" y1="53.554%" y2="46.448%"><stop offset="0%" stop-color="#70B"/><stop offset="100%" stop-color="#00008B"/><stop offset="100%"/></linearGradient><linearGradient id="h" x1="6.852%" x2="93.153%" y1="54.065%" y2="45.939%"><stop offset="0%" stop-color="#70B"/><stop offset="100%" stop-color="#00008B"/><stop offset="100%"/></linearGradient><linearGradient id="i" x1="74.13%" x2="8.119%" y1="74.054%" y2="1.001%"><stop stop-color="#00008B"/><stop/></linearGradient><linearGradient id="j" x1="38.926%" x2="78.121%" y1="76.826%" y2="30.878%"><stop offset="0%" stop-color="#59023F"/><stop offset="11.89%" stop-color="#590444"/><stop offset="26.52%" stop-color="#5A0A53"/><stop offset="42.58%" stop-color="#5C156C"/><stop offset="59.69%" stop-color="#5E238F"/><stop offset="77.61%" stop-color="#6135BC"/><stop offset="95.95%" stop-color="#644CF2"/><stop offset="100%" stop-color="#6551FF"/></linearGradient><linearGradient id="k" x1="48.969%" x2="47.186%" y1="51.557%" y2="54.125%"><stop offset="7.43%" stop-color="#CEC228"/><stop offset="58%" stop-color="#B2AE18"/></linearGradient><linearGradient id="l" x1="42.93%" x2="55.444%" y1="55.456%" y2="45.805%"><stop offset="0%" stop-color="#70B"/><stop offset="100%" stop-color="#00008B"/><stop offset="100%"/></linearGradient><linearGradient id="m" x1="14.327%" x2="85.676%" y1="51.167%" y2="48.533%"><stop offset="0%" stop-color="#70B"/><stop offset="100%" stop-color="#00008B"/><stop offset="100%"/></linearGradient><linearGradient id="n" x1="65.766%" x2="-17.647%" y1="58.442%" y2="7.154%"><stop offset="0%" stop-color="#7633FF"/><stop offset="15.85%" stop-color="#7137FF"/><stop offset="35.35%" stop-color="#6243FF"/><stop offset="56.76%" stop-color="#4957FF"/><stop offset="79.37%" stop-color="#2672FF"/><stop offset="100%" stop-color="#0090FF"/></linearGradient><linearGradient id="o" x1="56.647%" x2="67.379%" y1="52.416%" y2="56.394%"><stop offset="7.43%" stop-color="#CEC228"/><stop offset="58%" stop-color="#B2AE18"/></linearGradient><linearGradient id="p" x1="58.093%" x2="16.852%" y1="77.708%" y2="25.596%"><stop offset="0%" stop-color="#59023F"/><stop offset="11.89%" stop-color="#590444"/><stop offset="26.52%" stop-color="#5A0A53"/><stop offset="42.58%" stop-color="#5C156C"/><stop offset="59.69%" stop-color="#5E238F"/><stop offset="77.61%" stop-color="#6135BC"/><stop offset="95.95%" stop-color="#644CF2"/><stop offset="100%" stop-color="#6551FF"/></linearGradient><linearGradient id="q" x1="51.556%" x2="54.111%" y1="50.998%" y2="52.622%"><stop offset="7.43%" stop-color="#CEC228"/><stop offset="58%" stop-color="#B2AE18"/></linearGradient><linearGradient id="r" x1="55.775%" x2="45.561%" y1="54.348%" y2="46.642%"><stop offset="0%" stop-color="#70B"/><stop offset="100%" stop-color="#00008B"/><stop offset="100%"/></linearGradient><linearGradient id="s" x1="87.721%" x2="12.281%" y1="52.152%" y2="47.608%"><stop offset="0%" stop-color="#70B"/><stop offset="100%" stop-color="#00008B"/><stop offset="100%"/></linearGradient><linearGradient id="t" x1="104.314%" x2="-3.675%" y1="68.995%" y2="30.108%"><stop offset="0%" stop-color="#70B"/><stop offset="100%" stop-color="#00008B"/><stop offset="100%"/></linearGradient><linearGradient id="u" x1="22.698%" x2="72.348%" y1="27.567%" y2="60.539%"><stop offset="0%" stop-color="#7633FF"/><stop offset="15.85%" stop-color="#7137FF"/><stop offset="35.35%" stop-color="#6243FF"/><stop offset="56.76%" stop-color="#4957FF"/><stop offset="79.37%" stop-color="#2672FF"/><stop offset="100%" stop-color="#0090FF"/></linearGradient><linearGradient id="v" x1="23.172%" x2="77.112%" y1="27.972%" y2="62.09%"><stop offset="0%" stop-color="#7633FF"/><stop offset="15.85%" stop-color="#7137FF"/><stop offset="35.35%" stop-color="#6243FF"/><stop offset="56.76%" stop-color="#4957FF"/><stop offset="79.37%" stop-color="#2672FF"/><stop offset="100%" stop-color="#0090FF"/></linearGradient><linearGradient id="w" x1="21.048%" x2="79.746%" y1="26.944%" y2="62.997%"><stop offset="0%" stop-color="#7633FF"/><stop offset="15.85%" stop-color="#7137FF"/><stop offset="35.35%" stop-color="#6243FF"/><stop offset="56.76%" stop-color="#4957FF"/><stop offset="79.37%" stop-color="#2672FF"/><stop offset="100%" stop-color="#0090FF"/></linearGradient><linearGradient id="x" x1="19.844%" x2="81.764%" y1="28.273%" y2="65.7%"><stop offset="0%" stop-color="#7633FF"/><stop offset="15.85%" stop-color="#7137FF"/><stop offset="35.35%" stop-color="#6243FF"/><stop offset="56.76%" stop-color="#4957FF"/><stop offset="79.37%" stop-color="#2672FF"/><stop offset="100%" stop-color="#0090FF"/></linearGradient><linearGradient id="y" x1="2.297%" x2="98.172%" y1="36.849%" y2="68.46%"><stop offset="0%" stop-color="#7633FF"/><stop offset="15.85%" stop-color="#7137FF"/><stop offset="35.35%" stop-color="#6243FF"/><stop offset="56.76%" stop-color="#4957FF"/><stop offset="79.37%" stop-color="#2672FF"/><stop offset="100%" stop-color="#0090FF"/></linearGradient><linearGradient id="z" x1="2.479%" x2="103.31%" y1="28.656%" y2="74.655%"><stop offset="0%" stop-color="#7633FF"/><stop offset="15.85%" stop-color="#7137FF"/><stop offset="35.35%" stop-color="#6243FF"/><stop offset="56.76%" stop-color="#4957FF"/><stop offset="79.37%" stop-color="#2672FF"/><stop offset="100%" stop-color="#0090FF"/></linearGradient><linearGradient id="A" x1="77.291%" x2="27.641%" y1="27.555%" y2="60.527%"><stop offset="0%" stop-color="#7633FF"/><stop offset="15.85%" stop-color="#7137FF"/><stop offset="35.35%" stop-color="#6243FF"/><stop offset="56.76%" stop-color="#4957FF"/><stop offset="79.37%" stop-color="#2672FF"/><stop offset="100%" stop-color="#0090FF"/></linearGradient><linearGradient id="B" x1="76.813%" x2="22.874%" y1="28.059%" y2="62.177%"><stop offset="0%" stop-color="#7633FF"/><stop offset="15.85%" stop-color="#7137FF"/><stop offset="35.35%" stop-color="#6243FF"/><stop offset="56.76%" stop-color="#4957FF"/><stop offset="79.37%" stop-color="#2672FF"/><stop offset="100%" stop-color="#0090FF"/></linearGradient><linearGradient id="C" x1="78.934%" x2="20.238%" y1="26.93%" y2="62.982%"><stop offset="0%" stop-color="#7633FF"/><stop offset="15.85%" stop-color="#7137FF"/><stop offset="35.35%" stop-color="#6243FF"/><stop offset="56.76%" stop-color="#4957FF"/><stop offset="79.37%" stop-color="#2672FF"/><stop offset="100%" stop-color="#0090FF"/></linearGradient><linearGradient id="D" x1="80.141%" x2="18.225%" y1="28.346%" y2="65.772%"><stop offset="0%" stop-color="#7633FF"/><stop offset="15.85%" stop-color="#7137FF"/><stop offset="35.35%" stop-color="#6243FF"/><stop offset="56.76%" stop-color="#4957FF"/><stop offset="79.37%" stop-color="#2672FF"/><stop offset="100%" stop-color="#0090FF"/></linearGradient><linearGradient id="E" x1="97.771%" x2="1.894%" y1="36.858%" y2="68.456%"><stop offset="0%" stop-color="#7633FF"/><stop offset="15.85%" stop-color="#7137FF"/><stop offset="35.35%" stop-color="#6243FF"/><stop offset="56.76%" stop-color="#4957FF"/><stop offset="79.37%" stop-color="#2672FF"/><stop offset="100%" stop-color="#0090FF"/></linearGradient><linearGradient id="F" x1="97.534%" x2="-3.11%" y1="28.731%" y2="74.692%"><stop offset="0%" stop-color="#7633FF"/><stop offset="15.85%" stop-color="#7137FF"/><stop offset="35.35%" stop-color="#6243FF"/><stop offset="56.76%" stop-color="#4957FF"/><stop offset="79.37%" stop-color="#2672FF"/><stop offset="100%" stop-color="#0090FF"/></linearGradient><linearGradient id="G" x1="51.233%" x2="48.994%" y1="50.968%" y2="48.804%"><stop offset="0%" stop-color="#70B"/><stop offset="100%" stop-color="#00008B"/></linearGradient><linearGradient id="H" x1="101.705%" x2="3.106%" y1="28.025%" y2="69.93%"><stop offset="0%" stop-color="#7981FF"/><stop offset="13.45%" stop-color="#7E85FF"/><stop offset="28.66%" stop-color="#8B92FF"/><stop offset="44.72%" stop-color="#A2A7FF"/><stop offset="61.37%" stop-color="#C2C5FF"/><stop offset="78.32%" stop-color="#EAEBFF"/><stop offset="86.1%" stop-color="#FFF"/></linearGradient><linearGradient id="I" x1="0%" x2="99.999%" y1="50.007%" y2="50.007%"><stop offset="0%" stop-color="#7633FF"/><stop offset="15.85%" stop-color="#7137FF"/><stop offset="35.35%" stop-color="#6243FF"/><stop offset="56.76%" stop-color="#4957FF"/><stop offset="79.37%" stop-color="#2672FF"/><stop offset="100%" stop-color="#0090FF"/></linearGradient><linearGradient id="J" x1=".169%" x2="100.04%" y1="50.002%" y2="50.002%"><stop offset="0%" stop-color="#00A49A"/><stop offset="3.99%" stop-color="#00A198"/><stop offset="67.1%" stop-color="#007A7B"/><stop offset="100%" stop-color="#006B70"/></linearGradient><linearGradient id="K" x1=".007%" x2="100.003%" y1="49.997%" y2="49.997%"><stop offset="0%" stop-color="#00A49A"/><stop offset="41.18%" stop-color="#007477"/><stop offset="79.9%" stop-color="#004C5A"/><stop offset="100%" stop-color="#003D4F"/></linearGradient><linearGradient id="L" x1="89.521%" x2="-10.508%" y1="40.401%" y2="59.702%"><stop offset="0%" stop-color="#00A49A"/><stop offset="41.18%" stop-color="#007477"/><stop offset="79.9%" stop-color="#004C5A"/><stop offset="100%" stop-color="#003D4F"/></linearGradient><linearGradient id="M" x1="-.002%" x2="99.995%" y1="49.998%" y2="49.998%"><stop offset="0%" stop-color="#311341"/><stop offset="22.99%" stop-color="#3113C2"/><stop offset="34.79%" stop-color="#2F18C5"/><stop offset="49.31%" stop-color="#2927CC"/><stop offset="65.24%" stop-color="#1F40D8"/><stop offset="82.19%" stop-color="#1263E9"/><stop offset="99.78%" stop-color="#008FFF"/><stop offset="100%" stop-color="#0090FF"/></linearGradient><linearGradient id="N" x1=".001%" x2="99.994%" y1="49.994%" y2="49.994%"><stop offset="0%" stop-color="#7633FF"/><stop offset="15.85%" stop-color="#7137FF"/><stop offset="35.35%" stop-color="#6243FF"/><stop offset="56.76%" stop-color="#4957FF"/><stop offset="79.37%" stop-color="#2672FF"/><stop offset="100%" stop-color="#0090FF"/></linearGradient><linearGradient id="O" x1="-.003%" x2="99.972%" y1="50.002%" y2="50.002%"><stop offset="0%" stop-color="#A1BAFF"/><stop offset="43.32%" stop-color="#FFF"/></linearGradient><linearGradient id="P" x1="-.006%" x2="99.992%" y1="50.004%" y2="50.004%"><stop offset="0%" stop-color="#00A49A"/><stop offset="3.99%" stop-color="#00A198"/><stop offset="67.1%" stop-color="#007A7B"/><stop offset="100%" stop-color="#006B70"/></linearGradient><linearGradient id="Q" x1="28.569%" x2="103.34%" y1="13.091%" y2="86.155%"><stop offset="0%" stop-color="#00A49A"/><stop offset="3.99%" stop-color="#00A198"/><stop offset="67.1%" stop-color="#007A7B"/><stop offset="100%" stop-color="#006B70"/></linearGradient><linearGradient id="R" x1="-.005%" x2="100.01%" y1="50%" y2="50%"><stop offset="0%" stop-color="#00A49A"/><stop offset="3.99%" stop-color="#00A198"/><stop offset="67.1%" stop-color="#007A7B"/><stop offset="100%" stop-color="#006B70"/></linearGradient><linearGradient id="S" x1="-.002%" x2="100.004%" y1="50.007%" y2="50.007%"><stop offset="0%" stop-color="#00A49A"/><stop offset="3.99%" stop-color="#00A198"/><stop offset="67.1%" stop-color="#007A7B"/><stop offset="100%" stop-color="#006B70"/></linearGradient><linearGradient id="T" x1=".014%" x2="100.022%" y1="50.009%" y2="50.009%"><stop offset="0%" stop-color="#5E60FF"/><stop offset="18.14%" stop-color="#5963FF"/><stop offset="40.44%" stop-color="#4A6AFF"/><stop offset="64.91%" stop-color="#3177FF"/><stop offset="90.79%" stop-color="#0E89FF"/><stop offset="100%" stop-color="#0090FF"/></linearGradient><linearGradient id="U" x1="39.545%" x2="62.49%" y1="42.56%" y2="62.912%"><stop offset="0%" stop-color="#5E60FF"/><stop offset="18.14%" stop-color="#5963FF"/><stop offset="40.44%" stop-color="#4A6AFF"/><stop offset="64.91%" stop-color="#3177FF"/><stop offset="90.79%" stop-color="#0E89FF"/><stop offset="100%" stop-color="#0090FF"/></linearGradient><linearGradient id="V" x1="-.179%" x2="99.931%" y1="50.009%" y2="50.009%"><stop offset="0%" stop-color="#88CFDA"/><stop offset=".834%" stop-color="#89CFD9"/><stop offset="47.84%" stop-color="#C8D9BB"/><stop offset="82.18%" stop-color="#F0DFA7"/><stop offset="100%" stop-color="#FFE1A0"/></linearGradient><linearGradient id="W" x1=".018%" x2="99.96%" y1="49.973%" y2="49.973%"><stop offset="0%" stop-color="#88CFDA"/><stop offset=".834%" stop-color="#89CFD9"/><stop offset="47.84%" stop-color="#C8D9BB"/><stop offset="82.18%" stop-color="#F0DFA7"/><stop offset="100%" stop-color="#FFE1A0"/></linearGradient><linearGradient id="X" x1="53.171%" x2="-35.425%" y1="43.658%" y2="95.137%"><stop offset="0%" stop-color="#591DDB"/><stop offset="16.09%" stop-color="#52D"/><stop offset="35.89%" stop-color="#4931E1"/><stop offset="57.62%" stop-color="#364AE9"/><stop offset="80.58%" stop-color="#1B6DF4"/><stop offset="100%" stop-color="#0090FF"/></linearGradient><linearGradient id="Y" x1=".027%" x2="100.026%" y1="49.955%" y2="49.955%"><stop offset="0%" stop-color="#7633FF"/><stop offset="15.85%" stop-color="#7137FF"/><stop offset="35.35%" stop-color="#6243FF"/><stop offset="56.76%" stop-color="#4957FF"/><stop offset="79.37%" stop-color="#2672FF"/><stop offset="100%" stop-color="#0090FF"/></linearGradient><linearGradient id="Z" x1="54.825%" x2="48.24%" y1="1.987%" y2="94.558%"><stop offset="0%" stop-color="#7633FF"/><stop offset="15.85%" stop-color="#7137FF"/><stop offset="35.35%" stop-color="#6243FF"/><stop offset="56.76%" stop-color="#4957FF"/><stop offset="79.37%" stop-color="#2672FF"/><stop offset="100%" stop-color="#0090FF"/></linearGradient><linearGradient id="aa" x1="114.246%" x2="-13.352%" y1="106.427%" y2="23.617%"><stop offset="0%" stop-color="#5E60FF"/><stop offset="18.14%" stop-color="#5963FF"/><stop offset="40.44%" stop-color="#4A6AFF"/><stop offset="64.91%" stop-color="#3177FF"/><stop offset="90.79%" stop-color="#0E89FF"/><stop offset="100%" stop-color="#0090FF"/></linearGradient><linearGradient id="ab" x1="50.005%" x2="50.005%" y1="1.386%" y2="104.271%"><stop offset="0%" stop-color="#311341"/><stop offset="22.99%" stop-color="#3113C2"/><stop offset="34.79%" stop-color="#2F18C5"/><stop offset="49.31%" stop-color="#2927CC"/><stop offset="65.24%" stop-color="#1F40D8"/><stop offset="82.19%" stop-color="#1263E9"/><stop offset="99.78%" stop-color="#008FFF"/><stop offset="100%" stop-color="#0090FF"/></linearGradient><linearGradient id="ac" x1="-.002%" x2="99.981%" y1="50.006%" y2="50.006%"><stop offset="0%" stop-color="#88CFDA"/><stop offset=".834%" stop-color="#89CFD9"/><stop offset="47.84%" stop-color="#C8D9BB"/><stop offset="82.18%" stop-color="#F0DFA7"/><stop offset="100%" stop-color="#FFE1A0"/></linearGradient><linearGradient id="ad" x1="-.013%" x2="99.984%" y1="49.983%" y2="49.983%"><stop offset="0%" stop-color="#88CFDA"/><stop offset=".834%" stop-color="#89CFD9"/><stop offset="47.84%" stop-color="#C8D9BB"/><stop offset="82.18%" stop-color="#F0DFA7"/><stop offset="100%" stop-color="#FFE1A0"/></linearGradient><linearGradient id="ae" x1="109.588%" x2="-6.706%" y1="38.361%" y2="64.156%"><stop offset="0%" stop-color="#88CFDA"/><stop offset=".834%" stop-color="#89CFD9"/><stop offset="47.84%" stop-color="#C8D9BB"/><stop offset="82.18%" stop-color="#F0DFA7"/><stop offset="100%" stop-color="#FFE1A0"/></linearGradient><linearGradient id="af" x1="-.005%" x2="100%" y1="49.999%" y2="49.999%"><stop offset="0%" stop-color="#7633FF"/><stop offset="15.85%" stop-color="#7137FF"/><stop offset="35.35%" stop-color="#6243FF"/><stop offset="56.76%" stop-color="#4957FF"/><stop offset="79.37%" stop-color="#2672FF"/><stop offset="100%" stop-color="#0090FF"/></linearGradient><linearGradient id="ag" x1=".006%" x2="100%" y1="49.993%" y2="49.993%"><stop offset="0%" stop-color="#7633FF"/><stop offset="15.85%" stop-color="#7137FF"/><stop offset="35.35%" stop-color="#6243FF"/><stop offset="56.76%" stop-color="#4957FF"/><stop offset="79.37%" stop-color="#2672FF"/><stop offset="100%" stop-color="#0090FF"/></linearGradient><linearGradient id="ah" x1=".062%" x2="100.02%" y1="49.987%" y2="49.987%"><stop offset="0%" stop-color="#7633FF"/><stop offset="15.85%" stop-color="#7137FF"/><stop offset="35.35%" stop-color="#6243FF"/><stop offset="56.76%" stop-color="#4957FF"/><stop offset="79.37%" stop-color="#2672FF"/><stop offset="100%" stop-color="#0090FF"/></linearGradient><linearGradient id="ai" x1=".021%" x2="100.039%" y1="50.049%" y2="50.049%"><stop offset="0%" stop-color="#7633FF"/><stop offset="15.85%" stop-color="#7137FF"/><stop offset="35.35%" stop-color="#6243FF"/><stop offset="56.76%" stop-color="#4957FF"/><stop offset="79.37%" stop-color="#2672FF"/><stop offset="100%" stop-color="#0090FF"/></linearGradient><linearGradient id="aj" x1="-.003%" x2="99.975%" y1="49.997%" y2="49.997%"><stop offset="0%" stop-color="#7633FF"/><stop offset="15.85%" stop-color="#7137FF"/><stop offset="35.35%" stop-color="#6243FF"/><stop offset="56.76%" stop-color="#4957FF"/><stop offset="79.37%" stop-color="#2672FF"/><stop offset="100%" stop-color="#0090FF"/></linearGradient><linearGradient id="ak" x1="86.175%" x2="7.005%" y1="24.178%" y2="74.258%"><stop offset="0%" stop-color="#88CFDA"/><stop offset=".834%" stop-color="#89CFD9"/><stop offset="47.84%" stop-color="#C8D9BB"/><stop offset="82.18%" stop-color="#F0DFA7"/><stop offset="100%" stop-color="#FFE1A0"/></linearGradient><linearGradient id="al" x1="50.525%" x2="48.012%" y1="2.353%" y2="101.508%"><stop offset="0%" stop-color="#630068"/><stop offset="100%" stop-color="#9009FF"/></linearGradient><linearGradient id="am" x1="102.978%" x2="1.627%" y1="88.019%" y2="14.677%"><stop offset="0%" stop-color="#A1BAFF"/><stop offset="90.97%" stop-color="#FFF"/></linearGradient><linearGradient id="an" x1="-.003%" x2="99.995%" y1="50.053%" y2="50.053%"><stop offset="0%" stop-color="#A1BAFF"/><stop offset="43.32%" stop-color="#FFF"/></linearGradient><linearGradient id="ao" x1=".009%" x2="100.009%" y1="50.01%" y2="50.01%"><stop offset="0%" stop-color="#A1BAFF"/><stop offset="43.32%" stop-color="#FFF"/></linearGradient><linearGradient id="ap" x1=".026%" x2="100.003%" y1="49.999%" y2="49.999%"><stop offset="0%" stop-color="#00A49A"/><stop offset="3.99%" stop-color="#00A198"/><stop offset="67.1%" stop-color="#007A7B"/><stop offset="100%" stop-color="#006B70"/></linearGradient><linearGradient id="aq" x1="-.018%" x2="99.987%" y1="49.999%" y2="49.999%"><stop offset="0%" stop-color="#00A49A"/><stop offset="3.99%" stop-color="#00A198"/><stop offset="67.1%" stop-color="#007A7B"/><stop offset="100%" stop-color="#006B70"/></linearGradient><linearGradient id="ar" x1="-.028%" x2="99.988%" y1="50.012%" y2="50.012%"><stop offset="0%" stop-color="#88CFDA"/><stop offset=".834%" stop-color="#89CFD9"/><stop offset="47.84%" stop-color="#C8D9BB"/><stop offset="82.18%" stop-color="#F0DFA7"/><stop offset="100%" stop-color="#FFE1A0"/></linearGradient><linearGradient id="as" x1=".015%" x2="100.014%" y1="50.009%" y2="50.009%"><stop offset="0%" stop-color="#88CFDA"/><stop offset=".834%" stop-color="#89CFD9"/><stop offset="47.84%" stop-color="#C8D9BB"/><stop offset="82.18%" stop-color="#F0DFA7"/><stop offset="100%" stop-color="#FFE1A0"/></linearGradient></defs><g fill="none" fill-rule="evenodd"><g transform="translate(23)"><path fill="url(#a)" fill-rule="nonzero" d="M15.31 485.77h723.23s25.05-204.91-86.1-331.41c-111.14-126.5-272.38-28.51-272.38-28.51S294.58-40.71 157.77 10.04C-66.32 93.15 15.31 485.77 15.31 485.77Z"/><path fill="#FFF" fill-rule="nonzero" d="M503.07 172.77h93.83c5.1-2.63 8.59-7.97 8.59-14.13 0-7.97-5.85-14.57-13.47-15.71.01-.26.02-.52.02-.78 0-9.33-7.71-16.89-17.22-16.89-.99 0-1.97.08-2.92.24-4.1-7.12-12.1-11.95-21.3-11.95-10.72 0-19.81 6.56-23 15.65-1.01-.2-2.04-.31-3.1-.31-9.14 0-16.55 7.86-16.55 17.56 0 1.09.09 2.16.27 3.19-6.92.44-12.38 5.74-12.38 12.21-.01 4.77 2.93 8.89 7.23 10.92Z" opacity=".2"/><circle cx="163.68" cy="84.83" r="32.8" fill="url(#b)" fill-rule="nonzero" opacity=".8"/><path fill="#FFF" fill-rule="nonzero" d="M171.35 121.67h62.38c3.39-1.75 5.71-5.3 5.71-9.39 0-5.3-3.89-9.69-8.96-10.44.01-.17.01-.34.01-.52 0-6.2-5.13-11.23-11.45-11.23-.66 0-1.31.06-1.94.16-2.73-4.73-8.05-7.94-14.16-7.94-7.13 0-13.17 4.36-15.29 10.4-.67-.13-1.36-.21-2.06-.21-6.08 0-11 5.23-11 11.67 0 .73.06 1.43.18 2.12-4.6.29-8.23 3.82-8.23 8.12-.01 3.17 1.95 5.91 4.81 7.26Z" opacity=".2"/></g><g fill-rule="nonzero"><path fill="#00759F" d="M201.83 458.76s-21.77 18.79-77.95 4.61c-40.95-10.33-74.69-50.77-74.69-50.77s80.38-30.44 152.64 46.16Z"/><path fill="#741AAC" d="M200 461.28s-43.28-5.04-85.03-82.27c-30.43-56.29-19.89-135.39-19.89-135.39S211.44 302.14 200 461.28Z"/><path fill="#741AAC" d="M198.35 459.69s-34.43-26.71-30.18-114.41c3.09-63.92 53.05-126.14 53.05-126.14s69.28 110.3-22.87 240.55Z"/></g><g fill-rule="nonzero"><path fill="#00759F" d="M562.72 455.49s21.5 18.56 76.98 4.55c40.44-10.21 73.76-50.13 73.76-50.13s-79.39-30.07-150.74 45.58Z"/><path fill="#741AAC" d="M565.87 461.28s43.28-5.04 85.03-82.27c30.43-56.29 19.89-135.39 19.89-135.39s-116.35 58.52-104.92 217.66Z"/><path fill="#741AAC" d="M567.53 459.69s34.43-26.71 30.18-114.41c-3.1-63.92-53.05-126.14-53.05-126.14s-69.28 110.3 22.87 240.55Z"/></g><path fill="url(#c)" fill-rule="nonzero" d="M494.87 179.51c-.28-2.39 13.43-50.11 28.69-71.33 15.26-21.22 32.41-60.45 32.41-60.45s5.77 34.88-10.09 57.79c-15.86 22.91-22.6 34.22-22.6 34.22s11.08-22.34 37.58-23.88c26.49-1.54 19.68 22.72 19.68 22.72s-29.23-41.79-89.92 52.75" transform="translate(49 154)"/><g fill-rule="nonzero"><path fill="url(#d)" d="M116.62 150.79s-41.66 9.69-69.86-7.57C18.56 125.96.07 101.46.07 101.46s31.51-10.6 51.82-6.4c20.31 4.2 38.09 27.19 38.14 25.33.05-1.86-21.67-31.25-23.44-50.59-1.76-19.34 7.42-55.57 7.42-55.57s26.75 20.61 33.41 36.73c6.67 16.12 11.85 50.91 11.85 50.91s-3.54-30.43 8.78-55.68C140.39 20.95 171.72.53 171.72.53s11.66 31.5 2.08 62.23c-9.57 30.73-31.74 50.93-31.74 50.93s30.67-22.13 49.59-25.17c18.93-3.04 45.18 13.4 45.18 13.4S210 131.8 189.24 137.17c-20.76 5.37-41.64 2.62-41.64 2.62s28.79.49 45.74 11.96c16.95 11.46 31.37 35.12 31.37 35.12s-40.12 4.76-65.42-8.1c-25.3-12.86-42.67-27.98-42.67-27.98Z" transform="translate(391 229)"/><path fill="url(#e)" d="M156.27 140.4c-5.2-.55-8.67-.62-8.67-.62s3.36.43 8.67.62Z" transform="translate(391 229)"/><path fill="url(#f)" d="M80.08 36.49s5.1 67.47 36.86 103.61c-4.43-10.11-16.34-27.43-22.95-51.42-6.6-23.99-13.91-52.19-13.91-52.19Z" transform="translate(391 229)"/><path fill="url(#g)" d="M116.08 142.93s-59.71-17.3-82.78-28.04C16.17 107.41 8.18 103.6 8.18 103.6s12.94 10.55 49.9 24.8 58 14.53 58 14.53Z" transform="translate(391 229)"/><path fill="url(#h)" d="M123.56 144.22s36.62 9.73 67.42 25.5c14.57 7.58 23.74 13.04 23.74 13.04s-24.99-11.2-42.21-18.03c-17.21-6.83-48.95-20.51-48.95-20.51Z" transform="translate(391 229)"/></g><path fill="url(#i)" fill-rule="nonzero" d="M181.96 160.03c.28-2.39-13.43-50.11-28.69-71.33-15.26-21.22-32.41-60.45-32.41-60.45s-5.77 34.88 10.09 57.79c15.86 22.91 22.6 34.22 22.6 34.22s-11.08-22.34-37.58-23.88c-26.49-1.54-19.68 22.72-19.68 22.72s29.23-41.79 89.92 52.75" transform="translate(49 154)"/><path stroke="#000" stroke-width="2.31" d="M522.09 210.78s-17.15 25.68-27.88 63c-10.74 37.32-6.48 79.21-6.48 79.21"/><path stroke="#000" stroke-width="2.31" d="M515.91 253.58s-13.78 4.39-18.74 10.64c.15-6.87 2.24-31.74 2.24-31.74M507.18 293.42s-13.25 2.24-18.36 7.19c-3.19-7.43-6.15-26.8-6.15-26.8M495.09 327.41s-5.76 3.41-8.19 6.62c-4.31-6.48-15.74-18.58-15.74-18.58"/><path fill="#00759F" fill-rule="nonzero" d="M519.99 213.17s16.87-.51 24.22-12.15c7.35-11.65 8.82-21.79 8.82-21.79s-15.6 2.36-24.78 10.55c-9.18 8.19-8.26 23.39-8.26 23.39ZM515.91 253.58s9.21-14.3 21.7-20.2c11.06-4.46 26.2 3.82 26.2 3.82s-1.83 11.28-18.74 17.65c-11.26 4.24-22.71 1.42-29.16-1.27ZM483.53 277.2s5.9-23.98-5.15-33.44c-11.05-9.46-15.36-11.68-15.36-11.68s-4.39 18.55.46 28.58c4.85 10.01 20.05 16.54 20.05 16.54ZM503.86 293.98s14.59-14.01 25.52-14.02c10.93-.01 22.24 4.87 22.24 4.87s-6.85 13.98-23.8 14.4c-16.95.42-23.96-5.25-23.96-5.25ZM473.11 317.48s-2.97-18.57-16.88-22.26c-11.84-2.92-16.92-.19-16.92-.19s.57 9.08 7.54 16.69c6.98 7.61 26.26 5.76 26.26 5.76ZM493.39 328.42s2.89-10.78 12.04-13.57c9.45-2.73 17.56 2.14 17.56 2.14s-1.19 11.26-11.78 13.84c-10.6 2.59-17.82-2.41-17.82-2.41ZM499.96 234.36s6.21-17.63 2.32-26.16c-3.89-8.53-12.44-12.32-12.44-12.32s-6.64 9.85-4.24 19.34c2.4 9.47 14.36 19.14 14.36 19.14Z"/><path stroke="#000" stroke-width="2.31" d="M228.84 214.64s24.07 19.34 45.53 51.71c21.46 32.37 29.99 73.6 29.99 73.6"/><path stroke="#000" stroke-width="2.31" d="M247.6 253.6s14.46.04 21.07 4.51c-2.21-6.51-11.68-29.6-11.68-29.6M267.9 288.98s13.32-1.85 19.67 1.34c.81-8.04-2.19-27.41-2.19-27.41M289.64 317.76s6.51 1.52 9.81 3.85c2.17-7.48 9.43-22.45 9.43-22.45"/><path fill="#00759F" fill-rule="nonzero" d="M231.55 216.29s-16.24 4.59-26.75-4.31c-10.51-8.9-14.96-18.13-14.96-18.13s15.59-2.44 26.81 2.61c11.21 5.06 14.9 19.83 14.9 19.83ZM247.6 253.6s-13.09-10.87-26.77-12.74c-11.88-.93-23.84 11.52-23.84 11.52s5.14 10.2 23.18 11.2c12.01.66 22.08-5.47 27.43-9.98ZM285.57 266.4s-12.83-21.1-5.14-33.44c7.69-12.34 11.14-15.76 11.14-15.76s9.76 16.38 8.16 27.39c-1.62 11.01-14.16 21.81-14.16 21.81ZM271.24 288.51s-18.13-8.97-28.55-5.7c-10.43 3.27-19.75 11.33-19.75 11.33s10.73 11.28 27.02 6.58c16.29-4.7 21.28-12.21 21.28-12.21ZM307.62 301.68s-2.75-18.6 9.41-26.3c10.42-6.34 16.08-5.26 16.08-5.26s2.19 8.83-2.17 18.19c-4.37 9.34-23.32 13.37-23.32 13.37ZM291.58 318.21s-6-9.41-15.56-9.33c-9.84.24-16.1 7.32-16.1 7.32s4.52 10.38 15.39 9.66c10.87-.71 16.27-7.65 16.27-7.65ZM257.03 230.47s-11.22-14.94-10.07-24.25c1.15-9.31 8.16-15.49 8.16-15.49s9.29 7.4 9.85 17.17c.56 9.76-7.94 22.57-7.94 22.57Z"/><g fill-rule="nonzero"><path fill="url(#j)" d="M126.47 160.11s-36 23.1-68.36 16.28C25.75 169.58.12 152.7.12 152.7s26.13-20.55 46.68-23.4c20.54-2.85 45 12.84 44.42 11.08-.58-1.76-30.89-22.18-39.04-39.81-8.14-17.63-11.63-54.84-11.63-54.84s32.11 10.45 43.79 23.4 28.23 43.99 28.23 43.99-13.54-27.48-10.39-55.4C105.34 29.81 128.02.07 128.02.07S149.56 25.84 150.84 58c1.29 32.16-12.83 58.62-12.83 58.62s21.48-31.13 38.29-40.33c16.82-9.2 47.06-2.52 47.06-2.52s-15.28 37.14-33.05 49.15c-17.76 12.02-38.35 16.42-38.35 16.42s27.29-9.19 47.11-4.07c19.81 5.12 41.33 22.57 41.33 22.57s-36.21 17.93-64.35 14.3c-28.14-3.62-49.58-12.03-49.58-12.03Z" transform="translate(361 304)"/><path fill="url(#k)" d="M160.35 137.03c-5.08 1.22-8.38 2.32-8.38 2.32s3.31-.72 8.38-2.32Z" transform="translate(361 304)"/><path fill="url(#l)" d="M53.74 64.66s27.42 61.86 69.46 85.26c-7.56-8.04-24.6-20.37-38.86-40.75-14.26-20.39-30.6-44.51-30.6-44.51Z" transform="translate(361 304)"/><path fill="url(#m)" d="M123.33 152.88s-62.06 3.72-87.39 1.33c-18.65-1.3-27.45-2.22-27.45-2.22s15.73 5.6 55.33 6.64c39.6 1.04 59.51-5.75 59.51-5.75Z" transform="translate(361 304)"/></g><g fill-rule="nonzero"><path fill="url(#n)" d="M132.06 137.07s39.62-16.1 52.71-46.47c13.09-30.37 14.07-61.04 14.07-61.04s-31.86 9.5-46.03 24.65c-14.18 15.14-15.45 44.17-16.56 42.69-1.11-1.49-.31-38.02-10.02-54.85C116.52 25.23 88.13.93 88.13.93s-9.97 32.26-6.12 49.27c3.85 17.01 19.67 48.43 19.67 48.43S87.03 71.72 62.4 58.2C37.77 44.69.39 46.08.39 46.08s8.64 32.46 34.18 52.05c25.53 19.59 55.3 23.32 55.3 23.32s-37.82-.4-55.03 8.03-29.19 37-29.19 37 39.16 8.92 59.22 1.33c20.06-7.58 35.53-21.87 35.53-21.87s-23.24 17-30.48 36.15c-7.24 19.14-5.38 46.78-5.38 46.78s35.52-19.25 48.79-44.34c13.25-25.09 18.73-47.46 18.73-47.46Z" transform="translate(144 240)"/><path fill="url(#o)" d="M93.67 151.45c3.93-3.44 6.72-5.51 6.72-5.51s-2.48 2.29-6.72 5.51Z" transform="translate(144 240)"/></g><g fill-rule="nonzero"><path fill="url(#p)" d="M114.04 159.55s37.92 19.78 69.54 10.09c31.62-9.69 55.63-28.8 55.63-28.8s-27.87-18.13-48.59-19.12c-20.72-1-43.67 16.83-43.25 15.02.42-1.81 28.78-24.85 35.31-43.15 6.53-18.29 6.67-55.67 6.67-55.67s-31.04 13.29-41.51 27.24c-10.48 13.95-24.17 46.35-24.17 46.35s11.02-28.59 5.38-56.11C123.4 27.88 98.14.29 98.14.29S79 27.89 80.6 60.03c1.6 32.14 18.03 57.24 18.03 57.24S74.45 88.19 56.88 80.53c-17.57-7.66-47.1 1.71-47.1 1.71s18.55 35.62 37.32 45.99c18.77 10.38 39.67 12.92 39.67 12.92s-28.01-6.7-47.28.17C20.22 148.2.35 167.51.35 167.51s37.67 14.61 65.38 8.47c27.72-6.12 48.31-16.43 48.31-16.43Z" transform="translate(196 303)"/><path fill="#00759F" d="M294.14 303.3s25.26 27.59 30.91 55.11c5.64 27.52-5.38 56.11-5.38 56.11s13.69-32.4 24.17-46.35c10.47-13.95 41.51-27.24 41.51-27.24s-.14 37.37-6.67 55.67c-6.53 18.29-34.89 41.34-35.31 43.15-.42 1.81 22.54-16.02 43.25-15.02 20.72 1 48.59 19.12 48.59 19.12s-24.02 19.11-55.63 28.8c-31.62 9.69-69.54-10.09-69.54-10.09s-.36.18-1.02.49c3.22-70.17-14.88-159.75-14.88-159.75Z" opacity=".3"/><path fill="url(#q)" d="M78.23 139.6c5.17.76 8.55 1.56 8.55 1.56s-3.36-.42-8.55-1.56Z" transform="translate(196 303)"/><path fill="url(#r)" d="M177.92 57.98s-21.77 64.07-61.54 91.14c6.81-8.68 22.67-22.49 35.05-44.07 12.39-21.59 26.49-47.07 26.49-47.07Z" transform="translate(196 303)"/><path fill="url(#s)" d="M116.52 152.07s62.14-1.86 87.16-6.51c18.46-2.97 27.14-4.67 27.14-4.67s-15.16 6.99-54.51 11.57c-39.34 4.59-59.79-.39-59.79-.39Z" transform="translate(196 303)"/><path fill="url(#t)" d="M110.75 150.67s-23.45-24.33-45.27-40.26C43.67 94.48 18.81 85.68 18.81 85.68s32.66 19.56 44.9 28.36c12.24 8.79 47.04 36.63 47.04 36.63Z" transform="translate(196 303)"/></g><g fill-rule="nonzero"><path fill="#000" d="M304.19 161.22s4.23 20.91-17.37 32.35c-7.23 2.5-20.69 2.74-28.18-4.41 10.98 5.34 20.77 6.23 28 3.41 4.1-3.42 15.9-7.9 17.55-31.35Z"/><path fill="#000" d="M292.62 163.38s4.72 17.9-6.08 29.74c-10.72-2.37-19.61-10.56-22.2-16.38 3.47 4 12.96 13.44 21.7 15.56 4.09-6.9 8.14-15.6 6.58-28.92Z"/><path fill="#000" d="M285.29 173.25s5.46 12.42 1.62 19.43c-2.04-1.19-11.9-10.12-14.69-23.75 4.09 7.61 5.53 14.41 14.08 21.77 1.09-4.66-.65-15.59-1.01-17.45Z"/><path fill="url(#u)" d="M52.45 11.77s3.13-1.84 3.48-6.55c.35-4.71-2.44-6.39-3.91-4.38-.63-1.42-1.27-.72-1.28.21-.88-.89-2.62-.94-2.84 1.12-.22 2.04 1.57 9.17 4.55 9.6Z" transform="translate(252 154)"/><path fill="url(#v)" d="M40.92 13.05s3.58-2.25 1.94-7.51c-1.02-2.71-2.41-2.92-2.73-2.2-.4-.32-2.06-.57-2.15.86-.83-.44-2.27.74-1.88 2.42.37 1.66 1.3 5.61 4.82 6.43Z" transform="translate(252 154)"/><path fill="url(#w)" d="M34.31 23.54s2.84-1.89 1.19-6.4c-1.06-3.06-2.55-2.03-2.57-1.39-.57-.86-1.54-.7-1.65.07-.83-.4-1.87.79-1.48 2.45.37 1.66 1.61 5.05 4.51 5.27Z" transform="translate(252 154)"/><path fill="url(#x)" d="M21.83 19.18s2.74-1.31 1.98-5.53c-.75-4.21-3.07-6.88-3.93-5.19-.84-.64-2.27-1.87-3.55.56-1.54.36-1.29 2.75-.61 4.5.68 1.76 3.18 5.78 6.11 5.66Z" transform="translate(252 154)"/><path fill="url(#y)" d="M11.65 38.13s.81-2.92-2.85-5.13c-3.67-2.21-7.2-2.22-6.49-.46-1.04.21-2.9.48-1.92 3.05-.74 1.4 1.22 2.78 2.99 3.42 1.77.65 6.45 1.41 8.27-.88Z" transform="translate(252 154)"/><path fill="url(#z)" d="M14.68 25.57s1.32-1.34-.32-4.22c-1.06-2.16-4.38-5.8-4.9-3.01-1.54.03-3.3-.38-2.57 2.75-1.4.82-.16 2.3 1.27 3.74 1.44 1.44 5.14 1.93 6.52.74Z" transform="translate(252 154)"/><path fill="#000" d="M287.51 191.35s.06.11.17.33c1.9 3.66 18.85 36.92 12.04 47.23.67-5.25-.15-11.82-4.81-25.06-4.65-13.24-8.88-21.55-8.88-21.55l1.54-.83"/></g><g fill-rule="nonzero"><path fill="#000" d="M453.76 168.44s-4.23 20.91 17.37 32.35c7.23 2.5 20.69 2.74 28.18-4.41-10.98 5.34-20.77 6.23-28 3.41-4.1-3.42-15.9-7.9-17.55-31.35Z"/><path fill="#000" d="M465.33 170.6s-4.72 17.89 6.08 29.74c10.72-2.37 19.61-10.56 22.2-16.38-3.47 4-12.96 13.44-21.7 15.56-4.09-6.9-8.15-15.6-6.58-28.92Z"/><path fill="#000" d="M472.65 180.47s-5.46 12.42-1.62 19.43c2.04-1.19 11.9-10.12 14.69-23.75-4.09 7.61-5.53 14.41-14.08 21.77-1.09-4.66.65-15.59 1.01-17.45Z"/><path fill="url(#A)" d="M4.5 11.99s-3.13-1.84-3.48-6.55C.67.73 3.46-.95 4.93 1.06c.63-1.42 1.27-.72 1.28.21.88-.89 2.62-.94 2.84 1.12.22 2.04-1.57 9.17-4.55 9.6Z" transform="translate(449 161)"/><path fill="url(#B)" d="M16.03 13.26s-3.58-2.25-1.94-7.51c1.02-2.71 2.41-2.92 2.73-2.2.4-.32 2.07-.57 2.15.86.83-.44 2.27.74 1.88 2.42-.38 1.67-1.3 5.62-4.82 6.43Z" transform="translate(449 161)"/><path fill="url(#C)" d="M22.64 23.76s-2.84-1.89-1.19-6.4c1.06-3.06 2.55-2.03 2.57-1.39.57-.86 1.54-.7 1.65.07.83-.4 1.87.79 1.48 2.45-.38 1.66-1.61 5.05-4.51 5.27Z" transform="translate(449 161)"/><path fill="url(#D)" d="M35.12 19.39s-2.74-1.31-1.98-5.53c.75-4.21 3.07-6.88 3.93-5.19.84-.64 2.27-1.87 3.55.56 1.54.36 1.29 2.75.61 4.5-.68 1.77-3.18 5.79-6.11 5.66Z" transform="translate(449 161)"/><path fill="url(#E)" d="M45.29 38.35s-.81-2.92 2.85-5.13c3.67-2.21 7.2-2.22 6.49-.46 1.04.21 2.9.48 1.92 3.05.74 1.4-1.22 2.78-2.99 3.42-1.77.64-6.44 1.41-8.27-.88Z" transform="translate(449 161)"/><path fill="url(#F)" d="M42.26 25.78s-1.32-1.34.32-4.22c1.06-2.16 4.38-5.8 4.9-3.01 1.54.03 3.3-.38 2.57 2.75 1.4.82.15 2.3-1.27 3.74-1.43 1.45-5.13 1.94-6.52.74Z" transform="translate(449 161)"/><path fill="#000" d="M470.44 198.57s-.06.11-.17.33c-1.9 3.66-18.85 36.92-12.04 47.23-.67-5.25.15-11.82 4.81-25.06 4.65-13.24 8.88-21.55 8.88-21.55l-1.54-.83"/></g><path fill="url(#G)" d="M38.31 9.77S-9.81 21.58 2.02 67.72C8.2 91.83 53.45 97.41 116.9 97.41c1.49 0 2.96-.01 4.44-.02 1.36.46 2.72.9 4.12 1.31 74.57 22.07 176.36.04 268.43-27.67 72.08-21.69 235.28-17.8 286.22-17.8 176.16 0 81.44-43.46 81.44-43.46H38.31Z" transform="translate(0 476)"/><path fill="#000640" fill-rule="nonzero" d="M620.49 508.14H183.48v-32.12h404.89z" opacity=".5"/><path fill="#000640" d="M328.47 544.22c0 9.68-71.1 17.52-158.81 17.52-87.71 0-158.81-7.84-158.81-17.52 0-9.67 71.1-17.52 158.81-17.52 87.7 0 158.81 7.84 158.81 17.52Z" opacity=".5"/><path fill="url(#H)" fill-rule="nonzero" d="M414.86 250.99c0 5.55-4.5 10.06-10.06 10.06H10.33c-5.55 0-10.06-4.5-10.06-10.06V10.53C.27 4.98 4.77.47 10.33.47H404.8c5.55 0 10.06 4.5 10.06 10.06v240.46Z" transform="translate(186 216)"/><path fill="url(#I)" d="M.27 13.3h414.59v31.87H.27z" transform="translate(186 216)"/><path fill="#FFF" fill-rule="nonzero" d="M547.66 245.52c0 4.26-3.46 7.72-7.72 7.72H264.03c-4.26 0-7.72-3.46-7.72-7.72s3.46-7.72 7.72-7.72h275.91c4.26 0 7.72 3.45 7.72 7.72Z"/><g fill-rule="nonzero"><path fill="url(#J)" d="M106.81 211.14c0 1.62-1.57 2.94-3.52 2.94-1.94 0-3.52-1.31-3.52-2.94V80.5c0-1.62 1.57-2.94 3.52-2.94 1.94 0 3.52 1.31 3.52 2.94v130.64Z" transform="translate(261 172)"/><path fill="url(#K)" d="M104.5 218.77s-3.63-37.86-40.46-51.35C27.21 153.93.24 191.8.24 191.8s21.78 11.41 38.38 12.97c16.61 1.55 57.07 6.22 65.88 14Z" transform="translate(261 172)"/><path fill="url(#L)" d="M102.68 218.77s3.63-37.86 40.46-51.35c36.83-13.49 63.8 24.38 63.8 24.38s-21.78 11.41-38.38 12.97c-16.61 1.55-57.06 6.22-65.88 14Z" transform="translate(261 172)"/><path fill="url(#M)" d="m10.95 32.55 14.92 83.62s14.23 7.29 38.17 7.29c29.84 0 39.9-7.29 39.9-7.29l17.35-83.27-110.34-.35Z" transform="translate(302 380)"/><path fill="url(#N)" d="M130.65 24.83c0 4.45-3.61 8.07-8.07 8.07H8.26C3.8 32.9.19 29.29.19 24.83V8.7C.19 4.24 3.8.63 8.26.63h114.33c4.46 0 8.07 3.61 8.07 8.07v16.13h-.01Z" transform="translate(302 380)"/><g transform="translate(322 172)"><circle cx="42.3" cy="41.82" r="41.6" fill="#A600A9"/><path fill="url(#O)" d="m17.11 46.14 8.48-7.36 7.68 8.64 26.55-27.83 7.68 7.68S32.64 64.69 32.8 64.05c.14-.64-15.69-17.91-15.69-17.91Z"/></g><path fill="url(#P)" d="M110.35 175.38s-6.4-39.29 21.61-53.68c28.02-14.39 47.5.1 47.5.1s-17.89 13.94-30.81 32.23c-9.22 13.06-28.13 18.23-38.3 21.35Z" transform="translate(261 172)"/><path fill="url(#Q)" d="M96.21 175.38s6.4-39.29-21.61-53.68c-28.02-14.39-47.5.1-47.5.1s17.89 13.94 30.81 32.23c9.21 13.06 28.13 18.23 38.3 21.35Z" transform="translate(261 172)"/><path fill="url(#R)" d="M96.5 123.9s4.61-28.32-15.57-38.69c-20.2-10.37-34.23.08-34.23.08s12.89 10.05 22.2 23.23c6.64 9.4 20.27 13.13 27.6 15.38Z" transform="translate(261 172)"/><path fill="url(#S)" d="M109.81 124.99s-4.92-30.19 16.6-41.24c21.53-11.06 36.49.08 36.49.08s-13.74 10.71-23.67 24.76c-7.07 10.03-21.61 14-29.42 16.4Z" transform="translate(261 172)"/></g><g fill-rule="nonzero"><path fill="url(#T)" d="M9.77 11.53s-.72 8.65 3.12 12.49 10.34-3.84-3.12-12.49Z" transform="translate(272 259)"/><path fill="#FFF" d="M283.57 292.83s-3.84 7.78-1.68 12.77c2.17 4.98 11.02.21 1.68-12.77ZM300.65 305.81s-5.53 11.19-2.41 18.36c3.11 7.17 15.85.31 2.41-18.36Z"/><path fill="url(#U)" d="M2.72.97s-2.84 5.76-1.24 9.45c1.6 3.68 8.15.15 1.24-9.45Z" transform="translate(272 259)"/><path fill="url(#V)" d="m97.06 65.51 7.33-3.72-1.92-8.53s-.72-3.72-.72-4.69c0-.97-1.68-2.88-2.4-2.52-.72.36 0 3.48-.48 4.93-.48 1.44-3.84 4.93-3.84 4.93" transform="translate(79 190)"/><g fill="#000"><path d="M235.83 235.09c-.33-.25-36.86-8.01-36.86-8.01l-9.49 39.14s-.52 4.84 4.48 6.53c5 1.69 26.24 5.37 26.24 5.37s5.21.59 7.5-5.62c2.31-6.22 8.13-37.41 8.13-37.41Z"/><path d="m230.6 261.08 34.03-15.01 2.28 6.12-39.2 20.31s2.87-9.81 2.89-11.42ZM264.63 246.07l1.88-4.49s2.81 2.23 3.92 5.48c1.89 5.55.19 8.67.19 8.67l-3.71-3.54-2.28-6.12ZM217.65 230.75l2.59-11.86s1.88 4.15 2.59 7.51c.7 3.36.33 5.85.33 5.85l-5.51-1.5Z"/><path d="M220.24 218.9s-7.8.06-13.19 2-8.08 6.18-8.08 6.18l18.68 3.67 2.59-11.85ZM198.97 227.08s-10.88-2.29-15.63 4.54c-4.76 6.83-3.58 20.5-1.18 23.68 2.39 3.19 8.7 8.1 8.7 8.1l1.26-6.74s-6.83-4.76-7.54-7.63.27-12.15 2.69-15.06c2.41-2.91 10.59-1.39 10.59-1.39l1.11-5.5Z"/></g><g fill="#000"><path d="M142.04 420.35h62.69l-2.71-6.01h-62.45z"/><path d="M259.66 550.31h-7.43L198.9 413.48h8.13zM192.65 550.31h-7.42l-53.79-136.83h8.13z"/><path d="M181.64 522.4h62.69l-2.71-6.01h-62.46zM168.44 488.23h62.69l-2.71-6.01h-62.46zM155.12 454.76h62.69l-2.71-6.01h-62.45z"/></g><g fill="#0000B8"><path d="M198.04 420.35h-62.69l2.71-6.01h62.46z"/><path d="M79.14 554.22h7.43l54.62-140.74h-8.13zM145.96 554.22h7.42l55.27-140.74h-8.13z"/><path d="M158.45 522.4H95.76l2.71-6.01h62.45zM171.65 488.23h-62.69l2.71-6.01h62.45zM184.96 454.76h-62.69l2.71-6.01h62.46z"/></g><path fill="url(#W)" d="M79.6 69.72s4.5-3.06 5.59-4.14c1.08-1.08 6.49-6.67 7.21-4.87.72 1.8-1.8 5.59-1.8 5.59s5.59-1.44 7.93-2.16c2.34-.72 4.87.9 4.87 3.24 0 2.34-5.41 6.67-9.37 7.75-3.96 1.08-13.15 1.8-13.15 1.8" transform="translate(123 190)"/><path fill="url(#X)" d="M12.57 40.89S-3.65 83.6 1.94 89.36c5.59 5.77 45.95-7.21 45.95-7.21l7.39-4.14-7.75-12.07-34.96-25.05Z" transform="translate(123 190)"/><path fill="url(#Y)" d="m23.66 37.74 2.3-4.77s4.42 1.41 7.95 1.59c3.54.18 4.95.88 4.95.88l2.83 4.6s-10.95 2.12-18.03-2.3Z" transform="translate(123 190)"/><path fill="url(#Z)" d="M23.66 37.74s-5.83-.53-8.84 1.24c-3 1.77-6.19 12.9-7.25 20.5-1.06 7.6-2.83 37.12-3 43.13-.18 6.01 0 19.62 0 19.62s15.91 3.36 26.87 3c10.96-.35 19.62-9.01 19.62-9.01s-.88-12.55-2.3-16.62c-1.41-4.07-3.71-11.49-2.3-17.68 1.41-6.19 5.66-24.04 4.6-30.76-1.06-6.72 0-7.95-3.71-9.19-3.71-1.24-5.66-1.94-5.66-1.94s-9.36 2.13-18.03-2.29Z" transform="translate(123 190)"/><path fill="url(#aa)" d="M36.96 47.82s-2.11 7.18-.33 17.22c1.78 10.04 4.91 20.54 6.55 22.67 1.64 2.13 6.27 3.9 9.6 3.04 3.33-.86 29.19-13.22 29.19-13.22s1.15-2.33.1-5.23c-1.05-2.9-2.99-3.75-2.99-3.75l-22.61 6.71s-2.73-22.29-3.95-26.55c-1.22-4.26-3.48-6.15-5.68-6.73-2.19-.57-8.12 1.22-9.88 5.84Z" transform="translate(123 190)"/><path fill="url(#ab)" d="M50.2 117.02c-2.45 2.15-9.84 7.93-18.76 8.22-10.96.35-26.87-3-26.87-3s1.94 12.9 3.54 18.03c1.59 5.13 2.65 11.67 2.83 13.79.18 2.12-3 37.65-3.54 47.73-.53 10.08.83 42.72.83 42.72h9.9s3.59-39.36 6.78-61.1c3.18-21.74 4.77-33.41 4.77-33.41l2.3 3.89s1.06 38.18 1.94 55.15c.88 16.97 2.77 35.65 2.77 35.65l10.43.53s4.12-64.64 4.65-83.2c.5-17.52-1.36-42.24-1.57-45Z" transform="translate(123 190)"/><path fill="#4B00A9" d="M131.82 434.61s-1.53 8.6-1.53 9.78c0 1.18.47 5.19.47 5.19s7.19.24 12.14.12 10.72-1.3 10.72-1.3.94-3.18-.35-4.95c-1.3-1.77-6.36-2.12-7.9-3.89-1.53-1.77-4.24-5.07-4.24-5.07s-7.9.59-9.31.12ZM160.45 434.61s-1.53 8.6-1.53 9.78c0 1.18.47 5.19.47 5.19s7.19.24 12.14.12 10.72-1.3 10.72-1.3.94-3.18-.35-4.95c-1.3-1.77-6.36-2.12-7.9-3.89-1.53-1.77-4.24-5.07-4.24-5.07s-7.89.59-9.31.12Z"/><path fill="#000" d="M149.02 222.38s-1.37-17.74.12-22.39c1.77-5.54 5.3-9.43 10.84-9.66 5.54-.24 14.73.24 17.2 3.3 2.47 3.06 1.18 7.54.94 8.96-.24 1.41-2.59 2.95-2.59 2.95s-3.54-.94-4.6-.12c-1.06.82-2.71 4.48-2.71 4.48s-1.2-3.49-2.71-2.83c-3.77 1.65-2.59 6.6-2 7.66.75 1.35 0 .35 0 .35l-8.37 9.07c.01-.01-3.41.35-6.12-1.77Z"/><path fill="url(#ac)" d="M47.94 15.41c-1.06.82-2.71 4.48-2.71 4.48s-1.2-3.49-2.71-2.83c-3.77 1.65-2.59 6.6-2 7.66.75 1.35 0 .35 0 .35l-8.37 9.07 6.72 1.3.24-1.65s2.59.94 4.12.94c1.53 0 3.3-3.18 5.3-6.6 2-3.42 4.01-12.61 4.01-12.61s-3.54-.94-4.6-.11Z" transform="translate(123 190)"/><path fill="url(#ad)" d="M106.91 50.5s-4.93 1.32-5.89 2.52-1.44 4.44-.24 6.25c1.2 1.8 1.2 3.96 3.6 3.36 2.4-.6 4.69-2.4 4.69-5.29s-.72-6.12-2.16-6.84Z" transform="translate(79 190)"/></g><g fill-rule="nonzero"><path fill="url(#ae)" d="m185.16 85.12-20.43 7.1s-1.34-4.44-3.44-5.22c-2.1-.77-6.19-.99-6.19-.99s.22-3.65 4.53-3.98c4.31-.33 7.95 1.22 7.95 1.22s10.72-4.53 13.59-6.08c2.87-1.55 3.42-2.43 3.42-2.43l.57 10.38Z" transform="translate(376 165)"/><path fill="#68C1FF" d="M465.95 308.39s-20.74.19-42.17 16.94c-31.35 24.51-47.21 60.91-47.21 60.91l40.36.36s14.78-54.42 54.59-70.98" opacity=".7"/><path fill="url(#af)" d="M23.16 30.64c.14-.41 26.93-28.58 26.93-28.58l31.19 28.03s3.3 3.85 0 8.24c-3.3 4.4-19.37 20.06-19.37 20.06s-4.12 3.57-9.76-.41C46.52 54 23.16 30.64 23.16 30.64Z" transform="translate(465 252)"/><path fill="url(#ag)" d="M42.94 49.87 4.88 57.02l1.65 6.6 45.62-5.63c0-.01-8.24-6.74-9.21-8.12Z" transform="translate(465 252)"/><path fill="url(#ah)" d="M4.88 57.02.62 54.27s-1.1 3.57-.14 7.01c1.64 5.88 4.95 7.56 4.95 7.56l1.1-5.22-1.65-6.6Z" transform="translate(465 252)"/><path fill="#000" d="m501.21 268.21-9.21-8.66s.82 4.67 2.2 7.97c1.37 3.3 3.16 5.22 3.16 5.22l3.85-4.53Z"/><path fill="url(#ai)" d="M27 7.55s6.73-4.53 12.5-6.05c5.77-1.51 10.58.55 10.58.55L36.2 16.2 27 7.55Z" transform="translate(465 252)"/><path fill="url(#aj)" d="M139.09 6.06s7.99-8.37 16.1-5.31c8.11 3.06 15.14 15.5 14.96 19.64-.18 4.14-2.7 12.07-2.7 12.07l-5.05-5.05s3.06-8.11 1.98-10.99c-1.08-2.88-7.39-10.27-11.17-11.35-3.78-1.08-9.91 5.05-9.91 5.05l-4.21-4.06Z" transform="translate(376 248)"/><path fill="url(#ak)" d="M163.05 94.1c.37-.15 2.87-2.32 2.87-4.09s0-2.76-3.09-3.09c-3.09-.33-8.06 1.88-8.06 1.88s-.11.88 1.1 1.77c1.21.88 3.76 4.96 7.18 3.53Z" transform="translate(376 165)"/><path fill="url(#al)" d="m100.42 79.49-34.69 9.72s-2.43 11.78-3.61 23.71c-1.18 11.93.15 24.75 1.03 29.9.88 5.16 2.36 11.49 2.36 11.49s-.22 5.93 1.11 11.12c1.33 5.19 2.43 12.37 2.43 18.34 0 5.97-3.98 27.95-3.98 27.95L78 214.7s7.73-20 8.62-29.5c.88-9.5-2.65-20.11-1.88-23.53.77-3.42 14.91-33.14 18.34-41.87 3.42-8.73 5.85-18.67 2.54-28.28-3.32-9.6-5.2-12.03-5.2-12.03Z" transform="translate(512 165)"/><path fill="#000" d="M590 379.71s.99 5.96 1.33 9.72c.33 3.76.66 6.63.66 6.63s-7.84 3.76-20.88 3.87c-13.04.11-13.26-1.21-13.26-1.21s-1.88-3.98.44-5.08 8.06-3.2 11.05-4.97c2.98-1.77 8.84-6.96 9.72-7.95.88-.99 2.21-2.98 2.21-2.98l8.73 1.97Z"/><path fill="url(#am)" d="M67.06 215.7c.88-.99 2.21-2.98 2.21-2.98l8.73 1.99s.57 3.44.99 6.74c-2.97 1.66-7.51 3.11-11.16 2.43-3.29-.62-4.84-2.33-4.96-4.39 2-1.68 3.74-3.28 4.19-3.79Z" transform="translate(512 165)"/><path fill="url(#an)" d="M76.34 214.04s-2.54 15.14-2.87 16.57c-.33 1.44-2.87 3.76-4.64 3.53-1.77-.22-2.65-1.33-4.31-2.87-1.66-1.55-4.31-3.43-4.31-3.43s3.76-3.65 6.08-15.8l10.05 2Z" transform="translate(512 165)"/><path fill="#000" d="m585.47 394.51 1.55 12.59s-18.37 7.46-25.85 6.74c-6.85-.66-9.39-1.99-9.06-3.98.33-1.99 2.32-3.2 5.41-4.75 3.09-1.55 8.07-4.86 9.5-6.74 1.44-1.88 5.19-5.52 5.19-5.52s2.21 1.88 4.86 3.87c2.65 1.99 3.79 3.15 5.08 2.21 2.43-1.77 3.32-4.42 3.32-4.42Z"/><path fill="url(#ao)" d="M49.16 248.84c-6.85-.66-9.39-1.99-9.06-3.98.16-.94.69-1.71 1.53-2.42 2.91 1.73 6.9 2.34 15.26 1.1 7.79-1.16 14.65-4.25 17.59-5.72l.53 4.28s-18.36 7.47-25.85 6.74Z" transform="translate(512 165)"/><path fill="#650039" d="M574.12 277.92c1.18-11.93 3.61-23.71 3.61-23.71l5.75-1.61c-.59 3.79-1.51 10.92-.88 15.75.88 6.85 3.09 9.94 3.09 9.94l-8.18 40.21s-.06.01-.18.01c-.42-1.86-1.48-6.64-2.17-10.69-.89-5.15-2.21-17.97-1.04-29.9Z"/><path fill="url(#ap)" d="M100.42 79.49s-5.01-8.4-10.02-18.27-11.49-20.18-19.74-25.48c-8.25-5.3-13.99-7.36-22.98-7.22-8.99.15-10.61 1.18-10.61 1.18l-2.95 12.96S46.05 54.3 53.56 63.87c7.51 9.57 12.15 25.34 12.15 25.34l34.71-9.72Z" transform="translate(512 165)"/><path fill="url(#aq)" d="M59.03 44.87s1.18 5.3 2.36 15.32.59 11.64.59 11.64-2.65 1.33-8.54 1.77l-5.89.44s-1.92-10.75-3.98-16.06c-2.06-5.3-6.48-10.46-6.04-16.5" transform="translate(512 165)"/><path fill="url(#ar)" d="M61.65 71.97c.43-.12.22 18.23-.44 19.89-.66 1.66-7.95 10.5-16.35 17.23-8.4 6.74-10.94 7.95-10.94 7.95s-1.66 2.54-7.84 7.29c-6.19 4.75-10.05 2.54-10.05 2.54s-3.43-3.2-3.31-4.09c.11-.88 7.84-5.41 7.84-5.41s-6.41 2.43-6.96 2.32c-.55-.11-.11-1.99 3.76-3.87 3.87-1.88 7.18-3.42 9.61-3.87 2.43-.44 4.09-.44 4.09-.44l18.23-21.76-.55-16.02c-.02.01 5.84.23 12.91-1.76Z" transform="translate(512 165)"/><path fill="url(#as)" d="M37.01 30.07s-3.68.07-5.82-.66c-2.14-.74-3.61-2.95-3.61-2.95s2.13-1.47 1.62-4.35c-.52-2.87-2.52-5.45-4.49-5.08-3.17.59-3.83 5.08-3.83 5.08L3.2 21.23s.66 3.61 1.84 5.82c1.18 2.21 3.46 3.46 3.46 3.46s-.66 7-.29 7.44c.37.44 3.98.22 3.98.22s.15 1.18.37 1.62c.22.44 1.25.22 1.25.22s-.37.81.37 1.03c.74.22 2.06 0 2.43.59.37.59 2.43 2.8 3.83 1.91 1.4-.88 3.9-5.01 5.01-5.01 1.11 0 8.54 3.83 8.54 3.83l3.31-12.3" transform="translate(512 165)"/><path fill="#000" d="M517.19 172.31c5.45-6.85 14.44-8.32 20.92-5.6 6.48 2.72 11.93 13.55 13.48 17.23 1.55 3.68 3.53 2.43 5.82 3.83 2.28 1.4 3.76 5.74 3.76 5.74s-4.05.08-5.82.15c-1.23.05-5.74.88-5.74.88l-.59.52s-3.68.07-5.82-.66c-2.14-.74-3.61-2.95-3.61-2.95s2.13-1.47 1.62-4.35c-.52-2.87-2.52-5.45-4.49-5.08-3.17.59-3.83 5.08-3.83 5.08l-17.68-.88s.02.11.06.28c-.08-.04-.13-.06-.13-.06l-1.99-.22c-.01.01-1.41-7.06 4.04-13.91ZM522.55 203.22c.87-.01 1.64-.05 1.64-.05s.15 1.18.37 1.62c.22.44 1.25.22 1.25.22s-.37.81.37 1.03c.74.22 2.06 0 2.43.59.37.59 2.43 2.8 3.83 1.91 1.33-.84 3.67-4.63 4.84-4.97.06-.01.11-.02.16-.03 1.11 0 8.54 3.83 8.54 3.83l4.57 4.57s.44 1.33 3.53 7.95c3.09 6.63 4.12 13.11 4.12 13.55 0 .44-6.04 2.95-10.02 1.33-3.98-1.62-8.25-1.62-12.96-1.62-4.71 0-8.25-3.98-8.25-3.98s-.44-5.45-.29-11.19c.15-5.17-3.41-13.19-4.13-14.76Z"/></g><g fill="#000" fill-rule="nonzero"><path d="M522.36 372.95h62.69l-2.71-6.01h-62.45z"/><path d="M639.98 502.9h-7.43l-53.33-136.82h8.13zM572.98 502.9h-7.43l-53.79-136.82h8.13z"/><path d="M561.96 475h62.69l-2.71-6.01h-62.46zM548.76 440.82h62.69l-2.71-6.01h-62.46zM535.44 407.36h62.69l-2.71-6.01h-62.45z"/></g><g fill="#A600A9" fill-rule="nonzero"><path d="M575.62 373.08h-62.69l2.71-6.01h62.46z"/><path d="M456.72 506.94h7.42l54.62-140.73h-8.13zM523.54 506.94h7.42l55.27-140.73h-8.13z"/><path d="M536.03 475.13h-62.69l2.71-6.01h62.45zM549.23 440.95h-62.7l2.71-6.01h62.46zM562.54 407.49h-62.69l2.71-6.01h62.46z"/></g><g fill="#FFF" fill-rule="nonzero" transform="translate(90 80)"><circle cx="2.11" cy="74.76" r="1.45"/><circle cx="55.06" cy="54.22" r="1.45"/><circle cx="99.32" cy="64.62" r="1.45"/><circle cx="151.2" cy="31.15" r="1.45"/><circle cx="172.83" cy="80.56" r="1.45"/><circle cx="222.07" cy="2.31" r="1.45"/><circle cx="245.71" cy="55.68" r="1.45"/></g></g></svg>