<svg xmlns="http://www.w3.org/2000/svg" version="1.1" xmlns:xlink="http://www.w3.org/1999/xlink" xmlns:svgjs="http://svgjs.dev/svgjs" viewBox="0 0 1422 800"><g fill="none" stroke-width="0.5" stroke="hsl(202, 58%, 42%)" stroke-linecap="square" stroke-dasharray="72.5 13.5" transform="matrix(1.3,0,0,1.3,-213.30000000000007,-120.00000915527346)" data-darkreader-inline-stroke="" style="--darkreader-inline-stroke:#60abd5;"><line x1="559" y1="400" x2="863" y2="400" transform="rotate(0, 711, 400)" opacity="0.39"></line><line x1="499.5" y1="400" x2="922.5" y2="400" transform="rotate(6, 711, 400)" opacity="0.18"></line><line x1="735" y1="400" x2="687" y2="400" transform="rotate(12, 711, 400)" opacity="0.78"></line><line x1="1127.5" y1="400" x2="294.5" y2="400" transform="rotate(18, 711, 400)" opacity="0.70"></line><line x1="668.5" y1="400" x2="753.5" y2="400" transform="rotate(24, 711, 400)" opacity="0.96"></line><line x1="708" y1="400" x2="714" y2="400" transform="rotate(30, 711, 400)" opacity="0.38"></line><line x1="607.5" y1="400" x2="814.5" y2="400" transform="rotate(36, 711, 400)" opacity="0.49"></line><line x1="740.5" y1="400" x2="681.5" y2="400" transform="rotate(42, 711, 400)" opacity="0.74"></line><line x1="1004" y1="400" x2="418" y2="400" transform="rotate(48, 711, 400)" opacity="0.74"></line><line x1="942" y1="400" x2="480" y2="400" transform="rotate(54, 711, 400)" opacity="0.86"></line><line x1="876.5" y1="400" x2="545.5" y2="400" transform="rotate(60, 711, 400)" opacity="0.74"></line><line x1="847" y1="400" x2="575" y2="400" transform="rotate(66, 711, 400)" opacity="1.00"></line><line x1="1058.5" y1="400" x2="363.5" y2="400" transform="rotate(72, 711, 400)" opacity="0.17"></line><line x1="549.5" y1="400" x2="872.5" y2="400" transform="rotate(78, 711, 400)" opacity="0.91"></line><line x1="850" y1="400" x2="572" y2="400" transform="rotate(84, 711, 400)" opacity="0.50"></line><line x1="670" y1="400" x2="752" y2="400" transform="rotate(90, 711, 400)" opacity="1.00"></line><line x1="482.5" y1="400" x2="939.5" y2="400" transform="rotate(96, 711, 400)" opacity="0.82"></line><line x1="1165" y1="400" x2="257" y2="400" transform="rotate(102, 711, 400)" opacity="0.22"></line><line x1="882.5" y1="400" x2="539.5" y2="400" transform="rotate(108, 711, 400)" opacity="0.75"></line><line x1="965.5" y1="400" x2="456.5" y2="400" transform="rotate(114, 711, 400)" opacity="0.30"></line><line x1="691.5" y1="400" x2="730.5" y2="400" transform="rotate(120, 711, 400)" opacity="0.76"></line><line x1="805" y1="400" x2="617" y2="400" transform="rotate(126, 711, 400)" opacity="0.91"></line><line x1="1077.5" y1="400" x2="344.5" y2="400" transform="rotate(132, 711, 400)" opacity="0.85"></line><line x1="834.5" y1="400" x2="587.5" y2="400" transform="rotate(138, 711, 400)" opacity="0.48"></line><line x1="988.5" y1="400" x2="433.5" y2="400" transform="rotate(144, 711, 400)" opacity="0.24"></line><line x1="1197.5" y1="400" x2="224.5" y2="400" transform="rotate(150, 711, 400)" opacity="0.75"></line><line x1="881" y1="400" x2="541" y2="400" transform="rotate(156, 711, 400)" opacity="0.52"></line><line x1="1046" y1="400" x2="376" y2="400" transform="rotate(162, 711, 400)" opacity="0.66"></line><line x1="939.5" y1="400" x2="482.5" y2="400" transform="rotate(168, 711, 400)" opacity="0.66"></line><line x1="649" y1="400" x2="773" y2="400" transform="rotate(174, 711, 400)" opacity="0.30"></line><line x1="1091.5" y1="400" x2="330.5" y2="400" transform="rotate(180, 711, 400)" opacity="0.15"></line><line x1="794.5" y1="400" x2="627.5" y2="400" transform="rotate(186, 711, 400)" opacity="0.17"></line><line x1="1036" y1="400" x2="386" y2="400" transform="rotate(192, 711, 400)" opacity="0.41"></line><line x1="1062.5" y1="400" x2="359.5" y2="400" transform="rotate(198, 711, 400)" opacity="0.13"></line><line x1="810" y1="400" x2="612" y2="400" transform="rotate(204, 711, 400)" opacity="0.78"></line><line x1="767" y1="400" x2="655" y2="400" transform="rotate(210, 711, 400)" opacity="0.65"></line><line x1="1287" y1="400" x2="135" y2="400" transform="rotate(216, 711, 400)" opacity="0.15"></line><line x1="861" y1="400" x2="561" y2="400" transform="rotate(222, 711, 400)" opacity="0.40"></line><line x1="1194" y1="400" x2="228" y2="400" transform="rotate(228, 711, 400)" opacity="0.24"></line><line x1="667.5" y1="400" x2="754.5" y2="400" transform="rotate(234, 711, 400)" opacity="0.78"></line><line x1="629.5" y1="400" x2="792.5" y2="400" transform="rotate(240, 711, 400)" opacity="0.84"></line><line x1="766" y1="400" x2="656" y2="400" transform="rotate(246, 711, 400)" opacity="0.27"></line><line x1="1149.5" y1="400" x2="272.5" y2="400" transform="rotate(252, 711, 400)" opacity="0.51"></line><line x1="644.5" y1="400" x2="777.5" y2="400" transform="rotate(258, 711, 400)" opacity="0.86"></line><line x1="1143.5" y1="400" x2="278.5" y2="400" transform="rotate(264, 711, 400)" opacity="0.93"></line><line x1="636" y1="400" x2="786" y2="400" transform="rotate(270, 711, 400)" opacity="0.81"></line><line x1="750" y1="400" x2="672" y2="400" transform="rotate(276, 711, 400)" opacity="0.52"></line><line x1="606" y1="400" x2="816" y2="400" transform="rotate(282, 711, 400)" opacity="0.65"></line><line x1="886.5" y1="400" x2="535.5" y2="400" transform="rotate(288, 711, 400)" opacity="0.24"></line><line x1="930.5" y1="400" x2="491.5" y2="400" transform="rotate(294, 711, 400)" opacity="0.55"></line><line x1="722.5" y1="400" x2="699.5" y2="400" transform="rotate(300, 711, 400)" opacity="0.86"></line><line x1="992.5" y1="400" x2="429.5" y2="400" transform="rotate(306, 711, 400)" opacity="0.42"></line><line x1="853" y1="400" x2="569" y2="400" transform="rotate(312, 711, 400)" opacity="0.71"></line><line x1="1270.5" y1="400" x2="151.5" y2="400" transform="rotate(318, 711, 400)" opacity="0.33"></line><line x1="662" y1="400" x2="760" y2="400" transform="rotate(324, 711, 400)" opacity="0.38"></line><line x1="1215" y1="400" x2="207" y2="400" transform="rotate(330, 711, 400)" opacity="0.49"></line><line x1="504.5" y1="400" x2="917.5" y2="400" transform="rotate(336, 711, 400)" opacity="0.86"></line><line x1="1004" y1="400" x2="418" y2="400" transform="rotate(342, 711, 400)" opacity="0.64"></line><line x1="1213.5" y1="400" x2="208.5" y2="400" transform="rotate(348, 711, 400)" opacity="0.32"></line><line x1="1178.5" y1="400" x2="243.5" y2="400" transform="rotate(354, 711, 400)" opacity="0.33"></line><line x1="608.5" y1="400" x2="813.5" y2="400" transform="rotate(360, 711, 400)" opacity="0.36"></line><line x1="1147.5" y1="400" x2="274.5" y2="400" transform="rotate(366, 711, 400)" opacity="0.51"></line><line x1="1215.5" y1="400" x2="206.5" y2="400" transform="rotate(372, 711, 400)" opacity="0.62"></line><line x1="519" y1="400" x2="903" y2="400" transform="rotate(378, 711, 400)" opacity="0.56"></line></g></svg>