<svg xmlns="http://www.w3.org/2000/svg" version="1.1" xmlns:xlink="http://www.w3.org/1999/xlink" xmlns:svgjs="http://svgjs.dev/svgjs" viewBox="0 0 1422 800" opacity="1"><defs><linearGradient x1="50%" y1="0%" x2="50%" y2="100%" id="oooscillate-grad"><stop stop-color="hsl(202, 59%, 44%)" stop-opacity="1" offset="0%" data-darkreader-inline-stopcolor="" style="--darkreader-inline-stopcolor:#25688e;"></stop><stop stop-color="hsl(195, 98%, 17%)" stop-opacity="1" offset="100%" data-darkreader-inline-stopcolor="" style="--darkreader-inline-stopcolor:#013445;"></stop></linearGradient></defs><g stroke-width="1" stroke="url(#oooscillate-grad)" fill="none" stroke-linecap="round"><path d="M 0 672 Q 355.5 260 711 400 Q 1066.5 540 1422 672" opacity="1.00"></path><path d="M 0 640 Q 355.5 260 711 400 Q 1066.5 540 1422 640" opacity="0.95"></path><path d="M 0 608 Q 355.5 260 711 400 Q 1066.5 540 1422 608" opacity="0.91"></path><path d="M 0 576 Q 355.5 260 711 400 Q 1066.5 540 1422 576" opacity="0.86"></path><path d="M 0 544 Q 355.5 260 711 400 Q 1066.5 540 1422 544" opacity="0.81"></path><path d="M 0 512 Q 355.5 260 711 400 Q 1066.5 540 1422 512" opacity="0.76"></path><path d="M 0 480 Q 355.5 260 711 400 Q 1066.5 540 1422 480" opacity="0.72"></path><path d="M 0 448 Q 355.5 260 711 400 Q 1066.5 540 1422 448" opacity="0.67"></path><path d="M 0 416 Q 355.5 260 711 400 Q 1066.5 540 1422 416" opacity="0.62"></path><path d="M 0 384 Q 355.5 260 711 400 Q 1066.5 540 1422 384" opacity="0.57"></path><path d="M 0 352 Q 355.5 260 711 400 Q 1066.5 540 1422 352" opacity="0.53"></path><path d="M 0 320 Q 355.5 260 711 400 Q 1066.5 540 1422 320" opacity="0.48"></path><path d="M 0 288 Q 355.5 260 711 400 Q 1066.5 540 1422 288" opacity="0.43"></path><path d="M 0 256 Q 355.5 260 711 400 Q 1066.5 540 1422 256" opacity="0.38"></path><path d="M 0 224 Q 355.5 260 711 400 Q 1066.5 540 1422 224" opacity="0.34"></path><path d="M 0 192 Q 355.5 260 711 400 Q 1066.5 540 1422 192" opacity="0.29"></path><path d="M 0 160 Q 355.5 260 711 400 Q 1066.5 540 1422 160" opacity="0.24"></path><path d="M 0 128 Q 355.5 260 711 400 Q 1066.5 540 1422 128" opacity="0.19"></path><path d="M 0 96 Q 355.5 260 711 400 Q 1066.5 540 1422 96" opacity="0.15"></path><path d="M 0 64 Q 355.5 260 711 400 Q 1066.5 540 1422 64" opacity="0.10"></path></g></svg>