<svg xmlns="http://www.w3.org/2000/svg" version="1.1" xmlns:xlink="http://www.w3.org/1999/xlink" xmlns:svgjs="http://svgjs.dev/svgjs" viewBox="0 0 800 800" opacity="1"><defs><linearGradient x1="50%" y1="0%" x2="50%" y2="100%" id="wwwhirl-grad"><stop stop-color="hsla(202, 58%, 44%, 1)" stop-opacity="1" offset="45%" data-darkreader-inline-stopcolor="" style="--darkreader-inline-stopcolor:#26688e;"></stop><stop stop-color="hsla(195, 95%, 12%, 1)" stop-opacity="1" offset="100%" data-darkreader-inline-stopcolor="" style="--darkreader-inline-stopcolor:#022430;"></stop></linearGradient></defs><g stroke-width="1" stroke="url(#wwwhirl-grad)" fill="none" stroke-linecap="round"><path d="M6.250002730976533 442.41761501990084C6.250002730976533 442.41761501990084 77.84091380805037 365.09943105666105 77.84091380805037 365.09943105666105C77.84091380805037 365.09943105666105 149.4318248851242 404.83238670443706 149.4318248851242 404.83238670443706C149.4318248851242 404.83238670443706 221.0227359621981 377.98579505053436 221.0227359621981 377.98579505053436C221.0227359621981 377.98579505053436 292.61364703927194 447.78693335068135 292.61364703927194 447.78693335068135C292.61364703927194 447.78693335068135 364.2045581163457 379.0596587166905 364.2045581163457 379.0596587166905C364.2045581163457 379.0596587166905 435.79546919341954 457.4517063460863 435.79546919341954 457.4517063460863C435.79546919341954 457.4517063460863 507.3863802704934 390.8721590444077 507.3863802704934 390.8721590444077C507.3863802704934 390.8721590444077 578.9772913475672 424.161932695247 578.9772913475672 424.161932695247C578.9772913475672 424.161932695247 650.5682024246412 342.5482940673828 650.5682024246412 342.5482940673828C650.5682024246412 342.5482940673828 722.159113501715 441.3437513537447 722.159113501715 441.3437513537447C722.159113501715 441.3437513537447 793.7500245787887 386.5767043797832 793.7500245787887 386.5767043797832 " transform="rotate(0, 400, 400)"></path><path d="M15.000002670288168 441.4749996573709C15.000002670288168 441.4749996573709 85.00000461231593 365.87499755998095 85.00000461231593 365.87499755998095C85.00000461231593 365.87499755998095 155.00000655434366 404.7249986378063 155.00000655434366 404.7249986378063C155.00000655434366 404.7249986378063 225.00000849637144 378.47499790954595 225.00000849637144 378.47499790954595C225.00000849637144 378.47499790954595 295.0000104383992 446.72499980302297 295.0000104383992 446.72499980302297C295.0000104383992 446.72499980302297 365.00001238042694 379.52499793867634 365.00001238042694 379.52499793867634C365.00001238042694 379.52499793867634 435.0000143224547 456.17500006519674 435.0000143224547 456.17500006519674C435.0000143224547 456.17500006519674 505.0000162644824 391.07499825911094 505.0000162644824 391.07499825911094C505.0000162644824 391.07499825911094 575.0000182065102 423.6249991621538 575.0000182065102 423.6249991621538C575.0000182065102 423.6249991621538 645.0000201485379 343.8249969482422 645.0000201485379 343.8249969482422C645.0000201485379 343.8249969482422 715.0000220905657 440.42499962824047 715.0000220905657 440.42499962824047C715.0000220905657 440.42499962824047 785.0000240325934 386.8749981425893 785.0000240325934 386.8749981425893 " transform="rotate(0, 400, 400)"></path><path d="M23.750002609599804 440.53238810953826C23.750002609599804 440.53238810953826 92.15909541658147 366.65056787799807 92.15909541658147 366.65056787799807C92.15909541658147 366.65056787799807 160.56818822356314 404.61761438587286 160.56818822356314 404.61761438587286C160.56818822356314 404.61761438587286 228.97728103054482 378.96420458325474 228.97728103054482 378.96420458325474C228.97728103054482 378.96420458325474 297.3863738375265 445.6630700700619 297.3863738375265 445.6630700700619C297.3863738375265 445.6630700700619 365.7954666445081 379.99034097535946 365.7954666445081 379.99034097535946C365.7954666445081 379.99034097535946 434.20455945148984 454.8982975990044 434.20455945148984 454.8982975990044C434.20455945148984 454.8982975990044 502.6136522584716 391.27784128851147 502.6136522584716 391.27784128851147C502.6136522584716 391.27784128851147 571.0227450654531 423.08806944375795 571.0227450654531 423.08806944375795C571.0227450654531 423.08806944375795 639.4318378724349 345.1017036437988 639.4318378724349 345.1017036437988C639.4318378724349 345.1017036437988 707.8409306794165 439.50625171743354 707.8409306794165 439.50625171743354C707.8409306794165 439.50625171743354 776.2500234863982 387.17329572009254 776.2500234863982 387.17329572009254 " transform="rotate(0, 400, 400)"></path><path d="M32.500002548911425 439.58977274700834C32.500002548911425 439.58977274700834 99.318186220847 367.4261343813179 99.318186220847 367.4261343813179C99.318186220847 367.4261343813179 166.1363698927826 404.5102263192422 166.1363698927826 404.5102263192422C166.1363698927826 404.5102263192422 232.95455356471814 379.4534074422663 232.95455356471814 379.4534074422663C232.95455356471814 379.4534074422663 299.77273723665377 444.6011365224035 299.77273723665377 444.6011365224035C299.77273723665377 444.6011365224035 366.59092090858934 380.4556801973454 366.59092090858934 380.4556801973454C366.59092090858934 380.4556801973454 433.4091045805249 453.62159131811484 433.4091045805249 453.62159131811484C433.4091045805249 453.62159131811484 500.22728825246054 391.4806805032147 500.22728825246054 391.4806805032147C500.22728825246054 391.4806805032147 567.0454719243961 422.55113591066475 567.0454719243961 422.55113591066475C567.0454719243961 422.55113591066475 633.8636555963318 346.3784065246582 633.8636555963318 346.3784065246582C633.8636555963318 346.3784065246582 700.6818392682673 438.5874999919293 700.6818392682673 438.5874999919293C700.6818392682673 438.5874999919293 767.5000229402028 387.4715894828986 767.5000229402028 387.4715894828986 " transform="rotate(0, 400, 400)"></path><path d="M41.25000248822306 438.6471611991757C41.25000248822306 438.6471611991757 106.47727702511256 368.20170469933504 106.47727702511256 368.20170469933504C106.47727702511256 368.20170469933504 171.70455156200205 404.4028420673087 171.70455156200205 404.4028420673087C171.70455156200205 404.4028420673087 236.93182609889152 379.9426141159751 236.93182609889152 379.9426141159751C236.93182609889152 379.9426141159751 302.15910063578104 443.5392067894424 302.15910063578104 443.5392067894424C302.15910063578104 443.5392067894424 367.38637517267057 380.9210232340285 367.38637517267057 380.9210232340285C367.38637517267057 380.9210232340285 432.6136497095601 452.34488885192246 432.6136497095601 452.34488885192246C432.6136497095601 452.34488885192246 497.8409242464495 391.68352353261525 497.8409242464495 391.68352353261525C497.8409242464495 391.68352353261525 563.0681987833391 422.01420619226883 563.0681987833391 422.01420619226883C563.0681987833391 422.01420619226883 628.2954733202286 347.65511322021484 628.2954733202286 347.65511322021484C628.2954733202286 347.65511322021484 693.522747857118 437.66875208112236 693.522747857118 437.66875208112236C693.522747857118 437.66875208112236 758.7500223940075 387.76988706040186 758.7500223940075 387.76988706040186 " transform="rotate(0, 400, 400)"></path><path d="M50.000002427534696 437.70454583664576C50.000002427534696 437.70454583664576 113.63636782937812 368.9772712026549 113.63636782937812 368.9772712026549C113.63636782937812 368.9772712026549 177.2727332312215 404.295454000678 177.2727332312215 404.295454000678C177.2727332312215 404.295454000678 240.90909863306496 380.4318169749867 240.90909863306496 380.4318169749867C240.90909863306496 380.4318169749867 304.5454640349084 442.477273241784 304.5454640349084 442.477273241784C304.5454640349084 442.477273241784 368.18182943675174 381.38636245601435 368.18182943675174 381.38636245601435C368.18182943675174 381.38636245601435 431.81819483859516 451.06818257103293 431.81819483859516 451.06818257103293C431.81819483859516 451.06818257103293 495.4545602404387 391.8863627473185 495.4545602404387 391.8863627473185C495.4545602404387 391.8863627473185 559.090925642282 421.4772726591757 559.090925642282 421.4772726591757C559.090925642282 421.4772726591757 622.7272910441255 348.9318161010742 622.7272910441255 348.9318161010742C622.7272910441255 348.9318161010742 686.3636564459689 436.7500003556181 686.3636564459689 436.7500003556181C686.3636564459689 436.7500003556181 750.0000218478123 388.0681808232079 750.0000218478123 388.0681808232079 " transform="rotate(0, 400, 400)"></path><path d="M58.75000236684633 436.7619381035104C58.75000236684633 436.7619381035104 120.79545863364365 369.7528453353693 120.79545863364365 369.7528453353693C120.79545863364365 369.7528453353693 182.84091490044096 404.1880735634418 182.84091490044096 404.1880735634418C182.84091490044096 404.1880735634418 244.8863711672383 380.9210274633928 244.8863711672383 380.9210274633928C244.8863711672383 380.9210274633928 306.93182743403565 441.4153473235202 306.93182743403565 441.4153473235202C306.93182743403565 441.4153473235202 368.97728370083297 381.85170930739474 368.97728370083297 381.85170930739474C368.97728370083297 381.85170930739474 431.0227399676303 449.7914839195378 431.0227399676303 449.7914839195378C431.0227399676303 449.7914839195378 493.0681962344276 392.0892095914163 493.0681962344276 392.0892095914163C493.0681962344276 392.0892095914163 555.1136525012249 420.9403467554771 555.1136525012249 420.9403467554771C555.1136525012249 420.9403467554771 617.1591087680223 350.2085266113281 617.1591087680223 350.2085266113281C617.1591087680223 350.2085266113281 679.2045650348196 435.83125625950845 679.2045650348196 435.83125625950845C679.2045650348196 435.83125625950845 741.2500213016169 388.3664822154085 741.2500213016169 388.3664822154085 " transform="rotate(0, 400, 400)"></path><path d="M67.50000230615797 435.81931892628324C67.50000230615797 435.81931892628324 127.95454943790921 370.52840802399186 127.95454943790921 370.52840802399186C127.95454943790921 370.52840802399186 188.40909656966045 404.08068168211383 188.40909656966045 404.08068168211383C188.40909656966045 404.08068168211383 248.8636437014117 381.4102265077071 248.8636437014117 381.4102265077071C248.8636437014117 381.4102265077071 309.31819083316293 440.3534099611646 309.31819083316293 440.3534099611646C309.31819083316293 440.3534099611646 369.77273796491414 382.3170447146834 369.77273796491414 382.3170447146834C369.77273796491414 382.3170447146834 430.22728509666547 448.514773823951 430.22728509666547 448.514773823951C430.22728509666547 448.514773823951 490.6818322284167 392.2920449914223 490.6818322284167 392.2920449914223C490.6818322284167 392.2920449914223 551.1363793601679 420.40340940768664 551.1363793601679 420.40340940768664C551.1363793601679 420.40340940768664 611.5909264919192 351.48522567749023 611.5909264919192 351.48522567749023C611.5909264919192 351.48522567749023 672.0454736236704 434.91250071930693 672.0454736236704 434.91250071930693C672.0454736236704 434.91250071930693 732.5000207554216 388.6647721635172 732.5000207554216 388.6647721635172 " transform="rotate(0, 400, 400)"></path><path d="M76.25000224546959 434.87670737845053C76.25000224546959 434.87670737845053 135.11364024217477 371.303978342009 135.11364024217477 371.303978342009C135.11364024217477 371.303978342009 193.9772782388799 403.97329743018037 193.9772782388799 403.97329743018037C193.9772782388799 403.97329743018037 252.84091623558507 381.89943318141593 252.84091623558507 381.89943318141593C252.84091623558507 381.89943318141593 311.70455423229026 439.29148022820345 311.70455423229026 439.29148022820345C311.70455423229026 439.29148022820345 370.5681922289954 382.7823877513665 370.5681922289954 382.7823877513665C370.5681922289954 382.7823877513665 429.43183022570054 447.23807135775866 429.43183022570054 447.23807135775866C429.43183022570054 447.23807135775866 488.29546822240576 392.4948880208228 488.29546822240576 392.4948880208228C488.29546822240576 392.4948880208228 547.1591062191108 419.86647968929077 547.1591062191108 419.86647968929077C547.1591062191108 419.86647968929077 606.0227442158161 352.7619323730469 606.0227442158161 352.7619323730469C606.0227442158161 352.7619323730469 664.8863822125212 433.99375280849995 664.8863822125212 433.99375280849995C664.8863822125212 433.99375280849995 723.7500202092262 388.96306974102055 723.7500202092262 388.96306974102055 " transform="rotate(0, 400, 400)"></path><path d="M85.00000218478122 433.93409201592067C85.00000218478122 433.93409201592067 142.2727310464403 372.0795448453289 142.2727310464403 372.0795448453289C142.2727310464403 372.0795448453289 199.54545990809936 403.86590936354963 199.54545990809936 403.86590936354963C199.54545990809936 403.86590936354963 256.8181887697584 382.3886360404275 256.8181887697584 382.3886360404275C256.8181887697584 382.3886360404275 314.09091763141754 438.22954668054507 314.09091763141754 438.22954668054507C314.09091763141754 438.22954668054507 371.3636464930766 383.24772697335237 371.3636464930766 383.24772697335237C371.3636464930766 383.24772697335237 428.63637535473566 445.9613650768691 428.63637535473566 445.9613650768691C428.63637535473566 445.9613650768691 485.9091042163947 392.69772723552614 485.9091042163947 392.69772723552614C485.9091042163947 392.69772723552614 543.1818330780538 419.3295461561976 543.1818330780538 419.3295461561976C543.1818330780538 419.3295461561976 600.4545619397129 354.03863525390625 600.4545619397129 354.03863525390625C600.4545619397129 354.03863525390625 657.727290801372 433.07500108299575 657.727290801372 433.07500108299575C657.727290801372 433.07500108299575 715.000019663031 389.2613635038266 715.000019663031 389.2613635038266 " transform="rotate(0, 400, 400)"></path><path d="M93.75000212409286 432.9914690239962C93.75000212409286 432.9914690239962 149.43182185070583 372.8551037192542 149.43182185070583 372.8551037192542C149.43182185070583 372.8551037192542 205.11364157731884 403.75851366752437 205.11364157731884 403.75851366752437C205.11364157731884 403.75851366752437 260.7954613039318 382.8778312700445 260.7954613039318 382.8778312700445C260.7954613039318 382.8778312700445 316.4772810305448 437.16760550349215 316.4772810305448 437.16760550349215C316.4772810305448 437.16760550349215 372.1591007571578 383.7130585659437 372.1591007571578 383.7130585659437C372.1591007571578 383.7130585659437 427.8409204837708 444.6846511665849 427.8409204837708 444.6846511665849C427.8409204837708 444.6846511665849 483.5227402103838 392.9005588208349 483.5227402103838 392.9005588208349C483.5227402103838 392.9005588208349 539.2045599369967 418.7926049937099 539.2045599369967 418.7926049937099C539.2045599369967 418.7926049937099 594.8863796636098 355.3153305053711 594.8863796636098 355.3153305053711C594.8863796636098 355.3153305053711 650.5681993902227 432.15624172809703 650.5681993902227 432.15624172809703C650.5681993902227 432.15624172809703 706.2500191168357 389.55964963723807 706.2500191168357 389.55964963723807 " transform="rotate(0, 400, 400)"></path><path d="M102.5000020634045 432.0488651055581C102.5000020634045 432.0488651055581 156.5909126549714 373.63068166666585 156.5909126549714 373.63068166666585C156.5909126549714 373.63068166666585 210.68182324653827 403.6511370449855 210.68182324653827 403.6511370449855C210.68182324653827 403.6511370449855 264.7727338381052 383.3670455731479 264.7727338381052 383.3670455731479C264.7727338381052 383.3670455731479 318.8636444296721 436.1056833999256 318.8636444296721 436.1056833999256C318.8636444296721 436.1056833999256 372.954555021239 384.1784092320214 372.954555021239 384.1784092320214C372.954555021239 384.1784092320214 427.0454656128059 443.4079563297871 427.0454656128059 443.4079563297871C427.0454656128059 443.4079563297871 481.1363762043728 393.10340947962993 481.1363762043728 393.10340947962993C481.1363762043728 393.10340947962993 535.2272867959397 418.2556829047085 535.2272867959397 418.2556829047085C535.2272867959397 418.2556829047085 589.3181973875066 356.59204483032227 589.3181973875066 356.59204483032227C589.3181973875066 356.59204483032227 643.4091079790735 431.2375014466846 643.4091079790735 431.2375014466846C643.4091079790735 431.2375014466846 697.5000185706403 389.8579548441359 697.5000185706403 389.8579548441359 " transform="rotate(0, 400, 400)"></path><path d="M111.25000200271613 431.10625355772544C111.25000200271613 431.10625355772544 163.75000345923695 374.40625198468297 163.75000345923695 374.40625198468297C163.75000345923695 374.40625198468297 216.25000491575776 403.543752793052 216.25000491575776 403.543752793052C216.25000491575776 403.543752793052 268.75000637227856 383.8562522468567 268.75000637227856 383.8562522468567C268.75000637227856 383.8562522468567 321.2500078287994 435.0437536669645 321.2500078287994 435.0437536669645C321.2500078287994 435.0437536669645 373.7500092853202 384.64375226870453 373.7500092853202 384.64375226870453C373.7500092853202 384.64375226870453 426.250010741841 442.1312538635948 426.250010741841 442.1312538635948C426.250010741841 442.1312538635948 478.75001219836184 393.30625250903046 478.75001219836184 393.30625250903046C478.75001219836184 393.30625250903046 531.2500136548827 417.7187531863126 531.2500136548827 417.7187531863126C531.2500136548827 417.7187531863126 583.7500151114035 357.8687515258789 583.7500151114035 357.8687515258789C583.7500151114035 357.8687515258789 636.2500165679243 430.3187535358776 636.2500165679243 430.3187535358776C636.2500165679243 430.3187535358776 688.7500180244451 390.1562524216392 688.7500180244451 390.1562524216392 " transform="rotate(0, 400, 400)"></path><path d="M120.00000194202775 430.1636381951955C120.00000194202775 430.1636381951955 170.90909426350248 375.1818184880028 170.90909426350248 375.1818184880028C170.90909426350248 375.1818184880028 221.8181865849772 403.4363647264213 221.8181865849772 403.4363647264213C221.8181865849772 403.4363647264213 272.72727890645194 384.34545510586827 272.72727890645194 384.34545510586827C272.72727890645194 384.34545510586827 323.6363712279267 433.9818201193061 323.6363712279267 433.9818201193061C323.6363712279267 433.9818201193061 374.5454635494014 385.1090914906904 374.5454635494014 385.1090914906904C374.5454635494014 385.1090914906904 425.45455587087616 440.8545475827052 425.45455587087616 440.8545475827052C425.45455587087616 440.8545475827052 476.36364819235087 393.5090917237337 476.36364819235087 393.5090917237337C476.36364819235087 393.5090917237337 527.2727405138255 417.18181965321946 527.2727405138255 417.18181965321946C527.2727405138255 417.18181965321946 578.1818328353004 359.1454544067383 578.1818328353004 359.1454544067383C578.1818328353004 359.1454544067383 629.090925156775 429.4000018103734 629.090925156775 429.4000018103734C629.090925156775 429.4000018103734 680.0000174782498 390.45454618444523 680.0000174782498 390.45454618444523 " transform="rotate(0, 400, 400)"></path><path d="M128.7500018813394 429.2210228326656C128.7500018813394 429.2210228326656 178.06818506776804 375.95738499132267 178.06818506776804 375.95738499132267C178.06818506776804 375.95738499132267 227.38636825419667 403.32897665979056 227.38636825419667 403.32897665979056C227.38636825419667 403.32897665979056 276.7045514406253 384.83465796487985 276.7045514406253 384.83465796487985C276.7045514406253 384.83465796487985 326.022734627054 432.91988657164774 326.022734627054 432.91988657164774C326.022734627054 432.91988657164774 375.34091781348263 385.57443071267625 375.34091781348263 385.57443071267625C375.34091781348263 385.57443071267625 424.6591009999113 439.5778413018156 424.6591009999113 439.5778413018156C424.6591009999113 439.5778413018156 473.9772841863399 393.711930938437 473.9772841863399 393.711930938437C473.9772841863399 393.711930938437 523.2954673727686 416.64488612012633 523.2954673727686 416.64488612012633C523.2954673727686 416.64488612012633 572.6136505591971 360.42215728759766 572.6136505591971 360.42215728759766C572.6136505591971 360.42215728759766 621.9318337456259 428.4812500848692 621.9318337456259 428.4812500848692C621.9318337456259 428.4812500848692 671.2500169320545 390.7528399472513 671.2500169320545 390.7528399472513 " transform="rotate(0, 400, 400)"></path><path d="M137.50000182065102 428.2784074701357C137.50000182065102 428.2784074701357 185.2272758720336 376.7329514946425 185.2272758720336 376.7329514946425C185.2272758720336 376.7329514946425 232.95454992341615 403.2215885931599 232.95454992341615 403.2215885931599C232.95454992341615 403.2215885931599 280.6818239747987 385.3238608238914 280.6818239747987 385.3238608238914C280.6818239747987 385.3238608238914 328.40909802618125 431.8579530239894 328.40909802618125 431.8579530239894C328.40909802618125 431.8579530239894 376.1363720775638 386.03976993466216 376.1363720775638 386.03976993466216C376.1363720775638 386.03976993466216 423.86364612894636 438.30113502092604 423.86364612894636 438.30113502092604C423.86364612894636 438.30113502092604 471.59092018032896 393.91477015314024 471.59092018032896 393.91477015314024C471.59092018032896 393.91477015314024 519.3181942317115 416.10795258703314 519.3181942317115 416.10795258703314C519.3181942317115 416.10795258703314 567.0454682830941 361.69886016845703 567.0454682830941 361.69886016845703C567.0454682830941 361.69886016845703 614.7727423344766 427.56249835936495 614.7727423344766 427.56249835936495C614.7727423344766 427.56249835936495 662.5000163858591 391.0511337100573 662.5000163858591 391.0511337100573 " transform="rotate(0, 400, 400)"></path><path d="M146.2499865011736 427.3357959223031C146.2499865011736 427.3357959223031 192.38635141751007 377.50852181265964 192.38635141751007 377.50852181265964C192.38635141751007 377.50852181265964 238.52271633384652 403.1142043412264 238.52271633384652 403.1142043412264C238.52271633384652 403.1142043412264 284.659081250183 385.81306749760023 284.659081250183 385.81306749760023C284.659081250183 385.81306749760023 330.79544616651947 430.7960232910283 330.79544616651947 430.7960232910283C330.79544616651947 430.7960232910283 376.9318110828559 386.5051129713453 376.9318110828559 386.5051129713453C376.9318110828559 386.5051129713453 423.0681759991924 437.0244325547337 423.0681759991924 437.0244325547337C423.0681759991924 437.0244325547337 469.2045409155289 394.11761318254077 469.2045409155289 394.11761318254077C469.2045409155289 394.11761318254077 515.3409058318654 415.5710228686373 515.3409058318654 415.5710228686373C515.3409058318654 415.5710228686373 561.4772707482018 362.9755668640137 561.4772707482018 362.9755668640137C561.4772707482018 362.9755668640137 607.6136356645384 426.643750448558 607.6136356645384 426.643750448558C607.6136356645384 426.643750448558 653.7500005808747 391.3494312875606 653.7500005808747 391.3494312875606 " transform="rotate(0, 400, 400)"></path><path d="M154.99998644048523 426.3931843744704C154.99998644048523 426.3931843744704 199.5454422217756 378.2840921306768 199.5454422217756 378.2840921306768C199.5454422217756 378.2840921306768 244.090898003066 403.00682008929294 244.090898003066 403.00682008929294C244.090898003066 403.00682008929294 288.6363537843564 386.3022741713091 288.6363537843564 386.3022741713091C288.6363537843564 386.3022741713091 333.1818095656468 429.7340935580672 333.1818095656468 429.7340935580672C333.1818095656468 429.7340935580672 377.7272653469372 386.9704560080284 377.7272653469372 386.9704560080284C377.7272653469372 386.9704560080284 422.2727211282276 435.7477300885414 422.2727211282276 435.7477300885414C422.2727211282276 435.7477300885414 466.81817690951794 394.32045621194135 466.81817690951794 394.32045621194135C466.81817690951794 394.32045621194135 511.36363269080834 415.03409315024135 511.36363269080834 415.03409315024135C511.36363269080834 415.03409315024135 555.9090884720988 364.2522735595703 555.9090884720988 364.2522735595703C555.9090884720988 364.2522735595703 600.4545442533891 425.72500253775104 600.4545442533891 425.72500253775104C600.4545442533891 425.72500253775104 645.0000000346795 391.6477288650639 645.0000000346795 391.6477288650639 " transform="rotate(0, 400, 400)"></path><path d="M163.74998637979684 425.4505690119405C163.74998637979684 425.4505690119405 206.70453302604116 379.05965863399666 206.70453302604116 379.05965863399666C206.70453302604116 379.05965863399666 249.65907967228546 402.8994320226622 249.65907967228546 402.8994320226622C249.65907967228546 402.8994320226622 292.6136263185298 386.7914770303206 292.6136263185298 386.7914770303206C292.6136263185298 386.7914770303206 335.5681729647741 428.6721600104088 335.5681729647741 428.6721600104088C335.5681729647741 428.6721600104088 378.5227196110184 387.43579523001426 378.5227196110184 387.43579523001426C378.5227196110184 387.43579523001426 421.47726625726267 434.4710238076518 421.47726625726267 434.4710238076518C421.47726625726267 434.4710238076518 464.431812903507 394.5232954266446 464.431812903507 394.5232954266446C464.431812903507 394.5232954266446 507.38635954975126 414.4971596171482 507.38635954975126 414.4971596171482C507.38635954975126 414.4971596171482 550.3409061959957 365.5289764404297 550.3409061959957 365.5289764404297C550.3409061959957 365.5289764404297 593.2954528422399 424.80625081224684 593.2954528422399 424.80625081224684C593.2954528422399 424.80625081224684 636.2499994884843 391.9460226278699 636.2499994884843 391.9460226278699 " transform="rotate(0, 400, 400)"></path><path d="M172.49998631910847 424.5079536494106C172.49998631910847 424.5079536494106 213.86362383030672 379.8352251373165 213.86362383030672 379.8352251373165C213.86362383030672 379.8352251373165 255.2272613415049 402.79204395603153 255.2272613415049 402.79204395603153C255.2272613415049 402.79204395603153 296.59089885270316 387.2806798893322 296.59089885270316 387.2806798893322C296.59089885270316 387.2806798893322 337.9545363639014 427.61022646275046 337.9545363639014 427.61022646275046C337.9545363639014 427.61022646275046 379.31817387509955 387.9011344520002 379.31817387509955 387.9011344520002C379.31817387509955 387.9011344520002 420.6818113862978 433.19431752676223 420.6818113862978 433.19431752676223C420.6818113862978 433.19431752676223 462.04544889749604 394.72613464134787 462.04544889749604 394.72613464134787C462.04544889749604 394.72613464134787 503.40908640869424 413.960226084055 503.40908640869424 413.960226084055C503.40908640869424 413.960226084055 544.7727239198925 366.80567932128906 544.7727239198925 366.80567932128906C544.7727239198925 366.80567932128906 586.1363614310907 423.8874990867426 586.1363614310907 423.8874990867426C586.1363614310907 423.8874990867426 627.4999989422888 392.244316390676 627.4999989422888 392.244316390676 " transform="rotate(0, 400, 400)"></path><path d="M181.2499862584201 423.5653421015779C181.2499862584201 423.5653421015779 221.02271463457225 380.61079545533363 221.02271463457225 380.61079545533363C221.02271463457225 380.61079545533363 260.7954430107244 402.68465970409807 260.7954430107244 402.68465970409807C260.7954430107244 402.68465970409807 300.56817138687654 387.769886563041 300.56817138687654 387.769886563041C300.56817138687654 387.769886563041 340.3408997630287 426.54829672978934 340.3408997630287 426.54829672978934C340.3408997630287 426.54829672978934 380.1136281391808 388.3664774886833 380.1136281391808 388.3664774886833C380.1136281391808 388.3664774886833 419.886356515333 431.91761506056986 419.886356515333 431.91761506056986C419.886356515333 431.91761506056986 459.65908489148507 394.9289776707484 459.65908489148507 394.9289776707484C459.65908489148507 394.9289776707484 499.43181326763715 413.4232963656591 499.43181326763715 413.4232963656591C499.43181326763715 413.4232963656591 539.2045416437893 368.0823860168457 539.2045416437893 368.0823860168457C539.2045416437893 368.0823860168457 578.9772700199414 422.96875117593567 578.9772700199414 422.96875117593567C578.9772700199414 422.96875117593567 618.7499983960936 392.54261396817924 618.7499983960936 392.54261396817924 " transform="rotate(0, 400, 400)"></path><path d="M189.99998619773174 422.622726739048C189.99998619773174 422.622726739048 228.1818054388378 381.3863619586535 228.1818054388378 381.3863619586535C228.1818054388378 381.3863619586535 266.3636246799438 402.57727163746733 266.3636246799438 402.57727163746733C266.3636246799438 402.57727163746733 304.5454439210499 388.25908942205257 304.5454439210499 388.25908942205257C304.5454439210499 388.25908942205257 342.72726316215596 425.48636318213096 342.72726316215596 425.48636318213096C342.72726316215596 425.48636318213096 380.909082403262 388.83181671066916 380.909082403262 388.83181671066916C380.909082403262 388.83181671066916 419.09090164436805 430.6409087796803 419.09090164436805 430.6409087796803C419.09090164436805 430.6409087796803 457.27272088547414 395.13181688545166 457.27272088547414 395.13181688545166C457.27272088547414 395.13181688545166 495.4545401265801 412.88636283256596 495.4545401265801 412.88636283256596C495.4545401265801 412.88636283256596 533.6363593676863 369.3590888977051 533.6363593676863 369.3590888977051C533.6363593676863 369.3590888977051 571.8181786087922 422.0499994504314 571.8181786087922 422.0499994504314C571.8181786087922 422.0499994504314 609.9999978498983 392.8409077309853 609.9999978498983 392.8409077309853 " transform="rotate(0, 400, 400)"></path><path d="M198.74998613704338 421.68011519121535C198.74998613704338 421.68011519121535 235.34089624310334 382.1619322766706 235.34089624310334 382.1619322766706C235.34089624310334 382.1619322766706 271.9318063491633 402.46988738553387 271.9318063491633 402.46988738553387C271.9318063491633 402.46988738553387 308.5227164552233 388.7482960957614 308.5227164552233 388.7482960957614C308.5227164552233 388.7482960957614 345.11362656128324 424.42443344916984 345.11362656128324 424.42443344916984C345.11362656128324 424.42443344916984 381.7045366673432 389.2971597473523 381.7045366673432 389.2971597473523C381.7045366673432 389.2971597473523 418.29544677340317 429.36420631348795 418.29544677340317 429.36420631348795C418.29544677340317 429.36420631348795 454.88635687946316 395.3346599148522 454.88635687946316 395.3346599148522C454.88635687946316 395.3346599148522 491.4772669855231 412.3494331141701 491.4772669855231 412.3494331141701C491.4772669855231 412.3494331141701 528.068177091583 370.6357955932617 528.068177091583 370.6357955932617C528.068177091583 370.6357955932617 564.659087197643 421.1312515396245 564.659087197643 421.1312515396245C564.659087197643 421.1312515396245 601.2499973037029 393.1392053084886 601.2499973037029 393.1392053084886 " transform="rotate(0, 400, 400)"></path><path d="M207.49998607635501 420.73749982868543C207.49998607635501 420.73749982868543 242.4999870473689 382.93749877999045 242.4999870473689 382.93749877999045C242.4999870473689 382.93749877999045 277.49998801838274 402.3624993189032 277.49998801838274 402.3624993189032C277.49998801838274 402.3624993189032 312.4999889893967 389.23749895477295 312.4999889893967 389.23749895477295C312.4999889893967 389.23749895477295 347.4999899604105 423.3624999015115 347.4999899604105 423.3624999015115C347.4999899604105 423.3624999015115 382.4999909314244 389.76249896933814 382.4999909314244 389.76249896933814C382.4999909314244 389.76249896933814 417.4999919024383 428.08750003259837 417.4999919024383 428.08750003259837C417.4999919024383 428.08750003259837 452.49999287345213 395.53749912955544 452.49999287345213 395.53749912955544C452.49999287345213 395.53749912955544 487.499993844466 411.8124995810769 487.499993844466 411.8124995810769C487.499993844466 411.8124995810769 522.4999948154799 371.9124984741211 522.4999948154799 371.9124984741211C522.4999948154799 371.9124984741211 557.4999957864939 420.21249981412024 557.4999957864939 420.21249981412024C557.4999957864939 420.21249981412024 592.4999967575077 393.4374990712946 592.4999967575077 393.4374990712946 " transform="rotate(0, 400, 400)"></path><path d="M216.24998601566665 419.79488637350414C216.24998601566665 419.79488637350414 249.65907785163444 383.71306719065893 249.65907785163444 383.71306719065893C249.65907785163444 383.71306719065893 283.0681696876022 402.2551131596211 283.0681696876022 402.2551131596211C283.0681696876022 402.2551131596211 316.47726152357 389.72670372113316 316.47726152357 389.72670372113316C316.47726152357 389.72670372113316 349.8863533595378 422.30056826120176 349.8863533595378 422.30056826120176C349.8863533595378 422.30056826120176 383.29544519550564 390.2278400986727 383.29544519550564 390.2278400986727C383.29544519550564 390.2278400986727 416.70453703147336 426.8107956590574 416.70453703147336 426.8107956590574C416.70453703147336 426.8107956590574 450.1136288674412 395.74034025160734 450.1136288674412 395.74034025160734C450.1136288674412 395.74034025160734 483.522720703409 411.2755679553324 483.522720703409 411.2755679553324C483.522720703409 411.2755679553324 516.9318125393768 373.1892032623291 516.9318125393768 373.1892032623291C516.9318125393768 373.1892032623291 550.3409043753445 419.2937499959647 550.3409043753445 419.2937499959647C550.3409043753445 419.2937499959647 583.7499962113124 393.7357947414493 583.7499962113124 393.7357947414493 " transform="rotate(0, 400, 400)"></path><path d="M224.99998595497829 418.8522729183229C224.99998595497829 418.8522729183229 256.81816865589997 384.4886356013275 256.81816865589997 384.4886356013275C256.81816865589997 384.4886356013275 288.6363513568217 402.147727000339 288.6363513568217 402.147727000339C288.6363513568217 402.147727000339 320.45453405774344 390.2159084874934 320.45453405774344 390.2159084874934C320.45453405774344 390.2159084874934 352.2727167586651 421.238636620892 352.2727167586651 421.238636620892C352.2727167586651 421.238636620892 384.0908994595868 390.6931812280072 384.0908994595868 390.6931812280072C384.0908994595868 390.6931812280072 415.90908216050855 425.53409128551647 415.90908216050855 425.53409128551647C415.90908216050855 425.53409128551647 447.7272648614303 395.9431813736593 447.7272648614303 395.9431813736593C447.7272648614303 395.9431813736593 479.5454475623519 410.73863632958785 479.5454475623519 410.73863632958785C479.5454475623519 410.73863632958785 511.3636302632737 374.4659080505371 511.3636302632737 374.4659080505371C511.3636302632737 374.4659080505371 543.1818129641954 418.37500017780906 543.1818129641954 418.37500017780906C543.1818129641954 418.37500017780906 574.999995665117 394.034090411604 574.999995665117 394.034090411604 " transform="rotate(0, 400, 400)"></path><path d="M233.74998589428992 417.9096594631416C233.74998589428992 417.9096594631416 263.97725946016556 385.26420401199596 263.97725946016556 385.26420401199596C263.97725946016556 385.26420401199596 294.2045330260412 402.0403408410569 294.2045330260412 402.0403408410569C294.2045330260412 402.0403408410569 324.43180659191677 390.70511325385354 324.43180659191677 390.70511325385354C324.43180659191677 390.70511325385354 354.6590801577924 420.17670498058226 354.6590801577924 420.17670498058226C354.6590801577924 420.17670498058226 384.886353723668 391.15852235734167 384.886353723668 391.15852235734167C384.886353723668 391.15852235734167 415.1136272895437 424.25738691197546 415.1136272895437 424.25738691197546C415.1136272895437 424.25738691197546 445.34090085541925 396.1460224957112 445.34090085541925 396.1460224957112C445.34090085541925 396.1460224957112 475.5681744212949 410.20170470384335 475.5681744212949 410.20170470384335C475.5681744212949 410.20170470384335 505.7954479871705 375.7426128387451 505.7954479871705 375.7426128387451C505.7954479871705 375.7426128387451 536.0227215530462 417.4562503596535 536.0227215530462 417.4562503596535C536.0227215530462 417.4562503596535 566.2499951189218 394.3323860817586 566.2499951189218 394.3323860817586 " transform="rotate(0, 400, 400)"></path><path d="M242.49998583360156 416.96704600796033C242.49998583360156 416.96704600796033 271.1363502644311 386.03977242266444 271.1363502644311 386.03977242266444C271.1363502644311 386.03977242266444 299.7727146952606 401.93295468177485 299.7727146952606 401.93295468177485C299.7727146952606 401.93295468177485 328.40907912609015 391.19431802021376 328.40907912609015 391.19431802021376C328.40907912609015 391.19431802021376 357.04544355691974 419.11477334027256 357.04544355691974 419.11477334027256C357.04544355691974 419.11477334027256 385.68180798774927 391.6238634866762 385.68180798774927 391.6238634866762C385.68180798774927 391.6238634866762 414.3181724185788 422.9806825384345 414.3181724185788 422.9806825384345C414.3181724185788 422.9806825384345 442.9545368494083 396.3488636177631 442.9545368494083 396.3488636177631C442.9545368494083 396.3488636177631 471.59090128023786 409.6647730780988 471.59090128023786 409.6647730780988C471.59090128023786 409.6647730780988 500.2272657110674 377.0193176269531 500.2272657110674 377.0193176269531C500.2272657110674 377.0193176269531 528.8636301418969 416.5375005414979 528.8636301418969 416.5375005414979C528.8636301418969 416.5375005414979 557.4999945727265 394.6306817519133 557.4999945727265 394.6306817519133 " transform="rotate(0, 400, 400)"></path><path d="M251.2499857729132 416.02443255277905C251.2499857729132 416.02443255277905 278.2954410686966 386.8153408333329 278.2954410686966 386.8153408333329C278.2954410686966 386.8153408333329 305.34089636448005 401.82556852249274 305.34089636448005 401.82556852249274C305.34089636448005 401.82556852249274 332.38635166026353 391.6835227865739 332.38635166026353 391.6835227865739C332.38635166026353 391.6835227865739 359.431806956047 418.0528416999628 359.431806956047 418.0528416999628C359.431806956047 418.0528416999628 386.47726225183044 392.0892046160107 386.47726225183044 392.0892046160107C386.47726225183044 392.0892046160107 413.52271754761387 421.70397816489356 413.52271754761387 421.70397816489356C413.52271754761387 421.70397816489356 440.56817284339735 396.55170473981497 440.56817284339735 396.55170473981497C440.56817284339735 396.55170473981497 467.6136281391808 409.1278414523543 467.6136281391808 409.1278414523543C467.6136281391808 409.1278414523543 494.65908343496426 378.29602241516113 494.65908343496426 378.29602241516113C494.65908343496426 378.29602241516113 521.7045387307477 415.6187507233423 521.7045387307477 415.6187507233423C521.7045387307477 415.6187507233423 548.7499940265311 394.92897742206793 548.7499940265311 394.92897742206793 " transform="rotate(0, 400, 400)"></path><path d="M259.9999857122248 415.08181909759776C259.9999857122248 415.08181909759776 285.4545318729622 387.5909092440014 285.4545318729622 387.5909092440014C285.4545318729622 387.5909092440014 310.90907803369953 401.71818236321064 310.90907803369953 401.71818236321064C310.90907803369953 401.71818236321064 336.3636241944369 392.17272755293413 336.3636241944369 392.17272755293413C336.3636241944369 392.17272755293413 361.8181703551743 416.99091005965306 361.8181703551743 416.99091005965306C361.8181703551743 416.99091005965306 387.2727165159116 392.5545457453452 387.2727165159116 392.5545457453452C387.2727165159116 392.5545457453452 412.72726267664905 420.4272737913526 412.72726267664905 420.4272737913526C412.72726267664905 420.4272737913526 438.18180883738637 396.75454586186686 438.18180883738637 396.75454586186686C438.18180883738637 396.75454586186686 463.6363549981237 408.59090982660973 463.6363549981237 408.59090982660973C463.6363549981237 408.59090982660973 489.09090115886113 379.57272720336914 489.09090115886113 379.57272720336914C489.09090115886113 379.57272720336914 514.5454473195985 414.7000009051867 514.5454473195985 414.7000009051867C514.5454473195985 414.7000009051867 539.9999934803359 395.2272730922226 539.9999934803359 395.2272730922226 " transform="rotate(0, 400, 400)"></path><path d="M268.74998565153646 414.13920564241647C268.74998565153646 414.13920564241647 292.61362267722774 388.3664776546699 292.61362267722774 388.3664776546699C292.61362267722774 388.3664776546699 316.477259702919 401.61079620392854 316.477259702919 401.61079620392854C316.477259702919 401.61079620392854 340.3408967286103 392.66193231929435 340.3408967286103 392.66193231929435C340.3408967286103 392.66193231929435 364.20453375430156 415.9289784193433 364.20453375430156 415.9289784193433C364.20453375430156 415.9289784193433 388.06817077999284 393.0198868746797 388.06817077999284 393.0198868746797C388.06817077999284 393.0198868746797 411.9318078056841 419.15056941781165 411.9318078056841 419.15056941781165C411.9318078056841 419.15056941781165 435.79544483137545 396.95738698391875 435.79544483137545 396.95738698391875C435.79544483137545 396.95738698391875 459.65908185706667 408.05397820086523 459.65908185706667 408.05397820086523C459.65908185706667 408.05397820086523 483.522718882758 380.84943199157715 483.522718882758 380.84943199157715C483.522718882758 380.84943199157715 507.3863559084492 413.78125108703114 507.3863559084492 413.78125108703114C507.3863559084492 413.78125108703114 531.2499929341404 395.5255687623773 531.2499929341404 395.5255687623773 " transform="rotate(0, 400, 400)"></path><path d="M277.4999855908481 413.1965921872352C277.4999855908481 413.1965921872352 299.77271348149327 389.1420460653384 299.77271348149327 389.1420460653384C299.77271348149327 389.1420460653384 322.0454413721385 401.5034100446465 322.0454413721385 401.5034100446465C322.0454413721385 401.5034100446465 344.31816926278367 393.1511370856545 344.31816926278367 393.1511370856545C344.31816926278367 393.1511370856545 366.59089715342884 414.8670467790336 366.59089715342884 414.8670467790336C366.59089715342884 414.8670467790336 388.86362504407407 393.4852280040142 388.86362504407407 393.4852280040142C388.86362504407407 393.4852280040142 411.1363529347193 417.8738650442707 411.1363529347193 417.8738650442707C411.1363529347193 417.8738650442707 433.4090808253644 397.16022810597065 433.4090808253644 397.16022810597065C433.4090808253644 397.16022810597065 455.68180871600964 407.5170465751207 455.68180871600964 407.5170465751207C455.68180871600964 407.5170465751207 477.95453660665487 382.12613677978516 477.95453660665487 382.12613677978516C477.95453660665487 382.12613677978516 500.22726449730004 412.8625012688755 500.22726449730004 412.8625012688755C500.22726449730004 412.8625012688755 522.4999923879452 395.82386443253193 522.4999923879452 395.82386443253193 " transform="rotate(0, 400, 400)"></path><path d="M286.2500007889488 412.2539768247053C286.2500007889488 412.2539768247053 306.9318195445479 389.9176125686582 306.9318195445479 389.9176125686582C306.9318195445479 389.9176125686582 327.613638300147 401.39602197801577 327.613638300147 401.39602197801577C327.613638300147 401.39602197801577 348.2954570557461 393.6403399446661 348.2954570557461 393.6403399446661C348.2954570557461 393.6403399446661 368.97727581134524 413.80511323137523 368.97727581134524 413.80511323137523C368.97727581134524 413.80511323137523 389.6590945669443 393.9505672260001 389.6590945669443 393.9505672260001C389.6590945669443 393.9505672260001 410.34091332254343 416.5971587633811 410.34091332254343 416.5971587633811C410.34091332254343 416.5971587633811 431.02273207814255 397.3630673206739 431.02273207814255 397.3630673206739C431.02273207814255 397.3630673206739 451.7045508337417 406.98011304202754 451.7045508337417 406.98011304202754C451.7045508337417 406.98011304202754 472.3863695893408 383.40283966064453 472.3863695893408 383.40283966064453C472.3863695893408 383.40283966064453 493.06818834493987 411.9437495433713 493.06818834493987 411.9437495433713C493.06818834493987 411.9437495433713 513.7500071005389 396.122158195338 513.7500071005389 396.122158195338 " transform="rotate(0, 400, 400)"></path><path d="M295.0000007282604 411.31136336952403C295.0000007282604 411.31136336952403 314.09091034881345 390.6931809793267 314.09091034881345 390.6931809793267C314.09091034881345 390.6931809793267 333.1818199693664 401.28863581873367 333.1818199693664 401.28863581873367C333.1818199693664 401.28863581873367 352.2727295899195 394.12954471102626 352.2727295899195 394.12954471102626C352.2727295899195 394.12954471102626 371.3636392104725 412.7431815910655 371.3636392104725 412.7431815910655C371.3636392104725 412.7431815910655 390.45454883102553 394.4159083553346 390.45454883102553 394.4159083553346C390.45454883102553 394.4159083553346 409.54545845157855 415.32045438984017 409.54545845157855 415.32045438984017C409.54545845157855 415.32045438984017 428.63636807213163 397.5659084427258 428.63636807213163 397.5659084427258C428.63636807213163 397.5659084427258 447.7272776926846 406.443181416283 447.7272776926846 406.443181416283C447.7272776926846 406.443181416283 466.8181873132377 384.67954444885254 466.8181873132377 384.67954444885254C466.8181873132377 384.67954444885254 485.90909693379064 411.0249997252157 485.90909693379064 411.0249997252157C485.90909693379064 411.0249997252157 505.00000655434366 396.4204538654926 505.00000655434366 396.4204538654926 " transform="rotate(0, 400, 400)"></path><path d="M303.75000066757207 410.36874991434274C303.75000066757207 410.36874991434274 321.250001153079 391.46874938999525 321.250001153079 391.46874938999525C321.250001153079 391.46874938999525 338.7500016385859 401.18124965945157 338.7500016385859 401.18124965945157C338.7500016385859 401.18124965945157 356.2500021240929 394.6187494773865 356.2500021240929 394.6187494773865C356.2500021240929 394.6187494773865 373.7500026095998 411.6812499507557 373.7500026095998 411.6812499507557C373.7500026095998 411.6812499507557 391.25000309510676 394.88124948466907 391.25000309510676 394.88124948466907C391.25000309510676 394.88124948466907 408.7500035806137 414.04375001629916 408.7500035806137 414.04375001629916C408.7500035806137 414.04375001629916 426.2500040661206 397.76874956477775 426.2500040661206 397.76874956477775C426.2500040661206 397.76874956477775 443.7500045516275 405.9062497905385 443.7500045516275 405.9062497905385C443.7500045516275 405.9062497905385 461.2500050371345 385.95624923706055 461.2500050371345 385.95624923706055C461.2500050371345 385.95624923706055 478.75000552264146 410.10624990706015 478.75000552264146 410.10624990706015C478.75000552264146 410.10624990706015 496.2500060081484 396.7187495356473 496.2500060081484 396.7187495356473 " transform="rotate(0, 400, 400)"></path><path d="M312.50000060688365 409.42613645916146C312.50000060688365 409.42613645916146 328.4090919573445 392.24431780066374 328.4090919573445 392.24431780066374C328.4090919573445 392.24431780066374 344.3181833078054 401.0738635001695 344.3181833078054 401.0738635001695C344.3181833078054 401.0738635001695 360.22727465826625 395.1079542437467 360.22727465826625 395.1079542437467C360.22727465826625 395.1079542437467 376.1363660087271 410.61931831044603 376.1363660087271 410.61931831044603C376.1363660087271 410.61931831044603 392.04545735918794 395.3465906140036 392.04545735918794 395.3465906140036C392.04545735918794 395.3465906140036 407.9545487096488 412.7670456427582 407.9545487096488 412.7670456427582C407.9545487096488 412.7670456427582 423.8636400601097 397.97159068682964 423.8636400601097 397.97159068682964C423.8636400601097 397.97159068682964 439.7727314105705 405.3693181647939 439.7727314105705 405.3693181647939C439.7727314105705 405.3693181647939 455.6818227610314 387.23295402526855 455.6818227610314 387.23295402526855C455.6818227610314 387.23295402526855 471.5909141114922 409.1875000889045 471.5909141114922 409.1875000889045C471.5909141114922 409.1875000889045 487.50000546195304 397.017045205802 487.50000546195304 397.017045205802 " transform="rotate(0, 400, 400)"></path><path d="M321.25000054619534 408.48352300398017C321.25000054619534 408.48352300398017 335.56818276161005 393.0198862113322 335.56818276161005 393.0198862113322C335.56818276161005 393.0198862113322 349.88636497702487 400.9664773408874 349.88636497702487 400.9664773408874C349.88636497702487 400.9664773408874 364.2045471924396 395.59715901010685 364.2045471924396 395.59715901010685C364.2045471924396 395.59715901010685 378.5227294078544 409.5573866701363 378.5227294078544 409.5573866701363C378.5227294078544 409.5573866701363 392.84091162326916 395.8119317433381 392.84091162326916 395.8119317433381C392.84091162326916 395.8119317433381 407.15909383868393 411.49034126921725 407.15909383868393 411.49034126921725C407.15909383868393 411.49034126921725 421.4772760540987 398.17443180888154 421.4772760540987 398.17443180888154C421.4772760540987 398.17443180888154 435.79545826951346 404.8323865390494 435.79545826951346 404.8323865390494C435.79545826951346 404.8323865390494 450.1136404849282 388.50965881347656 450.1136404849282 388.50965881347656C450.1136404849282 388.50965881347656 464.431822700343 408.26875027074897 464.431822700343 408.26875027074897C464.431822700343 408.26875027074897 478.75000491575776 397.3153408759566 478.75000491575776 397.3153408759566 " transform="rotate(0, 400, 400)"></path><path d="M330.0000004855069 407.5409095487989C330.0000004855069 407.5409095487989 342.72727356587563 393.7954546220007 342.72727356587563 393.7954546220007C342.72727356587563 393.7954546220007 355.4545466462443 400.8590911816053 355.4545466462443 400.8590911816053C355.4545466462443 400.8590911816053 368.18181972661296 396.08636377646707 368.18181972661296 396.08636377646707C368.18181972661296 396.08636377646707 380.9090928069817 408.49545502982653 380.9090928069817 408.49545502982653C380.9090928069817 408.49545502982653 393.63636588735034 396.2772728726726 393.63636588735034 396.2772728726726C393.63636588735034 396.2772728726726 406.36363896771906 410.2136368956763 406.36363896771906 410.2136368956763C406.36363896771906 410.2136368956763 419.0909120480877 398.37727293093343 419.0909120480877 398.37727293093343C419.0909120480877 398.37727293093343 431.8181851284564 404.29545491330487 431.8181851284564 404.29545491330487C431.8181851284564 404.29545491330487 444.5454582088251 389.78636360168457 444.5454582088251 389.78636360168457C444.5454582088251 389.78636360168457 457.27273128919376 407.35000045259335 457.27273128919376 407.35000045259335C457.27273128919376 407.35000045259335 470.0000043695625 397.6136365461113 470.0000043695625 397.6136365461113 " transform="rotate(0, 400, 400)"></path><path d="M338.7499966101213 406.5982960936176C338.7499966101213 406.5982960936176 349.8863605554439 394.5710230326692 349.8863605554439 394.5710230326692C349.8863605554439 394.5710230326692 361.0227245007665 400.7517050223232 361.0227245007665 400.7517050223232C361.0227245007665 400.7517050223232 372.1590884460891 396.5755685428273 372.1590884460891 396.5755685428273C372.1590884460891 396.5755685428273 383.2954523914117 407.4335233895168 383.2954523914117 407.4335233895168C383.2954523914117 407.4335233895168 394.4318163367343 396.7426140020071 394.4318163367343 396.7426140020071C394.4318163367343 396.7426140020071 405.5681802820569 408.93693252213535 405.5681802820569 408.93693252213535C405.5681802820569 408.93693252213535 416.7045442273795 398.5801140529853 416.7045442273795 398.5801140529853C416.7045442273795 398.5801140529853 427.8409081727021 403.75852328756037 427.8409081727021 403.75852328756037C427.8409081727021 403.75852328756037 438.9772721180247 391.0630683898926 438.9772721180247 391.0630683898926C438.9772721180247 391.0630683898926 450.11363606334726 406.4312506344378 450.11363606334726 406.4312506344378C450.11363606334726 406.4312506344378 461.2500000086699 397.911932216266 461.2500000086699 397.911932216266 " transform="rotate(0, 400, 400)"></path><path d="M347.4999965494329 405.655681684762C347.4999965494329 405.655681684762 357.04545135970943 395.34659048966336 357.04545135970943 395.34659048966336C357.04545135970943 395.34659048966336 366.59090616998594 400.6443179093668 366.59090616998594 400.6443179093668C366.59090616998594 400.6443179093668 376.13636098026245 397.0647723555131 376.13636098026245 397.0647723555131C376.13636098026245 397.0647723555131 385.68181579053896 406.3715907955327 385.68181579053896 406.3715907955327C385.68181579053896 406.3715907955327 395.2272706008155 397.20795417766726 395.2272706008155 397.20795417766726C395.2272706008155 397.20795417766726 404.772725411092 407.6602271949201 404.772725411092 407.6602271949201C404.772725411092 407.6602271949201 414.31818022136855 398.7829542213629 414.31818022136855 398.7829542213629C414.31818022136855 398.7829542213629 423.863635031645 403.2215907081415 423.863635031645 403.2215907081415C423.863635031645 403.2215907081415 433.40908984192157 392.33977222442627 433.40908984192157 392.33977222442627C433.40908984192157 392.33977222442627 442.954544652198 405.51249986260785 442.954544652198 405.51249986260785C442.954544652198 405.51249986260785 452.49999946247453 398.2102269327463 452.49999946247453 398.2102269327463 " transform="rotate(0, 400, 400)"></path><path d="M356.24999648874456 404.7130682295807C356.24999648874456 404.7130682295807 364.204542163975 396.12215890033184 364.204542163975 396.12215890033184C364.204542163975 396.12215890033184 372.1590878392054 400.53693175008476 372.1590878392054 400.53693175008476C372.1590878392054 400.53693175008476 380.11363351443583 397.55397712187334 380.11363351443583 397.55397712187334C380.11363351443583 397.55397712187334 388.0681791896663 405.309659155223 388.0681791896663 405.309659155223C388.0681791896663 405.309659155223 396.0227248648967 397.6732953070018 396.0227248648967 397.6732953070018C396.0227248648967 397.6732953070018 403.97727054012717 406.38352282137913 403.97727054012717 406.38352282137913C403.97727054012717 406.38352282137913 411.93181621535757 398.9857953434148 411.93181621535757 398.9857953434148C411.93181621535757 398.9857953434148 419.886361890588 402.68465908239693 419.886361890588 402.68465908239693C419.886361890588 402.68465908239693 427.84090756581844 393.6164770126343 427.84090756581844 393.6164770126343C427.84090756581844 393.6164770126343 435.79545324104885 404.59375004445224 435.79545324104885 404.59375004445224C435.79545324104885 404.59375004445224 443.74999891627925 398.508522602901 443.74999891627925 398.508522602901 " transform="rotate(0, 400, 400)"></path><path d="M364.9999964280562 403.77045477439947C364.9999964280562 403.77045477439947 371.36363296824055 396.8977273110004 371.36363296824055 396.8977273110004C371.36363296824055 396.8977273110004 377.7272695084249 400.42954559080266 377.7272695084249 400.42954559080266C377.7272695084249 400.42954559080266 384.0909060486092 398.04318188823356 384.0909060486092 398.04318188823356C384.0909060486092 398.04318188823356 390.4545425887936 404.24772751491327 390.4545425887936 404.24772751491327C390.4545425887936 404.24772751491327 396.81817912897793 398.1386364363363 396.81817912897793 398.1386364363363C396.81817912897793 398.1386364363363 403.18181566916223 405.1068184478381 403.18181566916223 405.1068184478381C403.18181566916223 405.1068184478381 409.5454522093466 399.18863646546674 409.5454522093466 399.18863646546674C409.5454522093466 399.18863646546674 415.90908874953095 402.14772745665243 415.90908874953095 402.14772745665243C415.90908874953095 402.14772745665243 422.27272528971525 394.8931818008423 422.27272528971525 394.8931818008423C422.27272528971525 394.8931818008423 428.6363618298996 403.6750002262967 428.6363618298996 403.6750002262967C428.6363618298996 403.6750002262967 434.999998370084 398.8068182730557 434.999998370084 398.8068182730557 " transform="rotate(0, 400, 400)"></path><path d="M373.7500001820651 402.82784036554386C373.7500001820651 402.82784036554386 378.52272758720335 397.67329476799455 378.52272758720335 397.67329476799455C378.52272758720335 397.67329476799455 383.2954549923416 400.32215847784624 383.2954549923416 400.32215847784624C383.2954549923416 400.32215847784624 388.06818239747986 398.5323857009194 388.06818239747986 398.5323857009194C388.06818239747986 398.5323857009194 392.8409098026181 403.1857949209292 392.8409098026181 403.1857949209292C392.8409098026181 403.1857949209292 397.61363720775637 398.6039766119965 397.61363720775637 398.6039766119965C397.61363720775637 398.6039766119965 402.3863646128946 403.83011312062285 402.3863646128946 403.83011312062285C402.3863646128946 403.83011312062285 407.1590920180329 399.3914766338443 407.1590920180329 399.3914766338443C407.1590920180329 399.3914766338443 411.93181942317113 401.6107948772336 411.93181942317113 401.6107948772336C411.93181942317113 401.6107948772336 416.7045468283094 396.169885635376 416.7045468283094 396.169885635376C416.7045468283094 396.169885635376 421.47727423344764 402.7562494544668 421.47727423344764 402.7562494544668C421.47727423344764 402.7562494544668 426.2500016385859 399.105112989536 426.2500016385859 399.105112989536 " transform="rotate(0, 400, 400)"></path><path d="M382.50000012137673 401.8852269103626C382.50000012137673 401.8852269103626 385.68181839146894 398.44886317866303 385.68181839146894 398.44886317866303C385.68181839146894 398.44886317866303 388.8636366615611 400.2147723185642 388.8636366615611 400.2147723185642C388.8636366615611 400.2147723185642 392.04545493165324 399.0215904672796 392.04545493165324 399.0215904672796C392.04545493165324 399.0215904672796 395.22727320174545 402.1238632806195 395.22727320174545 402.1238632806195C395.22727320174545 402.1238632806195 398.4090914718376 399.069317741331 398.4090914718376 399.069317741331C398.4090914718376 399.069317741331 401.59090974192975 402.5534087470819 401.59090974192975 402.5534087470819C401.59090974192975 402.5534087470819 404.77272801202196 399.5943177558962 404.77272801202196 399.5943177558962C404.77272801202196 399.5943177558962 407.9545462821141 401.07386325148906 407.9545462821141 401.07386325148906C407.9545462821141 401.07386325148906 411.13636455220626 397.446590423584 411.13636455220626 397.446590423584C411.13636455220626 397.446590423584 414.31818282229847 401.8374996363112 414.31818282229847 401.8374996363112C414.31818282229847 401.8374996363112 417.5000010923906 399.4034086596907 417.5000010923906 399.4034086596907 " transform="rotate(0, 400, 400)"></path><path d="M391.25000006068836 400.9426134551813C391.25000006068836 400.9426134551813 392.84090919573447 399.2244315893315 392.84090919573447 399.2244315893315C392.84090919573447 399.2244315893315 394.4318183307805 400.1073861592821 394.4318183307805 400.1073861592821C394.4318183307805 400.1073861592821 396.0227274658266 399.5107952336398 396.0227274658266 399.5107952336398C396.0227274658266 399.5107952336398 397.6136366008727 401.06193164030975 397.6136366008727 401.06193164030975C397.6136366008727 401.06193164030975 399.2045457359188 399.5346588706655 399.2045457359188 399.5346588706655C399.2045457359188 399.5346588706655 400.7954548709649 401.27670437354095 400.7954548709649 401.27670437354095C400.7954548709649 401.27670437354095 402.386364006011 399.7971588779481 402.386364006011 399.7971588779481C402.386364006011 399.7971588779481 403.977273141057 400.5369316257445 403.977273141057 400.5369316257445C403.977273141057 400.5369316257445 405.56818227610313 398.723295211792 405.56818227610313 398.723295211792C405.56818227610313 398.723295211792 407.15909141114923 400.91874981815556 407.15909141114923 400.91874981815556C407.15909141114923 400.91874981815556 408.75000054619534 399.7017043298453 408.75000054619534 399.7017043298453 " transform="rotate(0, 400, 400)"></path></g></svg>