<svg xmlns="http://www.w3.org/2000/svg" width="753" height="586"><defs><linearGradient id="a" x1="41.797%" x2="69.184%" y1="68.454%" y2="29.872%"><stop offset="0%" stop-color="#70B"/><stop offset="100%" stop-color="#00008B"/><stop offset="100%"/></linearGradient><linearGradient id="b" x1="51.025%" x2="48.851%" y1="-1.834%" y2="108.305%"><stop offset="0%" stop-color="#88CFDA"/><stop offset=".834%" stop-color="#89CFD9"/><stop offset="47.84%" stop-color="#C8D9BB"/><stop offset="82.18%" stop-color="#F0DFA7"/><stop offset="100%" stop-color="#FFE1A0"/></linearGradient><linearGradient id="c" x1="49.999%" x2="49.999%" y1="142.004%" y2="-4.333%"><stop offset="0%" stop-color="#70B"/><stop offset="11.78%" stop-color="#6300B3"/><stop offset="39.28%" stop-color="#3800A2"/><stop offset="64.13%" stop-color="#190095"/><stop offset="85.2%" stop-color="#07008E"/><stop offset="100%" stop-color="#00008B"/><stop offset="100%"/></linearGradient><linearGradient id="d" x1="49.999%" x2="49.999%" y1=".679%" y2="101.591%"><stop offset="0%" stop-color="#7633FF"/><stop offset="15.85%" stop-color="#7137FF"/><stop offset="35.35%" stop-color="#6243FF"/><stop offset="56.76%" stop-color="#4957FF"/><stop offset="79.37%" stop-color="#2672FF"/><stop offset="100%" stop-color="#0090FF"/></linearGradient><linearGradient id="e" x1=".005%" x2="100%" y1="49.999%" y2="49.999%"><stop offset="0%" stop-color="#E19000"/><stop offset="20.72%" stop-color="#E39504"/><stop offset="46.2%" stop-color="#E9A410"/><stop offset="74.05%" stop-color="#F3BD23"/><stop offset="100%" stop-color="#FFDB3B"/></linearGradient><linearGradient id="f" x1="44.335%" x2="54.223%" y1="103.199%" y2="-1.641%"><stop offset="0%" stop-color="#E19000"/><stop offset="20.72%" stop-color="#E39504"/><stop offset="46.2%" stop-color="#E9A410"/><stop offset="74.05%" stop-color="#F3BD23"/><stop offset="100%" stop-color="#FFDB3B"/></linearGradient><linearGradient id="g" x1="45.017%" x2="54.985%" y1="97.342%" y2="2.665%"><stop offset="0%" stop-color="#E19000"/><stop offset="20.72%" stop-color="#E39504"/><stop offset="46.2%" stop-color="#E9A410"/><stop offset="74.05%" stop-color="#F3BD23"/><stop offset="100%" stop-color="#FFDB3B"/></linearGradient><linearGradient id="h" x1="50.003%" x2="50.003%" y1="140.136%" y2="13.686%"><stop offset="0%" stop-color="#A1BAFF"/><stop offset="82.21%" stop-color="#FFF"/></linearGradient><linearGradient id="i" x1="19.558%" x2="89.97%" y1="65.072%" y2="38.778%"><stop offset="0%" stop-color="#E19000"/><stop offset="20.72%" stop-color="#E39504"/><stop offset="46.2%" stop-color="#E9A410"/><stop offset="74.05%" stop-color="#F3BD23"/><stop offset="100%" stop-color="#FFDB3B"/></linearGradient><linearGradient id="j" x1="7.053%" x2="92.939%" y1="78.646%" y2="21.357%"><stop offset="0%" stop-color="#E19000"/><stop offset="20.72%" stop-color="#E39504"/><stop offset="46.2%" stop-color="#E9A410"/><stop offset="74.05%" stop-color="#F3BD23"/><stop offset="100%" stop-color="#FFDB3B"/></linearGradient><linearGradient id="k" x1="-.001%" x2="100.005%" y1="50.003%" y2="50.003%"><stop offset="0%" stop-color="#7633FF"/><stop offset="15.85%" stop-color="#7137FF"/><stop offset="35.35%" stop-color="#6243FF"/><stop offset="56.76%" stop-color="#4957FF"/><stop offset="79.37%" stop-color="#2672FF"/><stop offset="100%" stop-color="#0090FF"/></linearGradient><linearGradient id="l" x1=".006%" x2="99.998%" y1="49.973%" y2="49.973%"><stop offset="0%" stop-color="#88CFDA"/><stop offset=".834%" stop-color="#89CFD9"/><stop offset="47.84%" stop-color="#C8D9BB"/><stop offset="82.18%" stop-color="#F0DFA7"/><stop offset="100%" stop-color="#FFE1A0"/></linearGradient><linearGradient id="m" x1=".073%" x2="100.026%" y1="49.957%" y2="49.957%"><stop offset="0%" stop-color="#88CFDA"/><stop offset=".834%" stop-color="#89CFD9"/><stop offset="47.84%" stop-color="#C8D9BB"/><stop offset="82.18%" stop-color="#F0DFA7"/><stop offset="100%" stop-color="#FFE1A0"/></linearGradient><linearGradient id="n" x1="79.378%" x2="38.171%" y1="33.669%" y2="68.946%"><stop offset="0%" stop-color="#A1BAFF"/><stop offset="82.21%" stop-color="#FFF"/></linearGradient><linearGradient id="o" x1="-.006%" x2="100%" y1="49.995%" y2="49.995%"><stop offset="0%" stop-color="#E19000"/><stop offset="20.72%" stop-color="#E39504"/><stop offset="46.2%" stop-color="#E9A410"/><stop offset="74.05%" stop-color="#F3BD23"/><stop offset="100%" stop-color="#FFDB3B"/></linearGradient><linearGradient id="p" x1=".001%" x2="100.002%" y1="49.999%" y2="49.999%"><stop offset="0%" stop-color="#E19000"/><stop offset="20.72%" stop-color="#E39504"/><stop offset="46.2%" stop-color="#E9A410"/><stop offset="74.05%" stop-color="#F3BD23"/><stop offset="100%" stop-color="#FFDB3B"/></linearGradient><linearGradient id="q" x1="34.406%" x2="58.975%" y1="-9.082%" y2="83.997%"><stop offset="0%" stop-color="#88CFDA"/><stop offset=".834%" stop-color="#89CFD9"/><stop offset="47.84%" stop-color="#C8D9BB"/><stop offset="82.18%" stop-color="#F0DFA7"/><stop offset="100%" stop-color="#FFE1A0"/></linearGradient><linearGradient id="r" x1=".012%" x2="100.005%" y1="50.004%" y2="50.004%"><stop offset="0%" stop-color="#7633FF"/><stop offset="15.85%" stop-color="#7137FF"/><stop offset="35.35%" stop-color="#6243FF"/><stop offset="56.76%" stop-color="#4957FF"/><stop offset="79.37%" stop-color="#2672FF"/><stop offset="100%" stop-color="#0090FF"/></linearGradient><linearGradient id="s" x1=".016%" x2="100.071%" y1="49.969%" y2="49.969%"><stop offset="0%" stop-color="#7633FF"/><stop offset="15.85%" stop-color="#7137FF"/><stop offset="35.35%" stop-color="#6243FF"/><stop offset="56.76%" stop-color="#4957FF"/><stop offset="79.37%" stop-color="#2672FF"/><stop offset="100%" stop-color="#0090FF"/></linearGradient><linearGradient id="t" x1="0%" x2="100.002%" y1="50.02%" y2="50.02%"><stop offset="0%" stop-color="#88CFDA"/><stop offset=".834%" stop-color="#89CFD9"/><stop offset="47.84%" stop-color="#C8D9BB"/><stop offset="82.18%" stop-color="#F0DFA7"/><stop offset="100%" stop-color="#FFE1A0"/></linearGradient><linearGradient id="u" x1=".002%" x2="99.94%" y1="49.986%" y2="49.986%"><stop offset="0%" stop-color="#88CFDA"/><stop offset=".834%" stop-color="#89CFD9"/><stop offset="47.84%" stop-color="#C8D9BB"/><stop offset="82.18%" stop-color="#F0DFA7"/><stop offset="100%" stop-color="#FFE1A0"/></linearGradient><linearGradient id="v" x1="50.001%" x2="50.001%" y1="97.928%" y2="-.223%"><stop offset="0%" stop-color="#A1BAFF"/><stop offset="43.32%" stop-color="#FFF"/></linearGradient><linearGradient id="w" x1="49.993%" x2="50.007%" y1="49.962%" y2="50.036%"><stop offset="0%" stop-color="#7633FF"/><stop offset="15.85%" stop-color="#7137FF"/><stop offset="35.35%" stop-color="#6243FF"/><stop offset="56.76%" stop-color="#4957FF"/><stop offset="79.37%" stop-color="#2672FF"/><stop offset="100%" stop-color="#0090FF"/></linearGradient><linearGradient id="x" x1=".001%" x2="100.001%" y1="50.012%" y2="50.012%"><stop offset="0%" stop-color="#7633FF"/><stop offset="15.85%" stop-color="#7137FF"/><stop offset="35.35%" stop-color="#6243FF"/><stop offset="56.76%" stop-color="#4957FF"/><stop offset="79.37%" stop-color="#2672FF"/><stop offset="100%" stop-color="#0090FF"/></linearGradient><linearGradient id="y" x1=".001%" x2="100.003%" y1="49.934%" y2="49.934%"><stop offset="0%" stop-color="#A1BAFF"/><stop offset="43.32%" stop-color="#FFF"/></linearGradient><linearGradient id="z" x1="-.004%" x2="146.116%" y1="50.01%" y2="50.01%"><stop offset="0%" stop-color="#A1BAFF"/><stop offset="74.31%" stop-color="#FFF"/></linearGradient><linearGradient id="A" x1=".001%" x2="100.006%" y1="49.991%" y2="49.991%"><stop offset="0%" stop-color="#7633FF"/><stop offset="15.85%" stop-color="#7137FF"/><stop offset="35.35%" stop-color="#6243FF"/><stop offset="56.76%" stop-color="#4957FF"/><stop offset="79.37%" stop-color="#2672FF"/><stop offset="100%" stop-color="#0090FF"/></linearGradient><linearGradient id="B" x1="74.05%" x2="-13.784%" y1="30.593%" y2="110.771%"><stop offset="0%" stop-color="#A1BAFF"/><stop offset="43.32%" stop-color="#FFF"/></linearGradient><linearGradient id="C" x1="50.289%" x2="49.8%" y1="94.799%" y2="22.222%"><stop offset="0%" stop-color="#A1BAFF"/><stop offset="43.32%" stop-color="#FFF"/><stop offset="57.94%" stop-color="#FBFCFF"/><stop offset="71.23%" stop-color="#F0F4FF"/><stop offset="84%" stop-color="#DEE7FF"/><stop offset="96.37%" stop-color="#C4D4FF"/><stop offset="100%" stop-color="#BBCDFF"/></linearGradient><linearGradient id="D" x1="50.434%" x2="49.626%" y1="92.964%" y2="22.349%"><stop offset="0%" stop-color="#A1BAFF"/><stop offset="43.32%" stop-color="#FFF"/><stop offset="57.94%" stop-color="#FBFCFF"/><stop offset="71.23%" stop-color="#F0F4FF"/><stop offset="84%" stop-color="#DEE7FF"/><stop offset="96.37%" stop-color="#C4D4FF"/><stop offset="100%" stop-color="#BBCDFF"/></linearGradient><linearGradient id="E" x1="44.694%" x2="57.897%" y1="9.516%" y2="106.498%"><stop offset="0%" stop-color="#311341"/><stop offset="63.46%" stop-color="#3113C2"/><stop offset="69.06%" stop-color="#2F18C5"/><stop offset="75.95%" stop-color="#2927CC"/><stop offset="83.51%" stop-color="#1F40D8"/><stop offset="91.55%" stop-color="#1263E9"/><stop offset="99.9%" stop-color="#008FFF"/><stop offset="100%" stop-color="#0090FF"/></linearGradient><linearGradient id="F" x1=".016%" x2="99.974%" y1="49.993%" y2="49.993%"><stop offset="0%" stop-color="#A1BAFF"/><stop offset="43.32%" stop-color="#FFF"/></linearGradient><linearGradient id="G" x1=".008%" x2="100.06%" y1="49.871%" y2="49.871%"><stop offset="0%" stop-color="#88CFDA"/><stop offset="5.06%" stop-color="#93D1D5"/><stop offset="25.02%" stop-color="#BAD7C2"/><stop offset="44.81%" stop-color="#D8DBB3"/><stop offset="64.14%" stop-color="#EEDEA8"/><stop offset="82.79%" stop-color="#FBE0A2"/><stop offset="100%" stop-color="#FFE1A0"/></linearGradient><linearGradient id="H" x1=".012%" x2="100.005%" y1="49.99%" y2="49.99%"><stop offset="0%" stop-color="#88CFDA"/><stop offset="5.06%" stop-color="#93D1D5"/><stop offset="25.02%" stop-color="#BAD7C2"/><stop offset="44.81%" stop-color="#D8DBB3"/><stop offset="64.14%" stop-color="#EEDEA8"/><stop offset="82.79%" stop-color="#FBE0A2"/><stop offset="100%" stop-color="#FFE1A0"/></linearGradient><linearGradient id="I" x1="40.311%" x2="67.11%" y1="4.893%" y2="129.887%"><stop offset="0%" stop-color="#311341"/><stop offset="63.46%" stop-color="#3113C2"/><stop offset="69.06%" stop-color="#2F18C5"/><stop offset="75.95%" stop-color="#2927CC"/><stop offset="83.51%" stop-color="#1F40D8"/><stop offset="91.55%" stop-color="#1263E9"/><stop offset="99.9%" stop-color="#008FFF"/><stop offset="100%" stop-color="#0090FF"/></linearGradient><linearGradient id="J" x1=".002%" x2="146.109%" y1="50.005%" y2="50.005%"><stop offset="0%" stop-color="#A1BAFF"/><stop offset="74.31%" stop-color="#FFF"/></linearGradient><linearGradient id="K" x1="100.014%" x2=".011%" y1="50.003%" y2="50.003%"><stop offset="0%" stop-color="#7633FF"/><stop offset="15.85%" stop-color="#7137FF"/><stop offset="35.35%" stop-color="#6243FF"/><stop offset="56.76%" stop-color="#4957FF"/><stop offset="79.37%" stop-color="#2672FF"/><stop offset="100%" stop-color="#0090FF"/></linearGradient><linearGradient id="L" x1="56.651%" x2="47.287%" y1="10.965%" y2="107.326%"><stop offset="0%" stop-color="#3822D1"/><stop offset="16.52%" stop-color="#3527D3"/><stop offset="36.84%" stop-color="#2E36DA"/><stop offset="59.16%" stop-color="#214FE4"/><stop offset="82.72%" stop-color="#0F72F2"/><stop offset="100%" stop-color="#0090FF"/></linearGradient><linearGradient id="M" x1="100.018%" x2=".033%" y1="49.965%" y2="49.965%"><stop offset="0%" stop-color="#88CFDA"/><stop offset="5.06%" stop-color="#93D1D5"/><stop offset="25.02%" stop-color="#BAD7C2"/><stop offset="44.81%" stop-color="#D8DBB3"/><stop offset="64.14%" stop-color="#EEDEA8"/><stop offset="82.79%" stop-color="#FBE0A2"/><stop offset="100%" stop-color="#FFE1A0"/></linearGradient></defs><g fill="none" fill-rule="evenodd"><path fill="url(#a)" fill-rule="nonzero" d="M114.76 545.61S6.55 521.96.9 419.7c-6.63-119.88 113.86-142.78 113.86-142.78S96.68 122.71 323.2 122.71c290.37 0 280.73 185.55 280.73 185.55s74.7-6.02 122.9 66.27c68.43 102.65-22.89 181.93-22.89 181.93"/><g fill-rule="nonzero" transform="translate(27 304)"><path fill="#FFF" d="M148.64 12.99c0 1.08-.9 1.96-2.01 1.96-1.11 0-2.01-.88-2.01-1.96s.9-1.96 2.01-1.96c1.11 0 2.01.88 2.01 1.96ZM311.14 144.83c0 .58-.43 1.05-.97 1.05-.53 0-.97-.47-.97-1.05 0-.58.43-1.05.97-1.05.54-.01.97.46.97 1.05ZM183.19 40.52c0 1.08-.9 1.96-2.01 1.96-1.11 0-2.01-.88-2.01-1.96s.9-1.96 2.01-1.96c1.11 0 2.01.88 2.01 1.96ZM35.03 120.18c0 1.08-.9 1.96-2.01 1.96-1.11 0-2.01-.88-2.01-1.96s.9-1.96 2.01-1.96c1.11.01 2.01.88 2.01 1.96ZM82.84 104.94c0 1.08-.9 1.96-2.01 1.96-1.11 0-2.01-.88-2.01-1.96s.9-1.96 2.01-1.96c1.11 0 2.01.88 2.01 1.96ZM4.27 87.11c0 1.08-.9 1.96-2.01 1.96-1.11 0-2.01-.88-2.01-1.96s.9-1.96 2.01-1.96c1.11 0 2.01.87 2.01 1.96ZM162 91c0 1.08-.9 1.96-2.01 1.96-1.11 0-2.01-.88-2.01-1.96s.9-1.96 2.01-1.96c1.11.01 2.01.88 2.01 1.96Z"/><circle cx="84.14" cy="41.6" r="41.57" fill="url(#b)" opacity=".8"/></g><path fill="#FFF" fill-rule="nonzero" d="M38 422.48h87.11c4.74-2.45 7.97-7.4 7.97-13.12 0-7.4-5.43-13.53-12.51-14.58.01-.24.02-.48.02-.72 0-8.66-7.16-15.68-15.99-15.68-.92 0-1.83.08-2.71.23-3.81-6.61-11.24-11.09-19.78-11.09-9.95 0-18.39 6.09-21.35 14.53-.93-.19-1.9-.29-2.88-.29-8.49 0-15.36 7.3-15.36 16.3 0 1.01.09 2 .25 2.96-6.42.41-11.5 5.33-11.5 11.34 0 4.41 2.73 8.24 6.73 10.12Z" opacity=".1"/><ellipse cx="390.19" cy="560.04" fill="url(#c)" fill-rule="nonzero" rx="327.84" ry="25.82"/><g fill-rule="nonzero"><path fill="#FFF" d="M513.81 492.3h-73.5v-9.04h73.5c12.1 0 21.8-3.77 28.83-11.21 15.1-16 13.67-43.96 13.65-44.24l-.01-.14.33-174.7 9.03-.25-.33 174.64c.12 2.15 1.43 32.28-16.07 50.87-8.8 9.33-20.72 14.07-35.43 14.07ZM255.68 492.3h73.5v-9.04h-73.5c-12.1 0-21.8-3.77-28.83-11.21-15.1-16-13.67-43.96-13.65-44.24l.01-.14-.33-174.7-9.03-.25.33 174.64c-.12 2.15-1.43 32.28 16.07 50.87 8.8 9.33 20.72 14.07 35.43 14.07ZM309.4 238.13h8.13v141.51h-8.13zM390.42 238.13h8.13V395h-8.13zM471.45 238.13h8.13V395h-8.13z"/><path fill="url(#d)" d="M33.31 265.48H453.4c22.84-11.79 38.46-35.69 38.46-63.25 0-35.69-26.19-65.24-60.33-70.31.05-1.16.08-2.32.08-3.48 0-41.76-34.52-75.6-77.11-75.6-4.45 0-8.81.37-13.06 1.08C323.09 22.06 287.26.42 246.06.42c-48 0-88.71 29.37-102.98 70.06-4.5-.91-9.14-1.39-13.89-1.39-40.92 0-74.1 35.2-74.1 78.62 0 4.88.42 9.66 1.23 14.29C25.34 163.98.88 187.7.88 216.68c0 21.27 13.17 39.71 32.43 48.8Z" transform="translate(144)"/></g><g fill-rule="nonzero"><path fill="url(#e)" d="M89.59 30.77 45.35 96.79.64 66.83 44.89.81z" transform="translate(340 147)"/><path fill="#FFF" d="m384.4 236.61-14.38-29.41 17.48-9.69s.58-41.02 1.15-40.63c.58.39 33.94 22.74 33.94 22.74l-38.19 56.99Z"/><path fill="#FFF" d="M374.06 192.3c-2.79-1.87-3.53-5.65-1.67-8.44 1.87-2.79 5.65-3.53 8.44-1.67a6.085 6.085 0 0 1 1.67 8.44 6.085 6.085 0 0 1-8.44 1.67Z"/></g><g fill-rule="nonzero"><path fill="url(#f)" d="M47.92 11.25 20.53 33.5l-2.88-14.82L39.52.92z" transform="translate(546 164)"/><path fill="url(#g)" d="M68.25 36.28 25.02 71.39.4 41.08 43.63 5.97z" transform="translate(546 164)"/></g><g fill-rule="nonzero" transform="translate(444 241)"><path fill="#A600A9" d="M.2.83h63.09v42.73H.2z"/><path fill="url(#h)" d="m4.51 39.76 13.04-22.48 14.12 7.25S58.98 6.78 58.98 7.33v32.44H4.51v-.01Z"/><circle cx="33.986" cy="13.345" r="4.83" fill="#FFF" transform="rotate(-19.33 33.986 13.345)"/></g><g fill-rule="nonzero"><path fill="url(#i)" d="M57.81 15.26 22.49 13.8 30.15.77l28.21 1.17z" transform="translate(367 304)"/><path fill="url(#j)" d="M56.47 47.54.73 45.24 2.34 6.15l55.75 2.3z" transform="translate(367 304)"/></g><g fill-rule="nonzero" transform="translate(280 276)"><path fill="url(#k)" d="M.34.77h63.09V43.5H.34z"/><path fill="url(#l)" d="m4.65 39.7 13.04-22.48 14.12 7.25S59.12 6.72 59.12 7.27v32.44H4.65v-.01Z"/><circle cx="34.13" cy="13.3" r="4.83" fill="url(#m)"/></g><g fill-rule="nonzero"><path fill="#4B00A9" d="m177.522 209.307 26.915-33.184 48.996 39.74-26.916 33.184z"/><path fill="url(#n)" d="m70.71 40.11-24.29 9.25-6.4-14.52S7.63 31.42 7.98 30.99L28.41 5.8l42.3 34.31Z" transform="translate(177 176)"/><path fill="#FFF" d="M211.93 221.08a4.828 4.828 0 1 1-7.5-6.08 4.828 4.828 0 0 1 7.5 6.08Z"/></g><g fill-rule="nonzero"><path fill="url(#o)" d="M75.18 54.43 45.06 24.18l17.48-5.27 24.05 24.15z" transform="translate(226 95)"/><path fill="url(#p)" d="M47.54 81.95 0 34.22 33.47.89l47.54 47.73z" transform="translate(226 95)"/></g><g fill-rule="nonzero"><path fill="url(#q)" d="M84.25 38.79 27.61 78.25.88 39.89 57.53.43z" transform="translate(336 24)"/><path fill="url(#r)" d="M29.1 72.14 26.74 43.8l17.21-2.33S57.36 8.45 57.71 8.95C58.06 9.45 78 38.07 78 38.07L29.1 72.14Z" transform="translate(336 24)"/><path fill="url(#s)" d="M34.72 33.02a5.277 5.277 0 0 1 1.31-7.35 5.277 5.277 0 0 1 7.35 1.31 5.277 5.277 0 0 1-1.31 7.35 5.28 5.28 0 0 1-7.35-1.31Z" transform="translate(336 24)"/></g><g fill-rule="nonzero"><path fill="#4B00A9" d="m440.892 128.397 26.652-46.76 69.043 39.354-26.652 46.76z"/><path fill="url(#t)" d="m7.98 45.94 28.29-16.47L47.2 46.2s40.96-2.39 40.61-1.79c-.35.6-20.23 35.49-20.23 35.49L7.98 45.94Z" transform="translate(440 81)"/><path fill="url(#u)" d="M51.43 32.43c1.66-2.92 5.38-3.93 8.3-2.27 2.92 1.66 3.93 5.38 2.27 8.29-1.66 2.92-5.38 3.94-8.29 2.27a6.06 6.06 0 0 1-2.28-8.29Z" transform="translate(440 81)"/></g><g fill-rule="nonzero"><path fill="#00759F" d="M269.01 543.13s-9.61 13.04-42.24 12.25c-23.78-.57-47.35-18.57-47.35-18.57s40.35-26.75 89.59 6.32Z"/><path fill="#005CB4" d="M268.5 544.49s-19.68 2.12-45.94-27.89c-19.14-21.88-22.42-57.97-22.42-57.97s57.43 14.22 68.36 85.86Z"/><path fill="#741AAC" d="M267.61 543.96s-17.94-8.37-24.87-47.64c-5.06-28.62 10.82-61.21 10.82-61.21s41.77 41.89 14.05 108.85Z"/></g><g fill-rule="nonzero"><path fill="#00759F" d="M519.91 532.57s9.61 13.04 42.24 12.25c23.78-.57 47.35-18.57 47.35-18.57s-40.35-26.74-89.59 6.32Z"/><path fill="#005CB4" d="M520.42 533.94s19.68 2.12 45.94-27.89c19.14-21.88 22.42-57.97 22.42-57.97s-57.43 14.22-68.36 85.86Z"/><path fill="#741AAC" d="M521.31 533.41s17.94-8.37 24.87-47.64c5.06-28.62-10.82-61.21-10.82-61.21s-41.77 41.89-14.05 108.85Z"/></g><path fill="#000" fill-rule="nonzero" d="M531.24 542.83c0 5.9-4.78 10.68-10.68 10.68H269.51c-5.9 0-10.68-4.78-10.68-10.68V384.07c0-5.9 4.78-10.68 10.68-10.68h251.05c5.9 0 10.68 4.78 10.68 10.68v158.76Z"/><path fill="url(#v)" fill-rule="nonzero" d="M44.77 14.34H288.4v153.12H44.77z" transform="translate(228 373)"/><path fill="url(#w)" fill-rule="nonzero" d="M.26 180.81h333.25v6.23H.26z" transform="translate(228 373)"/><path fill="#000" fill-rule="nonzero" d="M228.26 560.04s5.04 8.01 20.48 8.01h293.19s9.79 1.78 19.59-8.01H228.26Z"/><path fill="url(#x)" d="M44.77 21.87h244.05V40.6H44.77z" transform="translate(228 373)"/><path fill="#FFF" fill-rule="nonzero" d="M483.79 404.4c0 2.51-2.03 4.54-4.54 4.54H317.12c-2.51 0-4.54-2.03-4.54-4.54 0-2.51 2.03-4.54 4.54-4.54h162.14c2.5 0 4.53 2.04 4.53 4.54Z"/><path fill="url(#y)" d="M44.77 14.34h243.61v7.54H44.77z" transform="translate(228 373)"/><ellipse cx="169.19" cy="555.59" fill="url(#z)" fill-rule="nonzero" rx="55.38" ry="8.14"/><path fill="#000" fill-rule="nonzero" d="m186.27 373-7.38 32.42c-.2.88.4 1.75 1.29 1.88l22.98 3.3c.8.11 1.55-.4 1.73-1.19l7.38-32.42c.2-.88-.39-1.75-1.29-1.88l-22.98-3.3c-.79-.12-1.55.4-1.73 1.19Z"/><path fill="url(#A)" fill-rule="nonzero" d="M9.71 3.05 2.64 34.09l22.81 3.28 7.07-31.05z" transform="translate(178 371)"/><path stroke="#A1D2F0" stroke-linecap="round" stroke-linejoin="round" stroke-width="1.481" d="m208.11 379.61-19.39-2.79M207.45 382.54l-19.38-2.78M199.38 384.98l-12.11-1.74M198.52 387.5l-12.12-1.74M197.66 390.02l-12.12-1.74M202.1 403.96l-12.11-1.74"/><path fill="url(#B)" fill-rule="nonzero" d="M37.43 69.81c1.3-.61 2.27-1.75 3.19-2.85.91-1.09 1.83-2.17 2.74-3.26.36-.43.74-.9.78-1.46-1.53-.12-2.52 1.86-4.05 1.98.71-2.52 1.74-4.95 3.04-7.22.32-.55.66-1.2.44-1.8-1.65.63-3.05 1.81-4.25 3.1-.85.91-1.62 1.89-2.3 2.93-2.02 3.06-3.27 6.57-4.12 10.13" transform="translate(140 336)"/><g fill-rule="nonzero"><path fill="#F2A181" d="m170.89 451.56-7.13 16.37c3.01 5.08 4.75 11.08 4.98 17.16.12 3.16-.16 6.32-.07 9.48.01.22.04.46.1.69.96-4.68 1.67-8.54 1.95-11.06.78-7.04.78-18.22.54-32.66-.13.01-.25 0-.37.02Z"/><path fill="url(#C)" d="M22.84 13.93 6.43.09s-7.64 10.36-4.76 20.35c1.42 4.91 3.19 7.35 3.96 9.68.72 2.18 5.66 33 5.29 35.26-.37 2.25-3.02 8.56-4.03 15.19-1.11 7.29-1.04 29.63-1.74 38.67h-.01s-.56 6.74-1.36 8.21c-.8 1.47-1.91 3.11-2.11 5.11-.11 1.15.53 2.38 1.86 3.06 1.33.68 2.22-.03 2.69.03 2.78.34 3.27 2.45 8.04 3.23 1.47.24 3.72-.25 5.01-1.27.5-.4.48-1.04.2-1.48-.28-.44-3.8-1.65-5.39-2.66-1.51-.97-2.99-3.65-3.4-4.57-.11-.24-.08-.9.01-1.75.22-1.44.46-2.94.72-4.49.21-1.1.38-1.91.38-1.91l-.05-.01c3.47-19.63 9.94-45.58 10.94-54.52 1.13-9.98.68-28.22.16-52.29Z" transform="translate(148 418)"/><path fill="#000" d="M167.66 555.94c.35-.59.44-1.49.11-1.71-.45-.31-2.04-1.36-2.97-1.79-.93-.42-2.39-.8-1.87-.52s-.43 1.32-1.3 1.27c-2.99-.18-5.19-2.17-6.9-2.6-2.46-.61-3.49-3.52-3.6-3.99-.47.29-1.55 2.63-1.76 3.37-.2.66-.55 1.88-.36 2.57.13.48.42 1.44.27 2.45 0 0 .48.37 1.77.64.81.17 1.9.03 1.9.03l.21-1.54s.67-.02 1.52.15c.85.18 2.24.99 2.32 1.08.34.41.61 1.15 1.07 1.38 1.19.6 2.4.89 3.92.98 3.21.18 5.08-.75 5.67-1.77Z"/></g><g fill-rule="nonzero"><path fill="url(#D)" d="M39.25 139.64c-.35-.39-4.15-1.01-5.94-1.75-1.7-.71-3.76-2.99-4.16-3.96-.4-.97-.31-5.87-.26-7.93.36-14.19 2.98-48.85 3.36-57.16.66-14.43-1.21-29.32-6.77-52.49L4.81.48S-.98 11.24.96 21.53c1.13 5.97 6.08 6.89 6.92 9.21.84 2.32 13.34 39.73 13.34 39.73s-2.43 8.09-2.58 16.95c-.12 7.56 3.31 30.38 3.95 39.07.07 1.7.37 5.77-.13 7.06-.61 1.59-2.18 3.45-2.1 5.45.04 1.16.88 2.27 2.35 2.72 1.46.45 2.28-.39 2.78-.41 2.92-.12 3.72 1.88 8.75 1.88 1.55 0 3.8-.86 4.99-2.08.48-.45.37-1.08.02-1.47Z" transform="translate(154 416)"/><path fill="#000" d="M193.68 557.42c.27-.65.24-1.55-.13-1.71-.51-.23-2.3-1.01-3.32-1.28-1.01-.27-2.58-.4-2.01-.21.57.19-.26 1.38-1.16 1.47-3.11.31-5.66-1.3-7.48-1.44-2.62-.21-3.59-2.9-3.76-3.35-.44.37-1.73 2.85-1.86 3.62-.11.69-.3 1.95-.01 2.6.2.45.64 1.35.63 2.38 0 0 .55.29 1.91.34.86.03 1.97-.28 1.97-.28V558s.69-.13 1.59-.1c.9.03 2.02.49 2.56.91.43.32.88.86 1.38.99 1.46.37 2.5.47 4.08.31 3.34-.37 5.14-1.59 5.61-2.69Z"/></g><path fill="url(#E)" fill-rule="nonzero" d="M14.87 80.35c-1.4 1.54-6.4 9.87-6.46 16.66-.05 6.78 2.36 11.13 2.58 12.55 1.59 10.36 3.12 22.85 3.12 23.53 0 .68 5.88 4.6 13.79 4.1 14.61-.92 20.29-4.75 20.29-4.75s-.69-25.09-2.95-37.47c-1.13-6.2-6.04-16.18-6.04-16.18" transform="translate(140 336)"/><path fill="#FFF" fill-rule="nonzero" d="M141.54 389.25s2.35 11.69 2.97 13.77c.62 2.08 3.67 15.29 6.57 15.06 2.89-.23 18.74-13.46 18.74-13.46l-2.24-4.49-13.95 6.65s-1.26-15.1-2.37-18.7"/><path fill="url(#F)" fill-rule="nonzero" d="M6.93 60.45c1.48 5.22 4.5 10.72 5.41 14.77.18.81 9.84-2.7 9.87-6.33" transform="translate(140 336)"/><path fill="#B03D44" fill-rule="nonzero" d="M145.69 382.45s-.51 9.77 1.26 14.7c1.75-.03 3.28-.43 3.28-.43l-4.54-14.27Z"/><path fill="#FFF" fill-rule="nonzero" d="M173.1 342.39c2.79 3.61 2.24 8.7 1.55 13.21-.35 2.28-.7 4.56-1.04 6.84-.16 1.08-.38 2.27-1.23 2.97-.85.7-2.07.69-3.17.65l.03 5.67c-3.23.08-6.46.09-9.69.04 0-1.32-.29-2.64-.84-3.85-1.58-.03-2.64-1.62-3.26-3.07-.71-1.68-1.23-3.43-1.74-5.18-.67-2.33-1.31-4.69-1.37-7.11-.06-2.42.51-4.93 2.05-6.8 1.05-1.27 2.47-2.18 3.94-2.94 2-1.04 4.41-1.87 6.48-.96"/><path fill="#000" fill-rule="nonzero" d="M170.28 350.68c.25.4.19.93.43 1.34.4.69.93.93 1.65 1.27 1.16.54.89 2.23.86 2.99.88-.58 1.02-2.17 1.23-2.97.24-.9.39-1.83.65-2.73.26-.87.7-1.7.78-2.61.28-3.17-1.71-6.9-4.11-8.68-1.75-1.3-4.42-1.24-6.4.08-.83.55-1.46 1.39-1.83 2.33-.16.4-.27.87-.07 1.25"/><path fill="url(#G)" fill-rule="nonzero" d="M14.73 37.09c.16-1.11.46-2.4 1.49-2.83.29-.12.6-.16.91-.19a75.2 75.2 0 0 1 9.49-.45c1.31.02 2.67.09 3.84.67 1.84.92 2.85 2.9 3.74 4.76" transform="translate(140 336)"/><path fill="#B03D44" fill-rule="nonzero" d="M180.34 394.29c0 1.03-.58 2.42-.76 2.96-.72.37-3.58.99-5.22.24-.36-3.42-2.36-9.99-2.36-9.99s8.34 5.83 8.34 6.79Z"/><g fill-rule="nonzero"><path fill="#FFF" d="M176.67 391.91s9.47 22.88 13.57 22.88c2.99 0 10.31-21.12 10.31-21.12l-4.63-2.19-5.16 8.85-5.23-16.5"/><path fill="#FFF" d="M195.01 393.05s1.53-2.42 1.42-4.13c-.04-.65-.43-3.76-.11-4.37.32-.61 1.1-2.61 1.55-3 .44-.39 2.09-1.01 2.49-.74.4.28.9-1 1.57-.89.67.11 1.22.67 1.22 1.28s.89.72 1 1.17c.11.44.06.83.22 1.17.17.33.66.17.83 1 .16.76-.06.84 0 1.22.06.39.39.35.28 1.09-.11.74-.62 1.7-1.06 2.54-.44.83-1.36 1.88-2.58 2.61-.6.36-.93 1-1.51 2.08"/><path fill="#000" d="M197.55 375.37c-.12-.18-.44-.49-.82-.22-.38.27-.26.72-.18.91l2.8 6.33s.23.26.66-.12c.47-.41.32-.62.32-.62s-2.66-6.1-2.78-6.28Z"/><path fill="#000" d="M200.5 381.24c-.53.95-1.15 1.26-1.71 1.78-.44.41-.38.67-.86 1.09.84-.06.7-.56 1.79-1.35.51-.36 1.03-.76 1.13-1.38.03-.21-.22-.32-.35-.14Z"/></g><path fill="url(#H)" fill-rule="nonzero" d="M40.35 60.07c3.05-.56 5.41-2.68 7.84-5.15-1.35-3.72-3.26-12.88-6.6-16.37-3.44-3.6-9.26-3.16-12.37-3.05-3.22-.14-5.88.24-9.74.41-2.56.11-5.12.41-7.64.97-.29.06-.57.13-.85.2l-.01-.03s-4.63.49-6.97 2.29c-5.98 4.58-1.35 21.19-1.35 21.19s-.29.89 3.72.66c.68-.04 1.34-.11 1.97-.19 2.09 4.9 7.35 15 5.81 17.16-.4.56-1.4 1.63-1.52 2.33-.44 2.57 5.36 3.47 7.85 3.68 3.78.31 8.13.1 11.92-.07 2.88-.14 9.16-1.14 9.61-4.69.09-.7-.26-1.26-.6-1.77-.44-.65-1.46-1.43-1.82-2.15-.88-1.72-1.64-8.97-1.34-10.82.25-1.47 1.26-2.44 2.09-4.6Z" transform="translate(140 336)"/><path fill="url(#I)" fill-rule="nonzero" d="M30.7 136.96c-.93-6.02-6.7-24.68-6.94-25.2-3.14-2.43-5.21-4.95-6.26-6.98-.71 4.09 1.16 8.14 2.9 11.9 3.05 6.58 4.86 13.73 7.49 20.49" transform="translate(140 336)"/><path fill="#000" fill-rule="nonzero" d="M169.76 359.61c-.38-1.9-.35-2.97.27-4.23.21-.42.48-.81.85-1.07.5-.35 1.17-.42 1.73-.18.36.16.66.45.87.81.66-2.55.8-5.27.61-7.91-.3-4.2-2.83-7.45-6.53-8.96-6.84-2.81-16.67-.03-19.45 6.68-2.1 5.07-1.03 12.4 2.98 16.65 3.56 3.77 8.67 4.32 13.4 3.54 2.42-.4 6.15-.16 7.4-3.44.1-.25-.12-.51-.38-.49-1 .06-1.68-1.05-1.75-1.4Z"/><path fill="#000" fill-rule="nonzero" d="M156.41 362.57c-1.97-.56-4.1.55-5.41 2.13-1.52 1.82-2.18 4.64-.76 6.54.53.71 1.28 1.21 2.06 1.64 2.35 1.31 5.13 2.08 7.74 1.44 2.61-.64 4.9-2.98 4.87-5.67-.03-2.43-1.8-4.46-3.6-6.11"/><path fill="#FFF" fill-rule="nonzero" d="M684.97 347.01c0 1.08-.9 1.96-2.01 1.96-1.11 0-2.01-.88-2.01-1.96s.9-1.96 2.01-1.96c1.11 0 2.01.88 2.01 1.96ZM719.52 374.54c0 1.08-.9 1.96-2.01 1.96-1.11 0-2.01-.88-2.01-1.96s.9-1.96 2.01-1.96c1.11.01 2.01.88 2.01 1.96ZM531.5 319.5c0 1.08-.9 1.96-2.01 1.96-1.11 0-2.01-.88-2.01-1.96s.9-1.96 2.01-1.96c1.11 0 2.01.88 2.01 1.96ZM450.52 342.56c0 1.08-.9 1.96-2.01 1.96-1.11 0-2.01-.88-2.01-1.96s.9-1.96 2.01-1.96c1.11.01 2.01.88 2.01 1.96ZM540.6 421.13c0 1.08-.9 1.96-2.01 1.96-1.11 0-2.01-.88-2.01-1.96s.9-1.96 2.01-1.96c1.11 0 2.01.88 2.01 1.96ZM698.33 425.02c0 1.08-.9 1.96-2.01 1.96-1.11 0-2.01-.88-2.01-1.96s.9-1.96 2.01-1.96c1.11.01 2.01.88 2.01 1.96Z"/><path fill="url(#J)" fill-rule="nonzero" d="M676.52 554.24c0 6.12-24.85 11.09-55.51 11.09-30.66 0-55.51-4.96-55.51-11.09 0-6.12 24.85-11.09 55.51-11.09 30.66 0 55.51 4.97 55.51 11.09Z"/><path fill="#000" fill-rule="nonzero" d="m602.74 368.99 7.36 32.34c.2.88-.39 1.75-1.29 1.87l-22.91 3.29c-.8.11-1.55-.4-1.73-1.19l-7.36-32.34c-.2-.88.39-1.75 1.29-1.88l22.91-3.29c.8-.1 1.55.41 1.73 1.2Z"/><path fill="url(#K)" fill-rule="nonzero" d="m25.31 3.03 7.04 30.96L9.6 37.26 2.55 6.3z" transform="translate(576 367)"/><path stroke="#A1D2F0" stroke-linecap="round" stroke-linejoin="round" stroke-width="1.436" d="m580.96 375.58 19.34-2.78M581.61 378.51l19.34-2.78M589.66 380.93l12.09-1.73M590.52 383.45l12.09-1.74M591.38 385.96l12.09-1.73M586.95 399.86l12.08-1.73"/><path fill="#000" fill-rule="nonzero" d="M611.56 401.71c-1.3-.61-2.26-1.74-3.19-2.84-.91-1.08-1.82-2.17-2.73-3.25-.36-.43-.74-.9-.78-1.45 1.53-.12 2.51 1.86 4.04 1.97-.71-2.51-1.73-4.94-3.03-7.2-.32-.55-.66-1.2-.44-1.79 1.65.63 3.04 1.8 4.24 3.1.84.91 1.61 1.89 2.3 2.92 2.01 3.05 3.26 6.55 4.11 10.1"/><g fill-rule="nonzero"><path fill="#F2A181" d="m618.08 447.34 7.12 16.33c-3 5.07-4.74 11.05-4.97 17.11-.12 3.15.16 6.31.07 9.46-.01.22-.04.46-.1.69-.95-4.67-1.66-8.52-1.94-11.03-.78-7.02-.78-18.17-.53-32.57.11 0 .23-.01.35.01Z"/><path fill="#000" d="m618.12 427.76 16.36-13.8s7.62 10.33 4.75 20.29c-1.41 4.9-3.18 7.33-3.95 9.65-.72 2.17-5.64 32.91-5.27 35.16.37 2.25 3.01 8.54 4.02 15.15 1.11 7.27 1.03 29.55 1.73 38.57h.01s.56 6.72 1.35 8.19c.79 1.47 1.91 3.11 2.1 5.09.12 1.15-.53 2.37-1.85 3.05-1.32.68-2.21-.03-2.69.03-2.77.34-3.27 2.44-8.02 3.22-1.47.24-3.71-.25-5-1.27-.5-.39-.48-1.03-.2-1.47.28-.44 3.79-1.64 5.37-2.66 1.51-.97 2.98-3.64 3.4-4.56.1-.24.08-.9-.01-1.74-.21-1.44-.46-2.94-.72-4.48-.21-1.1-.38-1.9-.38-1.9l.05-.01c-3.47-19.58-9.92-45.45-10.91-54.37-1.1-9.94-.65-28.13-.14-52.14Z"/><path fill="#000" d="M621.3 551.44c-.35-.59-.44-1.49-.11-1.71.45-.3 2.04-1.36 2.96-1.78.92-.42 2.38-.8 1.87-.52-.51.28.43 1.32 1.3 1.27 2.98-.18 5.18-2.16 6.88-2.59 2.45-.61 3.48-3.51 3.59-3.98.46.29 1.54 2.63 1.76 3.36.2.66.55 1.87.36 2.56-.13.48-.42 1.44-.27 2.44 0 0-.48.37-1.76.64-.81.17-1.9.03-1.9.03l-.21-1.54s-.67-.02-1.52.15c-.85.18-2.23.98-2.32 1.08-.34.41-.61 1.15-1.06 1.37-1.19.6-2.39.89-3.91.98-3.2.18-5.07-.75-5.66-1.76Z"/></g><g fill="#000" fill-rule="nonzero"><path d="M595.78 551.14c.35-.39 4.14-1 5.92-1.75 1.69-.71 3.74-2.98 4.14-3.95.4-.96.31-5.86.26-7.91-.35-14.15-2.97-48.72-3.35-57-.66-14.39 1.21-29.25 6.75-52.35l20.62-15.82s5.77 10.73 3.84 21c-1.12 5.95-6.06 6.87-6.9 9.19-.83 2.31-13.31 39.63-13.31 39.63s2.43 8.07 2.57 16.91c.12 7.54-3.3 30.3-3.94 38.97-.07 1.69-.37 5.75.13 7.04.61 1.58 2.17 3.44 2.09 5.44-.04 1.16-.88 2.26-2.34 2.72-1.46.45-2.28-.39-2.78-.41-2.91-.12-3.71 1.88-8.73 1.88-1.55 0-3.79-.85-4.98-2.07-.45-.5-.34-1.13.01-1.52Z"/><path d="M595.35 552.91c-.27-.64-.24-1.54.13-1.71.5-.23 2.3-1.01 3.31-1.28 1.01-.27 2.57-.4 2-.21-.57.19.26 1.38 1.16 1.46 3.1.31 5.65-1.29 7.46-1.43 2.61-.21 3.58-2.9 3.75-3.34.44.37 1.73 2.85 1.85 3.61.11.69.3 1.94.01 2.59-.2.45-.64 1.35-.63 2.37 0 0-.55.29-1.91.34-.86.03-1.96-.28-1.96-.28v-1.56s-.69-.13-1.59-.1c-.9.03-2.01.49-2.56.9-.43.32-.87.86-1.38.99-1.45.37-2.49.47-4.07.31-3.31-.34-5.1-1.56-5.57-2.66Z"/></g><path fill="url(#L)" fill-rule="nonzero" d="M58.06 79.22c1.4 1.54 6.39 9.85 6.44 16.61.05 6.76-2.35 11.1-2.57 12.51-1.58 10.33 5.03 62.35 5.03 63.03 0 .68-8.41 7.48-16.26 8.38-17.25 1.97-33.51-5.42-33.51-5.42s2.96-39.92 10.58-80.53c1.16-6.18 6.03-16.14 6.03-16.14" transform="translate(576 333)"/><path fill="#000" fill-rule="nonzero" d="M647.35 385.2s-2.35 11.66-2.96 13.74c-.62 2.08-3.66 15.25-6.55 15.02-2.89-.23-18.69-13.43-18.69-13.43l2.24-4.48 13.92 6.63s1.26-15.06 2.36-18.65"/><path fill="#B03D44" fill-rule="nonzero" d="M643.21 378.41s.51 9.74-1.26 14.66c-1.74-.03-3.27-.43-3.27-.43l4.53-14.23Z"/><path fill="#FFF" fill-rule="nonzero" d="M615.87 338.46c-2.78 3.6-2.23 8.67-1.54 13.17.35 2.27.69 4.55 1.04 6.83.16 1.08.38 2.26 1.23 2.96.85.7 2.06.69 3.16.64l-.03 5.65c3.22.08 6.44.09 9.67.04 0-1.32.29-2.64.83-3.84 1.58-.03 2.63-1.61 3.25-3.06.71-1.67 1.23-3.42 1.73-5.17.67-2.32 1.31-4.68 1.37-7.09.06-2.41-.51-4.92-2.04-6.78-1.05-1.27-2.47-2.17-3.93-2.93-2-1.04-4.4-1.87-6.46-.95"/><path fill="#000" fill-rule="nonzero" d="M618.68 346.72c-.25.4-.19.93-.43 1.34-.4.68-.93.93-1.65 1.26-1.16.54-.89 2.22-.85 2.98-.87-.58-1.01-2.16-1.23-2.97-.24-.9-.39-1.83-.65-2.72-.26-.87-.7-1.69-.78-2.61-.28-3.17 1.7-6.88 4.1-8.66 1.75-1.29 4.41-1.24 6.39.08.83.55 1.46 1.39 1.82 2.32.16.4.27.86.07 1.24"/><path fill="url(#M)" fill-rule="nonzero" d="M58.19 36.07c-.16-1.1-.46-2.39-1.49-2.82-.28-.12-.6-.16-.91-.19-3.14-.35-6.31-.5-9.47-.45-1.31.02-2.66.09-3.83.67-1.84.92-2.85 2.9-3.73 4.75" transform="translate(576 333)"/><path fill="#B03D44" fill-rule="nonzero" d="M608.66 390.22c0 1.03.58 2.41.76 2.96.72.37 3.57.98 5.21.24.36-3.41 2.35-9.96 2.35-9.96s-8.32 5.81-8.32 6.76Z"/><g fill-rule="nonzero"><path fill="#000" d="M612.32 387.84s-9.44 22.82-13.54 22.82c-2.98 0-10.29-21.06-10.29-21.06l4.62-2.19 5.15 8.82 5.21-16.45"/><path fill="#000" d="M594.03 388.98s-1.53-2.41-1.42-4.12c.04-.65.43-3.75.11-4.36-.32-.61-1.1-2.61-1.54-2.99-.44-.39-2.08-1.01-2.49-.73-.4.28-.9-1-1.57-.89-.66.11-1.22.67-1.22 1.28s-.89.72-1 1.16c-.11.44-.06.83-.22 1.16-.17.33-.66.17-.83 1-.16.76.06.83 0 1.22-.05.39-.39.35-.28 1.09.11.74.62 1.7 1.06 2.53.44.83 1.36 1.87 2.58 2.61.6.36.93 1 1.5 2.07"/><path fill="#FFF" d="M591.49 371.35c.12-.18.44-.48.82-.22.38.26.26.72.18.91l-2.79 6.32s-.23.26-.66-.12c-.47-.41-.32-.62-.32-.62s2.65-6.09 2.77-6.27Z"/><path fill="#000" d="M588.55 377.21c.53.95 1.15 1.25 1.7 1.77.43.41.38.67.86 1.09-.84-.06-.7-.56-1.78-1.34-.5-.36-1.03-.76-1.12-1.38-.04-.21.21-.32.34-.14Z"/></g><path fill="#A600A9" fill-rule="nonzero" d="M608.64 392c-3.04-.56-5.4-2.67-7.82-5.14 1.34-3.71 3.25-12.85 6.58-16.33 3.43-3.59 9.23-3.15 12.34-3.04 3.21-.14 5.86.24 9.71.41 2.56.11 5.11.41 7.62.96.29.06.57.13.85.2l.01-.03s4.61.49 6.95 2.28c5.96 4.57 1.35 21.13 1.35 21.13s.29.88-3.71.66c-.68-.04-1.34-.1-1.96-.19-2.08 4.89-7.32 14.96-5.8 17.11.4.56 1.39 1.63 1.51 2.32.44 2.56-5.35 3.46-7.83 3.67-3.78.31-8.11.1-11.89-.08-2.87-.14-9.14-1.14-9.58-4.68-.09-.7.26-1.26.6-1.76.44-.65 1.45-1.43 1.82-2.14.87-1.72 1.64-8.95 1.34-10.79-.25-1.44-1.25-2.41-2.09-4.56Z"/><path fill="#000" fill-rule="nonzero" d="M619.21 355.64c.38-1.89.35-2.96-.27-4.22-.21-.42-.48-.81-.85-1.07-.5-.35-1.17-.42-1.72-.18-.36.16-.66.45-.87.81-.66-2.54-.79-5.25-.61-7.89.3-4.19 2.83-7.43 6.51-8.94 6.82-2.8 16.63-.03 19.4 6.67 2.09 5.06 1.03 12.36-2.98 16.6-3.55 3.76-8.65 4.31-13.36 3.53-2.41-.4-6.13-.16-7.38-3.44-.1-.25.12-.51.38-.49 1 .07 1.68-1.04 1.75-1.38Z"/><path fill="#000" fill-rule="nonzero" d="M632.52 358.59c1.97-.56 4.09.55 5.4 2.12 1.51 1.81 2.17 4.63.75 6.52-.53.71-1.28 1.21-2.05 1.64-2.34 1.3-5.12 2.07-7.72 1.43-2.6-.64-4.89-2.97-4.86-5.65.03-2.42 1.8-4.45 3.59-6.09"/><path fill="#000" fill-rule="nonzero" d="M618.09 350.34s2 .02-.61 6.68-2.86 19.22-2.86 19.22 7.15 2.96 16.76 2.71c9.61-.25 10.6-.25 10.84-.99.25-.74 6.16-36.71-6.9-42.87"/><path fill="#FFF" fill-rule="nonzero" d="M653.59 451.13h80.29c4.36-2.25 7.35-6.82 7.35-12.09 0-6.82-5.01-12.47-11.53-13.44.01-.22.02-.44.02-.67 0-7.98-6.6-14.45-14.74-14.45-.85 0-1.68.07-2.5.21-3.51-6.09-10.36-10.22-18.23-10.22-9.17 0-16.95 5.61-19.68 13.39-.86-.17-1.75-.27-2.65-.27-7.82 0-14.16 6.73-14.16 15.03 0 .93.08 1.85.23 2.73-5.92.38-10.6 4.91-10.6 10.45 0 4.07 2.52 7.59 6.2 9.33Z" opacity=".1"/></g></svg>