<svg width="516" height="170" viewBox="0 0 516 170" fill="none" xmlns="http://www.w3.org/2000/svg">
<g clip-path="url(#clip0_385_9430)">
<path d="M46.4217 121.635L15.4289 90.5802C13.9549 89.0987 13.1272 87.092 13.1272 85C13.1272 82.908 13.9549 80.9013 15.4289 79.4197L79.2604 15.4603C80.739 13.9833 82.7417 13.154 84.8295 13.154C86.9173 13.154 88.9199 13.9833 90.3986 15.4603L95.0368 20.1079L104.313 10.8048L99.6751 6.16513C97.7264 4.21021 95.4122 2.65934 92.8648 1.60122C90.3175 0.543094 87.587 -0.00153923 84.8295 -0.00153923C82.0719 -0.00153923 79.3414 0.543094 76.7941 1.60122C74.2468 2.65934 71.9326 4.21021 69.9838 6.16513L6.15238 70.1246C4.20137 72.0772 2.65361 74.3961 1.5976 76.9485C0.541591 79.5009 -0.00195313 82.2369 -0.00195312 85C-0.00195313 87.7631 0.541591 90.499 1.5976 93.0515C2.65361 95.6039 4.20137 97.9227 6.15238 99.8754L37.1373 130.93L46.4217 121.635Z" fill="url(#paint0_linear_385_9430)"/>
<path d="M163.515 70.1246L132.522 39.0696L123.245 48.3648L154.23 79.4198C155.704 80.9013 156.532 82.908 156.532 85C156.532 87.092 155.704 89.0987 154.23 90.5803L90.3987 154.54C88.9201 156.017 86.9174 156.846 84.8296 156.846C82.7418 156.846 80.7391 156.017 79.2605 154.54L74.6301 149.9L65.3457 159.195L69.984 163.843C73.9228 167.785 79.2623 170 84.8296 170C90.3969 170 95.7364 167.785 99.6752 163.843L163.515 99.8754C167.451 95.9297 169.662 90.5791 169.662 85C169.662 79.4209 167.451 74.0703 163.515 70.1246V70.1246Z" fill="url(#paint1_linear_385_9430)"/>
<path d="M124.917 31.4502L81.3737 75.0883C79.6488 76.8146 77.3101 77.7836 74.8722 77.7821C72.4343 77.7806 70.0968 76.8088 68.3739 75.0804C66.6511 73.3521 65.6841 71.0087 65.6855 68.5659C65.687 66.1231 66.6569 63.7809 68.3818 62.0546L111.925 18.4322L124.917 31.4502Z" fill="url(#paint2_linear_385_9430)"/>
<path d="M101.277 107.945L57.7419 151.568L44.75 138.55L88.2851 94.9354C90.0069 93.2091 92.3425 92.2388 94.7782 92.2381C97.214 92.2374 99.5502 93.2062 101.273 94.9314C102.996 96.6567 103.964 98.997 103.965 101.438C103.966 103.878 102.999 106.219 101.277 107.945V107.945Z" fill="url(#paint3_linear_385_9430)"/>
<path d="M220.199 27.6641C219.978 26.2098 218.795 23.7121 215.001 23.7121C212.398 23.7121 210.726 25.3482 210.726 27.0713C210.726 28.5731 211.648 29.6797 213.81 30.0749L217.998 30.8653C223.954 31.9718 227.038 35.8211 227.038 40.279C227.038 45.1874 222.937 50.1748 215.482 50.1748C206.845 50.1748 203.137 44.563 202.695 40.1446L209.093 38.5638C209.353 41.433 211.293 43.9543 215.577 43.9543C218.306 43.9543 219.978 42.6265 219.978 40.6821C219.978 39.1013 218.701 37.9473 216.634 37.5205L212.351 36.7301C207.065 35.7104 203.847 32.1773 203.847 27.5377C203.847 21.6175 209.045 17.46 215.04 17.46C222.85 17.46 225.8 22.1471 226.463 25.8146L220.199 27.6641Z" fill="#1A2B6B"/>
<path d="M253.708 24.874V49.5346H246.743V24.874H237.127V18.1793H263.363V24.8503L253.708 24.874Z" fill="#1A2B6B"/>
<path d="M291.366 43.1718H279.281L277.033 49.5346H269.713L281.49 18.1793H289.56L301.195 49.5109H293.614L291.366 43.1718ZM281.577 36.8486H289.157L285.41 26.0201L281.577 36.8486Z" fill="#1A2B6B"/>
<path d="M322.399 37.8682H319.93V49.5346H312.965V18.1793H325.357C331.534 18.1793 335.502 22.4238 335.502 27.9882C335.565 29.9325 334.998 31.8451 333.884 33.4385C332.77 35.032 331.17 36.2203 329.325 36.8249L335.675 49.5109H328L322.399 37.8682ZM324.032 31.8612C326.903 31.8612 328.442 30.2804 328.442 28.0593C328.442 25.6881 326.903 24.2575 324.032 24.2575H319.93V31.8612H324.032Z" fill="#1A2B6B"/>
<path d="M362.612 24.874V49.5346H355.647V24.874H346.031V18.1793H372.267V24.8503L362.612 24.874Z" fill="#1A2B6B"/>
<path d="M384.393 38.2239V18.1793H391.358V37.6232C391.358 41.4251 393.472 43.322 396.785 43.322C400.098 43.322 402.204 41.4251 402.204 37.6232V18.1793H409.169V38.2239C409.169 46.128 403.648 50.2381 396.785 50.2381C389.922 50.2381 384.393 46.0884 384.393 38.2239Z" fill="#1A2B6B"/>
<path d="M430.602 38.2634V49.5346H423.598V18.1793H435.43C441.741 18.1793 446.142 22.3763 446.142 28.2095C446.142 34.0427 441.741 38.2634 435.43 38.2634H430.602ZM434.696 32.2564C437.347 32.2564 439.153 30.6756 439.153 28.3044C439.153 25.9331 437.347 24.2812 434.696 24.2812H430.642V32.2564H434.696Z" fill="#1A2B6B"/>
<path d="M239.802 66.631H246.901L238.39 97.9547H231.204L224.546 77.1908L217.841 97.9547H210.521L202.033 66.631H209.44L214.599 86.6915L221.083 66.631H228.23L234.706 86.731L239.802 66.631Z" fill="#1A2B6B"/>
<path d="M258.732 97.9547V66.631H265.785V97.9547H258.732Z" fill="#1A2B6B"/>
<path d="M294.45 73.302V97.9547H287.485V73.302H277.869V66.631H304.105V73.302H294.45Z" fill="#1A2B6B"/>
<path d="M335.714 97.9547V85.498H323.235V97.9547H316.27V66.631H323.235V78.9139H335.714V66.631H342.727V97.9547H335.714Z" fill="#1A2B6B"/>
<path d="M203.137 130.78C203.137 121.019 210.544 114.395 219.276 114.395C228.671 114.395 232.812 120.45 233.83 124.955L227.259 127.026C226.77 124.86 224.79 121.2 219.276 121.2C215.087 121.2 210.37 124.204 210.37 130.78C210.37 136.661 214.693 140.067 219.363 140.067C224.79 140.067 226.951 136.439 227.567 134.187L234.224 136.084C233.207 140.415 229.065 147.047 219.363 147.047C210.37 147.015 203.137 140.55 203.137 130.78Z" fill="#1A2B6B"/>
<path d="M266.361 146.383V133.918H253.881V146.383H246.9V115.059H253.866V127.334H266.345V115.059H273.357V146.383H266.361Z" fill="#1A2B6B"/>
<path d="M306.749 140.02H294.672L292.424 146.343H285.104L296.873 115.02H304.942L316.585 146.343H308.997L306.749 140.02ZM296.96 133.657H304.548L300.801 122.829L296.96 133.657Z" fill="#1A2B6B"/>
<path d="M328.355 146.383V115.059H335.408V146.383H328.355Z" fill="#1A2B6B"/>
<path d="M369.885 146.383L357.012 125.832V146.383H350.086V115.059H358.55L370.28 134.1V115.059H377.245V146.383H369.885Z" fill="#1A2B6B"/>
<path d="M391.926 146.383V115.059H398.899V139.712H412.388V146.383H391.926Z" fill="#1A2B6B"/>
<path d="M424.82 146.383V115.059H431.872V146.383H424.82Z" fill="#1A2B6B"/>
<path d="M466.352 146.383L453.479 125.832V146.383H446.561V115.059H455.025L466.754 134.1V115.059H473.72V146.383H466.352Z" fill="#1A2B6B"/>
<path d="M498.89 134.052L495.364 138.004V146.383H488.398V115.059H495.379V128.219L506.802 115.059H515.968L503.804 128.614L516.015 146.383H507.338L498.89 134.052Z" fill="#1A2B6B"/>
</g>
<defs>
<linearGradient id="paint0_linear_385_9430" x1="-0.000434145" y1="65.4691" x2="104.313" y2="65.4691" gradientUnits="userSpaceOnUse">
<stop stop-color="#0C162C"/>
<stop offset="1" stop-color="#1A2B6B"/>
</linearGradient>
<linearGradient id="paint1_linear_385_9430" x1="8706.94" y1="17355.9" x2="22501.8" y2="17355.9" gradientUnits="userSpaceOnUse">
<stop stop-color="#0C162C"/>
<stop offset="1" stop-color="#1A2B6B"/>
</linearGradient>
<linearGradient id="paint2_linear_385_9430" x1="65.692" y1="48.0961" x2="124.917" y2="48.0961" gradientUnits="userSpaceOnUse">
<stop stop-color="#5070D8"/>
<stop offset="1" stop-color="#375BD2"/>
</linearGradient>
<linearGradient id="paint3_linear_385_9430" x1="3404.01" y1="9242.66" x2="7849.27" y2="9242.66" gradientUnits="userSpaceOnUse">
<stop stop-color="#5070D8"/>
<stop offset="1" stop-color="#375BD2"/>
</linearGradient>
<clipPath id="clip0_385_9430">
<rect width="516" height="170" fill="white"/>
</clipPath>
</defs>
</svg>
